STARTFONT 2.1
COMMENT 24x24 kanji font
COMMENT from Japanese Industrial Standard, JIS X 9052-1983
COMMENT named "24-dots Matrix Character Patterns for Dot Printer"
FONT -JIS-Fixed-Medium-R-Normal--24-230-75-75-C-240-JISX0208.1983-0
SIZE 6 78 78
FONTBOUNDINGBOX 24 24 0 2
STARTPROPERTIES 19
FONT_ASCENT 22
FONT_DESCENT 2
DEFAULT_CHAR 8481
COPYRIGHT "from JIS X 9052-1983, by permission to use"
FONTNAME_REGISTRY ""
FOUNDRY "JIS"
FAMILY_NAME "Fixed"
WEIGHT_NAME "Medium"
SLANT "R"
SETWIDTH_NAME "Normal"
ADD_STYLE_NAME ""
PIXEL_SIZE 24
POINT_SIZE 230
RESOLUTION_X 75
RESOLUTION_Y 75
SPACING "C"
AVERAGE_WIDTH 240
CHARSET_REGISTRY "JISX0208.1983"
CHARSET_ENCODING "0"
ENDPROPERTIES
CHARS 6877
STARTCHAR 2121
ENCODING 8481
SWIDTH 144 0
DWIDTH 24 0
BBX 24 24 0 -2
BITMAP
000000
000000
000000
000000
000000
000000
000000
000000
000000
000000
000000
000000
000000
000000
000000
000000
000000
000000
000000
000000
000000
000000
000000
000000
ENDCHAR
STARTCHAR 2122
ENCODING 8482
SWIDTH 144 0
DWIDTH 24 0
BBX 24 24 0 -2
BITMAP
000000
000000
000000
000000
000000
000000
000000
000000
000000
000000
000000
000000
000000
000000
000000
000000
000000
000000
000000
100000
0C0000
070000
038000
018000
ENDCHAR
STARTCHAR 2123
ENCODING 8483
SWIDTH 144 0
DWIDTH 24 0
BBX 24 24 0 -2
BITMAP
000000
000000
000000
000000
000000
000000
000000
000000
000000
000000
000000
000000
000000
000000
000000
000000
000000
000000
060000
090000
108000
108000
090000
060000
ENDCHAR
STARTCHAR 2124
ENCODING 8484
SWIDTH 144 0
DWIDTH 24 0
BBX 24 24 0 -2
BITMAP
000000
000000
000000
000000
000000
000000
000000
000000
000000
000000
000000
000000
000000
000000
000000
000000
000000
000000
0E0000
0E0000
060000
060000
040000
080000
ENDCHAR
STARTCHAR 2125
ENCODING 8485
SWIDTH 144 0
DWIDTH 24 0
BBX 24 24 0 -2
BITMAP
000000
000000
000000
000000
000000
000000
000000
000000
000000
000000
000000
000000
000000
000000
000000
000000
000000
000000
0E0000
0E0000
0E0000
000000
000000
000000
ENDCHAR
STARTCHAR 2126
ENCODING 8486
SWIDTH 144 0
DWIDTH 24 0
BBX 24 24 0 -2
BITMAP
000000
000000
000000
000000
000000
000000
000000
000000
000000
000000
000000
003800
003800
003800
000000
000000
000000
000000
000000
000000
000000
000000
000000
000000
ENDCHAR
STARTCHAR 2127
ENCODING 8487
SWIDTH 144 0
DWIDTH 24 0
BBX 24 24 0 -2
BITMAP
000000
000000
000000
000000
000000
000000
000000
000000
003800
003800
003800
000000
000000
000000
000000
000000
000000
000000
003800
003800
003800
000000
000000
000000
ENDCHAR
STARTCHAR 2128
ENCODING 8488
SWIDTH 144 0
DWIDTH 24 0
BBX 24 24 0 -2
BITMAP
000000
000000
000000
000000
000000
000000
000000
000000
003800
003800
003800
000000
000000
000000
000000
000000
000000
000000
003800
003800
001800
001800
001000
002000
ENDCHAR
STARTCHAR 2129
ENCODING 8489
SWIDTH 144 0
DWIDTH 24 0
BBX 24 24 0 -2
BITMAP
000000
000000
007C00
018300
030180
0300C0
0380C0
0180C0
000180
000180
000300
000600
000C00
000800
001000
001000
000000
000000
003800
003800
003800
000000
000000
000000
ENDCHAR
STARTCHAR 212a
ENCODING 8490
SWIDTH 144 0
DWIDTH 24 0
BBX 24 24 0 -2
BITMAP
000000
000000
003800
003800
003800
003800
003800
003800
003800
003800
003800
001000
001000
001000
001000
001000
000000
000000
003800
003800
003800
000000
000000
000000
ENDCHAR
STARTCHAR 212b
ENCODING 8491
SWIDTH 144 0
DWIDTH 24 0
BBX 24 24 0 -2
BITMAP
180000
0C0000
CC0000
600000
600000
000000
000000
000000
000000
000000
000000
000000
000000
000000
000000
000000
000000
000000
000000
000000
000000
000000
000000
000000
ENDCHAR
STARTCHAR 212c
ENCODING 8492
SWIDTH 144 0
DWIDTH 24 0
BBX 24 24 0 -2
BITMAP
000000
000000
380000
440000
440000
440000
380000
000000
000000
000000
000000
000000
000000
000000
000000
000000
000000
000000
000000
000000
000000
000000
000000
000000
ENDCHAR
STARTCHAR 212d
ENCODING 8493
SWIDTH 144 0
DWIDTH 24 0
BBX 24 24 0 -2
BITMAP
000C00
007E00
000000
000000
000000
000000
000000
000000
000000
000000
000000
000000
000000
000000
000000
000000
000000
000000
000000
000000
000000
000000
000000
000000
ENDCHAR
STARTCHAR 212e
ENCODING 8494
SWIDTH 144 0
DWIDTH 24 0
BBX 24 24 0 -2
BITMAP
003000
007E00
000000
000000
000000
000000
000000
000000
000000
000000
000000
000000
000000
000000
000000
000000
000000
000000
000000
000000
000000
000000
000000
000000
ENDCHAR
STARTCHAR 212f
ENCODING 8495
SWIDTH 144 0
DWIDTH 24 0
BBX 24 24 0 -2
BITMAP
006600
006600
000000
000000
000000
000000
000000
000000
000000
000000
000000
000000
000000
000000
000000
000000
000000
000000
000000
000000
000000
000000
000000
000000
ENDCHAR
STARTCHAR 2130
ENCODING 8496
SWIDTH 144 0
DWIDTH 24 0
BBX 24 24 0 -2
BITMAP
001800
006600
000000
000000
000000
000000
000000
000000
000000
000000
000000
000000
000000
000000
000000
000000
000000
000000
000000
000000
000000
000000
000000
000000
ENDCHAR
STARTCHAR 2131
ENCODING 8497
SWIDTH 144 0
DWIDTH 24 0
BBX 24 24 0 -2
BITMAP
FFFFFF
000000
000000
000000
000000
000000
000000
000000
000000
000000
000000
000000
000000
000000
000000
000000
000000
000000
000000
000000
000000
000000
000000
000000
ENDCHAR
STARTCHAR 2132
ENCODING 8498
SWIDTH 144 0
DWIDTH 24 0
BBX 24 24 0 -2
BITMAP
000000
000000
000000
000000
000000
000000
000000
000000
000000
000000
000000
000000
000000
000000
000000
000000
000000
000000
000000
000000
000000
000000
000000
FFFFFF
ENDCHAR
STARTCHAR 2133
ENCODING 8499
SWIDTH 144 0
DWIDTH 24 0
BBX 24 24 0 -2
BITMAP
000000
000000
000000
000000
000000
000000
000000
000000
008000
006000
003800
001C00
000E00
000700
000700
000300
000000
000000
000000
000000
000000
000000
000000
000000
ENDCHAR
STARTCHAR 2134
ENCODING 8500
SWIDTH 144 0
DWIDTH 24 0
BBX 24 24 0 -2
BITMAP
000000
000000
000000
000000
000000
000060
000030
000330
000180
008180
006000
003800
001C00
000E00
000700
000700
000300
000000
000000
000000
000000
000000
000000
000000
ENDCHAR
STARTCHAR 2135
ENCODING 8501
SWIDTH 144 0
DWIDTH 24 0
BBX 24 24 0 -2
BITMAP
000000
000000
000000
000000
000000
000000
008000
004000
006000
003800
001C00
000E00
000700
001F00
006600
000000
000000
000000
000000
000000
000000
000000
000000
000000
ENDCHAR
STARTCHAR 2136
ENCODING 8502
SWIDTH 144 0
DWIDTH 24 0
BBX 24 24 0 -2
BITMAP
000000
000000
000000
000000
000060
000030
000330
008180
004180
006000
003800
001C00
000E00
000700
001F00
006600
000000
000000
000000
000000
000000
000000
000000
000000
ENDCHAR
STARTCHAR 2137
ENCODING 8503
SWIDTH 144 0
DWIDTH 24 0
BBX 24 24 0 -2
BITMAP
000000
000000
000000
000000
000000
000000
006180
006180
006180
006180
006180
006180
00C300
00C300
00C300
008200
018600
010400
020800
000000
000000
000000
000000
000000
ENDCHAR
STARTCHAR 2138
ENCODING 8504
SWIDTH 144 0
DWIDTH 24 0
BBX 24 24 0 -2
BITMAP
001800
001800
003400
003400
006200
006300
00C180
0180C0
030070
06003F
0C001E
3000C6
C7FFE0
001800
001800
001800
001800
001800
001800
001800
001800
001806
FFFFFF
000000
ENDCHAR
STARTCHAR 2139
ENCODING 8505
SWIDTH 144 0
DWIDTH 24 0
BBX 24 24 0 -2
BITMAP
000000
000000
000000
000000
004000
007000
006060
007FF0
00C060
00C0C0
0180C0
030180
020100
040200
086400
101800
000E00
000700
000380
000180
000000
000000
000000
000000
ENDCHAR
STARTCHAR 213a
ENCODING 8506
SWIDTH 144 0
DWIDTH 24 0
BBX 24 24 0 -2
BITMAP
000002
000003
000007
00000F
00003C
000070
0001C0
000300
03C600
043800
081C00
082600
104700
108300
310000
220000
260000
2C0000
380000
300000
700000
600000
E00000
C00000
ENDCHAR
STARTCHAR 213b
ENCODING 8507
SWIDTH 144 0
DWIDTH 24 0
BBX 24 24 0 -2
BITMAP
000000
000000
000000
007E00
03C3C0
0E0070
180018
30000C
200004
600006
400002
400002
400002
400002
600006
200004
30000C
180018
0E0070
03C3C0
007E00
000000
000000
000000
ENDCHAR
STARTCHAR 213c
ENCODING 8508
SWIDTH 144 0
DWIDTH 24 0
BBX 24 24 0 -2
BITMAP
000000
000000
000000
000000
000000
000000
000000
000000
000000
000000
400000
7FFFFC
3FFFFE
180000
000000
000000
000000
000000
000000
000000
000000
000000
000000
000000
ENDCHAR
STARTCHAR 213d
ENCODING 8509
SWIDTH 144 0
DWIDTH 24 0
BBX 24 24 0 -2
BITMAP
000000
000000
000000
000000
000000
000000
000000
000000
000000
000000
000000
000000
FFFFFF
000000
000000
000000
000000
000000
000000
000000
000000
000000
000000
000000
ENDCHAR
STARTCHAR 213e
ENCODING 8510
SWIDTH 144 0
DWIDTH 24 0
BBX 24 24 0 -2
BITMAP
000000
000000
000000
000000
000000
000000
000000
000000
000000
000000
000000
000000
007E00
000000
000000
000000
000000
000000
000000
000000
000000
000000
000000
000000
ENDCHAR
STARTCHAR 213f
ENCODING 8511
SWIDTH 144 0
DWIDTH 24 0
BBX 24 24 0 -2
BITMAP
000001
000002
000004
000008
000010
000020
000040
000080
000100
000200
000400
000800
001000
002000
004000
008000
010000
020000
040000
080000
100000
200000
400000
800000
ENDCHAR
STARTCHAR 2140
ENCODING 8512
SWIDTH 144 0
DWIDTH 24 0
BBX 24 24 0 -2
BITMAP
800000
400000
200000
100000
080000
040000
020000
010000
008000
004000
002000
001000
000800
000400
000200
000100
000080
000040
000020
000010
000008
000004
000002
000001
ENDCHAR
STARTCHAR 2141
ENCODING 8513
SWIDTH 144 0
DWIDTH 24 0
BBX 24 24 0 -2
BITMAP
000000
000000
000000
000000
000000
000000
000000
000000
000000
1F0000
61E000
807800
001E01
000786
0000F8
000000
000000
000000
000000
000000
000000
000000
000000
000000
ENDCHAR
STARTCHAR 2142
ENCODING 8514
SWIDTH 144 0
DWIDTH 24 0
BBX 24 24 0 -2
BITMAP
004200
004200
004200
004200
004200
004200
004200
004200
004200
004200
004200
004200
004200
004200
004200
004200
004200
004200
004200
004200
004200
004200
004200
004200
ENDCHAR
STARTCHAR 2143
ENCODING 8515
SWIDTH 144 0
DWIDTH 24 0
BBX 24 24 0 -2
BITMAP
001000
001000
001000
001000
001000
001000
001000
001000
001000
001000
001000
001000
001000
001000
001000
001000
001000
001000
001000
001000
001000
001000
001000
001000
ENDCHAR
STARTCHAR 2144
ENCODING 8516
SWIDTH 144 0
DWIDTH 24 0
BBX 24 24 0 -2
BITMAP
000000
000000
000000
000000
000000
000000
000000
000000
000000
000000
000000
70381C
70381C
70381C
000000
000000
000000
000000
000000
000000
000000
000000
000000
000000
ENDCHAR
STARTCHAR 2145
ENCODING 8517
SWIDTH 144 0
DWIDTH 24 0
BBX 24 24 0 -2
BITMAP
000000
000000
000000
000000
000000
000000
000000
000000
000000
000000
000000
1C0070
1C0070
1C0070
000000
000000
000000
000000
000000
000000
000000
000000
000000
000000
ENDCHAR
STARTCHAR 2146
ENCODING 8518
SWIDTH 144 0
DWIDTH 24 0
BBX 24 24 0 -2
BITMAP
000010
000020
000060
000060
000070
000070
000000
000000
000000
000000
000000
000000
000000
000000
000000
000000
000000
000000
000000
000000
000000
000000
000000
000000
ENDCHAR
STARTCHAR 2147
ENCODING 8519
SWIDTH 144 0
DWIDTH 24 0
BBX 24 24 0 -2
BITMAP
0E0000
0E0000
060000
060000
040000
080000
000000
000000
000000
000000
000000
000000
000000
000000
000000
000000
000000
000000
000000
000000
000000
000000
000000
000000
ENDCHAR
STARTCHAR 2148
ENCODING 8520
SWIDTH 144 0
DWIDTH 24 0
BBX 24 24 0 -2
BITMAP
000084
000108
000318
000318
00039C
00039C
000000
000000
000000
000000
000000
000000
000000
000000
000000
000000
000000
000000
000000
000000
000000
000000
000000
000000
ENDCHAR
STARTCHAR 2149
ENCODING 8521
SWIDTH 144 0
DWIDTH 24 0
BBX 24 24 0 -2
BITMAP
39C000
39C000
18C000
18C000
108000
210000
000000
000000
000000
000000
000000
000000
000000
000000
000000
000000
000000
000000
000000
000000
000000
000000
000000
000000
ENDCHAR
STARTCHAR 214a
ENCODING 8522
SWIDTH 144 0
DWIDTH 24 0
BBX 24 24 0 -2
BITMAP
000020
000040
0000C0
000080
000180
000100
000300
000300
000200
000600
000600
000600
000600
000600
000600
000200
000300
000300
000100
000180
000080
0000C0
000040
000020
ENDCHAR
STARTCHAR 214b
ENCODING 8523
SWIDTH 144 0
DWIDTH 24 0
BBX 24 24 0 -2
BITMAP
040000
020000
030000
010000
018000
008000
00C000
00C000
004000
006000
006000
006000
006000
006000
006000
004000
00C000
00C000
008000
018000
010000
030000
020000
040000
ENDCHAR
STARTCHAR 214c
ENCODING 8524
SWIDTH 144 0
DWIDTH 24 0
BBX 24 24 0 -2
BITMAP
000030
0000C0
000300
000C00
000800
000800
000800
000800
000800
000800
000800
000800
000800
000800
000800
000800
000800
000800
000800
000800
000C00
000300
0000C0
000030
ENDCHAR
STARTCHAR 214d
ENCODING 8525
SWIDTH 144 0
DWIDTH 24 0
BBX 24 24 0 -2
BITMAP
0C0000
030000
00C000
003000
001000
001000
001000
001000
001000
001000
001000
001000
001000
001000
001000
001000
001000
001000
001000
001000
003000
00C000
030000
0C0000
ENDCHAR
STARTCHAR 214e
ENCODING 8526
SWIDTH 144 0
DWIDTH 24 0
BBX 24 24 0 -2
BITMAP
0007F0
000400
000400
000400
000400
000400
000400
000400
000400
000400
000400
000400
000400
000400
000400
000400
000400
000400
000400
000400
000400
000400
000400
0007F0
ENDCHAR
STARTCHAR 214f
ENCODING 8527
SWIDTH 144 0
DWIDTH 24 0
BBX 24 24 0 -2
BITMAP
0FE000
002000
002000
002000
002000
002000
002000
002000
002000
002000
002000
002000
002000
002000
002000
002000
002000
002000
002000
002000
002000
002000
002000
0FE000
ENDCHAR
STARTCHAR 2150
ENCODING 8528
SWIDTH 144 0
DWIDTH 24 0
BBX 24 24 0 -2
BITMAP
000040
000080
000080
000180
000180
000180
000180
000180
000180
000100
000200
000400
000200
000100
000180
000180
000180
000180
000180
000180
000180
000080
000080
000040
ENDCHAR
STARTCHAR 2151
ENCODING 8529
SWIDTH 144 0
DWIDTH 24 0
BBX 24 24 0 -2
BITMAP
020000
010000
010000
018000
018000
018000
018000
018000
018000
008000
004000
002000
004000
008000
018000
018000
018000
018000
018000
018000
018000
010000
010000
020000
ENDCHAR
STARTCHAR 2152
ENCODING 8530
SWIDTH 144 0
DWIDTH 24 0
BBX 24 24 0 -2
BITMAP
000010
000010
000020
000040
000080
000080
000100
000200
000400
000400
000800
001000
000800
000400
000400
000200
000100
000100
000080
000040
000040
000020
000010
000010
ENDCHAR
STARTCHAR 2153
ENCODING 8531
SWIDTH 144 0
DWIDTH 24 0
BBX 24 24 0 -2
BITMAP
080000
080000
040000
020000
010000
010000
008000
004000
002000
002000
001000
000800
001000
002000
002000
004000
008000
008000
010000
020000
020000
040000
080000
080000
ENDCHAR
STARTCHAR 2154
ENCODING 8532
SWIDTH 144 0
DWIDTH 24 0
BBX 24 24 0 -2
BITMAP
000044
000044
000088
000110
000110
000220
000440
000440
000880
001100
001100
002200
001100
001100
000880
000440
000440
000220
000220
000110
000088
000088
000044
000044
ENDCHAR
STARTCHAR 2155
ENCODING 8533
SWIDTH 144 0
DWIDTH 24 0
BBX 24 24 0 -2
BITMAP
220000
220000
110000
088000
088000
044000
022000
022000
011000
008800
008800
004400
008800
008800
011000
022000
022000
044000
044000
088000
110000
110000
220000
220000
ENDCHAR
STARTCHAR 2156
ENCODING 8534
SWIDTH 144 0
DWIDTH 24 0
BBX 24 24 0 -2
BITMAP
0007F0
000400
000400
000400
000400
000400
000400
000400
000400
000400
000400
000400
000400
000400
000400
000400
000000
000000
000000
000000
000000
000000
000000
000000
ENDCHAR
STARTCHAR 2157
ENCODING 8535
SWIDTH 144 0
DWIDTH 24 0
BBX 24 24 0 -2
BITMAP
000000
000000
000000
000000
000000
000000
000000
000000
002000
002000
002000
002000
002000
002000
002000
002000
002000
002000
002000
002000
002000
002000
002000
0FE000
ENDCHAR
STARTCHAR 2158
ENCODING 8536
SWIDTH 144 0
DWIDTH 24 0
BBX 24 24 0 -2
BITMAP
0007F8
000408
000408
0004F8
000480
000480
000480
000480
000480
000480
000480
000480
000480
000480
000480
000780
000000
000000
000000
000000
000000
000000
000000
000000
ENDCHAR
STARTCHAR 2159
ENCODING 8537
SWIDTH 144 0
DWIDTH 24 0
BBX 24 24 0 -2
BITMAP
000000
000000
000000
000000
000000
000000
000000
000000
01E000
012000
012000
012000
012000
012000
012000
012000
012000
012000
012000
012000
1F2000
102000
102000
1FE000
ENDCHAR
STARTCHAR 215a
ENCODING 8538
SWIDTH 144 0
DWIDTH 24 0
BBX 24 24 0 -2
BITMAP
0007F0
0007E0
0007C0
0007C0
000780
000780
000700
000700
000700
000600
000600
000600
000600
000600
000600
000700
000700
000700
000780
000780
0007C0
0007C0
0007E0
0007F0
ENDCHAR
STARTCHAR 215b
ENCODING 8539
SWIDTH 144 0
DWIDTH 24 0
BBX 24 24 0 -2
BITMAP
0FE000
07E000
03E000
03E000
01E000
01E000
00E000
00E000
00E000
006000
006000
006000
006000
006000
006000
00E000
00E000
00E000
01E000
01E000
03E000
03E000
07E000
0FE000
ENDCHAR
STARTCHAR 215c
ENCODING 8540
SWIDTH 144 0
DWIDTH 24 0
BBX 24 24 0 -2
BITMAP
000000
000000
000000
001000
001000
001000
001000
001000
001000
001000
001000
1FFFF8
001000
001000
001000
001000
001000
001000
001000
001000
001000
000000
000000
000000
ENDCHAR
STARTCHAR 215d
ENCODING 8541
SWIDTH 144 0
DWIDTH 24 0
BBX 24 24 0 -2
BITMAP
000000
000000
000000
000000
000000
000000
000000
000000
000000
000000
000000
1FFFF8
000000
000000
000000
000000
000000
000000
000000
000000
000000
000000
000000
000000
ENDCHAR
STARTCHAR 215e
ENCODING 8542
SWIDTH 144 0
DWIDTH 24 0
BBX 24 24 0 -2
BITMAP
000000
000000
000000
001000
001000
001000
001000
001000
001000
001000
1FFFF8
001000
001000
001000
001000
001000
001000
001000
000000
000000
1FFFF8
000000
000000
000000
ENDCHAR
STARTCHAR 215f
ENCODING 8543
SWIDTH 144 0
DWIDTH 24 0
BBX 24 24 0 -2
BITMAP
000000
000000
000000
000000
080010
040020
020040
010080
008100
004200
002400
001800
001800
002400
004200
008100
010080
020040
040020
080010
000000
000000
000000
000000
ENDCHAR
STARTCHAR 2160
ENCODING 8544
SWIDTH 144 0
DWIDTH 24 0
BBX 24 24 0 -2
BITMAP
000000
000000
000000
000000
003800
003800
003800
000000
000000
000000
000000
1FFFF8
000000
000000
000000
000000
003800
003800
003800
000000
000000
000000
000000
000000
ENDCHAR
STARTCHAR 2161
ENCODING 8545
SWIDTH 144 0
DWIDTH 24 0
BBX 24 24 0 -2
BITMAP
000000
000000
000000
000000
000000
000000
000000
000000
000000
1FFFF8
000000
000000
000000
000000
1FFFF8
000000
000000
000000
000000
000000
000000
000000
000000
000000
ENDCHAR
STARTCHAR 2162
ENCODING 8546
SWIDTH 144 0
DWIDTH 24 0
BBX 24 24 0 -2
BITMAP
000000
000000
000000
000000
000200
000200
000200
000400
000400
1FFFF8
000800
000800
001000
001000
1FFFF8
002000
002000
004000
004000
004000
000000
000000
000000
000000
ENDCHAR
STARTCHAR 2163
ENCODING 8547
SWIDTH 144 0
DWIDTH 24 0
BBX 24 24 0 -2
BITMAP
000000
000000
00000C
000030
0000C0
000300
000C00
003000
00C000
030000
0C0000
300000
0C0000
020000
018000
006000
001800
000600
000100
0000C0
000030
00000C
000000
000000
ENDCHAR
STARTCHAR 2164
ENCODING 8548
SWIDTH 144 0
DWIDTH 24 0
BBX 24 24 0 -2
BITMAP
000000
000000
300000
0C0000
030000
00C000
003000
000C00
000300
0000C0
000030
00000C
000030
000040
000180
000600
001800
006000
008000
030000
0C0000
300000
000000
000000
ENDCHAR
STARTCHAR 2165
ENCODING 8549
SWIDTH 144 0
DWIDTH 24 0
BBX 24 24 0 -2
BITMAP
000000
000000
000018
0000E0
000700
003800
01C000
060000
180000
060000
01C000
003800
000700
0000E0
000018
000000
1FFFF8
000000
000000
000000
1FFFF8
000000
000000
000000
ENDCHAR
STARTCHAR 2166
ENCODING 8550
SWIDTH 144 0
DWIDTH 24 0
BBX 24 24 0 -2
BITMAP
000000
000000
180000
070000
00E000
001C00
000380
000060
000018
000060
000380
001C00
00E000
070000
180000
000000
1FFFF8
000000
000000
000000
1FFFF8
000000
000000
000000
ENDCHAR
STARTCHAR 2167
ENCODING 8551
SWIDTH 144 0
DWIDTH 24 0
BBX 24 24 0 -2
BITMAP
000000
000000
000000
000000
000000
000000
0700E0
1DC3B8
30660C
202404
603C06
401802
401802
603C06
202404
30660C
1DC3B8
0700E0
000000
000000
000000
000000
000000
000000
ENDCHAR
STARTCHAR 2168
ENCODING 8552
SWIDTH 144 0
DWIDTH 24 0
BBX 24 24 0 -2
BITMAP
000000
000000
000000
000000
003800
003800
003800
000000
000000
000000
000000
000000
000000
000000
000000
000000
000000
1C0070
1C0070
1C0070
000000
000000
000000
000000
ENDCHAR
STARTCHAR 2169
ENCODING 8553
SWIDTH 144 0
DWIDTH 24 0
BBX 24 24 0 -2
BITMAP
000000
000000
000FFC
00000C
000014
000024
000044
000084
000104
000204
000404
000804
039000
0C6000
101000
101000
200800
200800
200800
101000
101000
0C6000
038000
000000
ENDCHAR
STARTCHAR 216a
ENCODING 8554
SWIDTH 144 0
DWIDTH 24 0
BBX 24 24 0 -2
BITMAP
000000
003800
00C600
010100
010100
020080
020080
020080
010100
010100
00C600
003800
001000
001000
0FFFE0
001000
001000
001000
001000
001000
001000
001000
001000
001000
ENDCHAR
STARTCHAR 216b
ENCODING 8555
SWIDTH 144 0
DWIDTH 24 0
BBX 24 24 0 -2
BITMAP
000000
000000
060000
090000
108000
108000
090000
060000
000000
000000
000000
000000
000000
000000
000000
000000
000000
000000
000000
000000
000000
000000
000000
000000
ENDCHAR
STARTCHAR 216c
ENCODING 8556
SWIDTH 144 0
DWIDTH 24 0
BBX 24 24 0 -2
BITMAP
000000
000000
038000
030000
060000
040000
080000
000000
000000
000000
000000
000000
000000
000000
000000
000000
000000
000000
000000
000000
000000
000000
000000
000000
ENDCHAR
STARTCHAR 216d
ENCODING 8557
SWIDTH 144 0
DWIDTH 24 0
BBX 24 24 0 -2
BITMAP
000000
000000
1CE000
18C000
318000
210000
420000
000000
000000
000000
000000
000000
000000
000000
000000
000000
000000
000000
000000
000000
000000
000000
000000
000000
ENDCHAR
STARTCHAR 216e
ENCODING 8558
SWIDTH 144 0
DWIDTH 24 0
BBX 24 24 0 -2
BITMAP
000000
000000
300380
480C64
84301C
84600C
48C004
318004
018000
030000
030000
030000
030000
030000
030000
018000
018000
00C002
00C004
006008
001830
0007C0
000000
000000
ENDCHAR
STARTCHAR 216f
ENCODING 8559
SWIDTH 144 0
DWIDTH 24 0
BBX 24 24 0 -2
BITMAP
000000
000000
3F80FC
0E0030
060020
030040
030040
018080
3FFFFC
00C100
006200
006200
003400
3FFFFC
001800
001800
001800
001800
001800
001800
001800
007E00
000000
000000
ENDCHAR
STARTCHAR 2170
ENCODING 8560
SWIDTH 144 0
DWIDTH 24 0
BBX 24 24 0 -2
BITMAP
000000
000800
000800
003E00
01C980
0308C0
060860
060860
070800
038800
01E800
007E00
001F80
0009E0
000870
000830
060830
060830
030860
0189C0
007E00
000800
000800
000000
ENDCHAR
STARTCHAR 2171
ENCODING 8561
SWIDTH 144 0
DWIDTH 24 0
BBX 24 24 0 -2
BITMAP
000000
000000
000000
000000
000000
000000
000000
000100
000100
003E00
00C380
0184C0
0184C0
030800
030800
031000
031000
01A040
01A080
00C300
007C00
008000
008000
000000
ENDCHAR
STARTCHAR 2172
ENCODING 8562
SWIDTH 144 0
DWIDTH 24 0
BBX 24 24 0 -2
BITMAP
000000
000000
000F80
003060
004030
008038
018038
018030
018000
018000
00C000
00C000
3FFF00
00C000
006000
006000
0E6000
11E000
207004
20CC18
1187F0
0E01E0
000000
000000
ENDCHAR
STARTCHAR 2173
ENCODING 8563
SWIDTH 144 0
DWIDTH 24 0
BBX 24 24 0 -2
BITMAP
000000
070002
18C004
104008
306010
306020
306040
306080
104100
18C200
070400
000800
001000
0020E0
004318
008208
01060C
02060C
04060C
08060C
100208
200318
4000E0
000000
ENDCHAR
STARTCHAR 2174
ENCODING 8564
SWIDTH 144 0
DWIDTH 24 0
BBX 24 24 0 -2
BITMAP
004080
004080
004080
004080
004080
004080
0FFFF8
0FFFF8
008100
008100
008100
008100
008100
008100
008100
1FFFF0
1FFFF0
010200
010200
010200
010200
010200
010200
010200
ENDCHAR
STARTCHAR 2175
ENCODING 8565
SWIDTH 144 0
DWIDTH 24 0
BBX 24 24 0 -2
BITMAP
000000
000000
007000
018C00
030600
060200
060200
060200
030600
030C00
01B0F8
01C020
06C020
086040
187040
303880
301D00
300E00
300704
180B84
0C31F8
03C070
000000
000000
ENDCHAR
STARTCHAR 2176
ENCODING 8566
SWIDTH 144 0
DWIDTH 24 0
BBX 24 24 0 -2
BITMAP
000000
000000
000000
000000
000000
001000
003800
003800
0610C0
0711C0
01D700
003800
003800
01D700
0711C0
0610C0
003800
003800
001000
000000
000000
000000
000000
000000
ENDCHAR
STARTCHAR 2177
ENCODING 8567
SWIDTH 144 0
DWIDTH 24 0
BBX 24 24 0 -2
BITMAP
000000
000000
000000
007E00
01E180
038040
070020
0E1D90
0C3390
186188
18C188
10C308
118310
118310
118720
088B40
087180
040010
020020
0180C0
007F00
000000
000000
000000
ENDCHAR
STARTCHAR 2178
ENCODING 8568
SWIDTH 144 0
DWIDTH 24 0
BBX 24 24 0 -2
BITMAP
000000
000000
007E00
018180
0300C0
0300C0
018000
00E000
003C00
00CF00
010380
0300C0
0300C0
01C080
00F300
003C00
000700
000180
0300C0
0300C0
018180
007E00
000000
000000
ENDCHAR
STARTCHAR 2179
ENCODING 8569
SWIDTH 144 0
DWIDTH 24 0
BBX 24 24 0 -2
BITMAP
000000
000000
001000
002800
002800
004400
004400
004200
008200
3F81F8
100010
080020
040040
020080
010100
020080
021080
042840
044440
098320
0A00A0
0C0060
000000
000000
ENDCHAR
STARTCHAR 217a
ENCODING 8570
SWIDTH 144 0
DWIDTH 24 0
BBX 24 24 0 -2
BITMAP
000000
000000
001000
001000
003800
003800
007C00
007C00
00FE00
3FFFF8
1FFFF0
0FFFE0
07FFC0
03FF80
01FF00
01FF00
03FF80
03EF80
07C7C0
0701C0
0E00E0
080020
000000
000000
ENDCHAR
STARTCHAR 217b
ENCODING 8571
SWIDTH 144 0
DWIDTH 24 0
BBX 24 24 0 -2
BITMAP
000000
007E00
018180
060060
080010
100008
100008
200004
200004
400002
400002
400002
400002
400002
400002
200004
200004
100008
100008
080010
060060
018180
007E00
000000
ENDCHAR
STARTCHAR 217c
ENCODING 8572
SWIDTH 144 0
DWIDTH 24 0
BBX 24 24 0 -2
BITMAP
000000
007E00
01FF80
07FFE0
0FFFF0
1FFFF8
1FFFF8
3FFFFC
3FFFFC
7FFFFE
7FFFFE
7FFFFE
7FFFFE
7FFFFE
7FFFFE
3FFFFC
3FFFFC
1FFFF8
1FFFF8
0FFFF0
07FFE0
01FF80
007E00
000000
ENDCHAR
STARTCHAR 217d
ENCODING 8573
SWIDTH 144 0
DWIDTH 24 0
BBX 24 24 0 -2
BITMAP
000000
007E00
018180
060060
080010
103C08
10C308
210084
220044
420042
440022
440022
440022
440022
420042
220044
210084
10C308
103C08
080010
060060
018180
007E00
000000
ENDCHAR
STARTCHAR 217e
ENCODING 8574
SWIDTH 144 0
DWIDTH 24 0
BBX 24 24 0 -2
BITMAP
001800
002400
004200
008100
010080
020040
040020
080010
100008
200004
400002
800001
800001
400002
200004
100008
080010
040020
020040
010080
008100
004200
002400
001800
ENDCHAR
STARTCHAR 2221
ENCODING 8737
SWIDTH 144 0
DWIDTH 24 0
BBX 24 24 0 -2
BITMAP
001800
003C00
007E00
00FF00
01FF80
03FFC0
07FFE0
0FFFF0
1FFFF8
3FFFFC
7FFFFE
FFFFFF
FFFFFF
7FFFFE
3FFFFC
1FFFF8
0FFFF0
07FFE0
03FFC0
01FF80
00FF00
007E00
003C00
001800
ENDCHAR
STARTCHAR 2222
ENCODING 8738
SWIDTH 144 0
DWIDTH 24 0
BBX 24 24 0 -2
BITMAP
000000
7FFFFE
400002
400002
400002
400002
400002
400002
400002
400002
400002
400002
400002
400002
400002
400002
400002
400002
400002
400002
400002
400002
7FFFFE
000000
ENDCHAR
STARTCHAR 2223
ENCODING 8739
SWIDTH 144 0
DWIDTH 24 0
BBX 24 24 0 -2
BITMAP
000000
7FFFFE
7FFFFE
7FFFFE
7FFFFE
7FFFFE
7FFFFE
7FFFFE
7FFFFE
7FFFFE
7FFFFE
7FFFFE
7FFFFE
7FFFFE
7FFFFE
7FFFFE
7FFFFE
7FFFFE
7FFFFE
7FFFFE
7FFFFE
7FFFFE
7FFFFE
000000
ENDCHAR
STARTCHAR 2224
ENCODING 8740
SWIDTH 144 0
DWIDTH 24 0
BBX 24 24 0 -2
BITMAP
000000
000000
000000
001000
002800
002800
004400
004400
008200
008100
010100
010080
020080
020040
040020
080020
080010
100008
100008
200004
7FFFFE
000000
000000
000000
ENDCHAR
STARTCHAR 2225
ENCODING 8741
SWIDTH 144 0
DWIDTH 24 0
BBX 24 24 0 -2
BITMAP
000000
000000
000000
001000
003800
003800
007C00
007C00
00FE00
00FF00
01FF00
01FF80
03FF80
03FFC0
07FFE0
0FFFE0
0FFFF0
1FFFF8
1FFFF8
3FFFFC
7FFFFE
000000
000000
000000
ENDCHAR
STARTCHAR 2226
ENCODING 8742
SWIDTH 144 0
DWIDTH 24 0
BBX 24 24 0 -2
BITMAP
000000
000000
000000
7FFFFE
200004
100008
100008
080010
080020
040020
020040
020080
010080
010100
008100
008200
004400
004400
002800
002800
001000
000000
000000
000000
ENDCHAR
STARTCHAR 2227
ENCODING 8743
SWIDTH 144 0
DWIDTH 24 0
BBX 24 24 0 -2
BITMAP
000000
000000
000000
7FFFFE
3FFFFC
1FFFF8
1FFFF8
0FFFF0
0FFFE0
07FFE0
03FFC0
03FF80
01FF80
01FF00
00FF00
00FE00
007C00
007C00
003800
003800
001000
000000
000000
000000
ENDCHAR
STARTCHAR 2228
ENCODING 8744
SWIDTH 144 0
DWIDTH 24 0
BBX 24 24 0 -2
BITMAP
000000
000000
000000
101808
083C10
043C20
021840
010080
008100
004200
0C2430
1E1878
1E1878
0C2430
004200
008100
010080
021840
043C20
083C10
101808
000000
000000
000000
ENDCHAR
STARTCHAR 2229
ENCODING 8745
SWIDTH 144 0
DWIDTH 24 0
BBX 24 24 0 -2
BITMAP
000000
000000
7FFFFE
7FFFFE
000000
000000
000000
000000
7FFFFE
7FFFFE
001800
001800
001800
001800
001800
001800
001800
001800
001800
001800
001800
001800
001800
000000
ENDCHAR
STARTCHAR 222a
ENCODING 8746
SWIDTH 144 0
DWIDTH 24 0
BBX 24 24 0 -2
BITMAP
000000
000000
000000
000000
000000
000000
000000
000040
000020
000018
00000C
FFFFFF
00000C
000018
000020
000040
000000
000000
000000
000000
000000
000000
000000
000000
ENDCHAR
STARTCHAR 222b
ENCODING 8747
SWIDTH 144 0
DWIDTH 24 0
BBX 24 24 0 -2
BITMAP
000000
000000
000000
000000
000000
000000
000000
020000
040000
180000
300000
FFFFFF
300000
180000
040000
020000
000000
000000
000000
000000
000000
000000
000000
000000
ENDCHAR
STARTCHAR 222c
ENCODING 8748
SWIDTH 144 0
DWIDTH 24 0
BBX 24 24 0 -2
BITMAP
001000
001000
003800
007C00
005400
009200
011100
001000
001000
001000
001000
001000
001000
001000
001000
001000
001000
001000
001000
001000
001000
001000
001000
001000
ENDCHAR
STARTCHAR 222d
ENCODING 8749
SWIDTH 144 0
DWIDTH 24 0
BBX 24 24 0 -2
BITMAP
001000
001000
001000
001000
001000
001000
001000
001000
001000
001000
001000
001000
001000
001000
001000
001000
001000
011100
009200
005400
007C00
003800
001000
001000
ENDCHAR
STARTCHAR 222e
ENCODING 8750
SWIDTH 144 0
DWIDTH 24 0
BBX 24 24 0 -2
BITMAP
000000
000000
000000
000000
7FFFFE
7FFFFE
7FFFFE
7FFFFE
7FFFFE
7FFFFE
000000
000000
000000
000000
7FFFFE
7FFFFE
7FFFFE
7FFFFE
7FFFFE
7FFFFE
000000
000000
000000
000000
ENDCHAR
STARTCHAR 223a
ENCODING 8762
SWIDTH 144 0
DWIDTH 24 0
BBX 24 24 0 -2
BITMAP
000000
000000
000000
000000
000000
007FE0
01C000
030000
020000
060000
040000
07FFE0
040000
060000
020000
030000
01C000
007FE0
000000
000000
000000
000000
000000
000000
ENDCHAR
STARTCHAR 223b
ENCODING 8763
SWIDTH 144 0
DWIDTH 24 0
BBX 24 24 0 -2
BITMAP
000000
000000
000000
000000
000000
07FE00
000380
0000C0
000040
000060
000020
07FFE0
000020
000060
000040
0000C0
000380
07FE00
000000
000000
000000
000000
000000
000000
ENDCHAR
STARTCHAR 223c
ENCODING 8764
SWIDTH 144 0
DWIDTH 24 0
BBX 24 24 0 -2
BITMAP
000000
000000
000000
000000
01FFF8
070000
0C0000
080000
180000
100000
100000
180000
080000
0C0000
070000
01FFF8
000000
000000
000000
1FFFF8
000000
000000
000000
000000
ENDCHAR
STARTCHAR 223d
ENCODING 8765
SWIDTH 144 0
DWIDTH 24 0
BBX 24 24 0 -2
BITMAP
000000
000000
000000
000000
1FFF80
0000E0
000030
000010
000018
000008
000008
000018
000010
000030
0000E0
1FFF80
000000
000000
000000
1FFFF8
000000
000000
000000
000000
ENDCHAR
STARTCHAR 223e
ENCODING 8766
SWIDTH 144 0
DWIDTH 24 0
BBX 24 24 0 -2
BITMAP
000000
000000
000000
000000
000000
00FFF8
038000
060000
0C0000
080000
180000
100000
100000
180000
080000
0C0000
060000
038000
00FFF8
000000
000000
000000
000000
000000
ENDCHAR
STARTCHAR 223f
ENCODING 8767
SWIDTH 144 0
DWIDTH 24 0
BBX 24 24 0 -2
BITMAP
000000
000000
000000
000000
000000
1FFF00
0001C0
000060
000030
000010
000018
000008
000008
000018
000010
000030
000060
0001C0
1FFF00
000000
000000
000000
000000
000000
ENDCHAR
STARTCHAR 2240
ENCODING 8768
SWIDTH 144 0
DWIDTH 24 0
BBX 24 24 0 -2
BITMAP
000000
000000
000000
040020
040020
040020
040020
040020
040020
040020
040020
040020
040020
040020
040020
060060
020040
0300C0
018180
00E700
003C00
000000
000000
000000
ENDCHAR
STARTCHAR 2241
ENCODING 8769
SWIDTH 144 0
DWIDTH 24 0
BBX 24 24 0 -2
BITMAP
000000
000000
000000
003C00
00E700
018180
0300C0
020040
060060
040020
040020
040020
040020
040020
040020
040020
040020
040020
040020
040020
040020
000000
000000
000000
ENDCHAR
STARTCHAR 224a
ENCODING 8778
SWIDTH 144 0
DWIDTH 24 0
BBX 24 24 0 -2
BITMAP
000000
000000
000000
001000
001000
002800
002800
004400
004400
008200
008200
010100
010100
020080
020080
040040
040040
080020
080020
100010
100010
000000
000000
000000
ENDCHAR
STARTCHAR 224b
ENCODING 8779
SWIDTH 144 0
DWIDTH 24 0
BBX 24 24 0 -2
BITMAP
000000
000000
000000
100010
100010
080020
080020
040040
040040
020080
020080
010100
010100
008200
008200
004400
004400
002800
002800
001000
001000
000000
000000
000000
ENDCHAR
STARTCHAR 224c
ENCODING 8780
SWIDTH 144 0
DWIDTH 24 0
BBX 24 24 0 -2
BITMAP
000000
000000
000000
000000
000000
000000
000000
000000
000000
000000
1FFFF8
000008
000008
000008
000008
000008
000008
000000
000000
000000
000000
000000
000000
000000
ENDCHAR
STARTCHAR 224d
ENCODING 8781
SWIDTH 144 0
DWIDTH 24 0
BBX 24 24 0 -2
BITMAP
000000
000000
000000
000000
000080
000040
000020
000010
FFFFF8
000004
000002
000001
000002
000004
FFFFF8
000010
000020
000040
000080
000000
000000
000000
000000
000000
ENDCHAR
STARTCHAR 224e
ENCODING 8782
SWIDTH 144 0
DWIDTH 24 0
BBX 24 24 0 -2
BITMAP
000000
000000
000000
000000
010080
020040
040020
080010
1FFFF8
200004
400002
800001
400002
200004
1FFFF8
080010
040020
020040
010080
000000
000000
000000
000000
000000
ENDCHAR
STARTCHAR 224f
ENCODING 8783
SWIDTH 144 0
DWIDTH 24 0
BBX 24 24 0 -2
BITMAP
000000
000000
200008
200008
100010
100010
080020
080020
040040
07FFC0
020080
020080
010100
010100
008200
008200
004400
004400
002800
002800
001000
001000
000000
000000
ENDCHAR
STARTCHAR 2250
ENCODING 8784
SWIDTH 144 0
DWIDTH 24 0
BBX 24 24 0 -2
BITMAP
000000
000000
000000
07FFE0
000020
000020
000020
000020
000020
000020
000020
07FFE0
000020
000020
000020
000020
000020
000020
000020
07FFE0
000000
000000
000000
000000
ENDCHAR
STARTCHAR 225c
ENCODING 8796
SWIDTH 144 0
DWIDTH 24 0
BBX 24 24 0 -2
BITMAP
000000
000000
000000
000020
000040
000080
000100
000200
000400
000800
001000
002000
004000
008000
010000
020000
040000
080000
100000
3FFFF8
000000
000000
000000
000000
ENDCHAR
STARTCHAR 225d
ENCODING 8797
SWIDTH 144 0
DWIDTH 24 0
BBX 24 24 0 -2
BITMAP
000000
000000
000000
001000
001000
001000
001000
001000
001000
001000
001000
001000
001000
001000
001000
001000
001000
001000
001000
1FFFF8
000000
000000
000000
000000
ENDCHAR
STARTCHAR 225e
ENCODING 8798
SWIDTH 144 0
DWIDTH 24 0
BBX 24 24 0 -2
BITMAP
03FFC0
3FFFFC
E00007
000000
000000
000000
000000
000000
000000
000000
000000
000000
000000
000000
000000
000000
000000
000000
000000
000000
000000
000000
000000
000000
ENDCHAR
STARTCHAR 225f
ENCODING 8799
SWIDTH 144 0
DWIDTH 24 0
BBX 24 24 0 -2
BITMAP
000000
000000
000700
001FC0
0030C0
004060
000020
000020
000020
003C60
00C240
018140
0301C0
030180
060180
060180
060300
060300
020600
030C00
00F000
000000
000000
000000
ENDCHAR
STARTCHAR 2260
ENCODING 8800
SWIDTH 144 0
DWIDTH 24 0
BBX 24 24 0 -2
BITMAP
000000
000000
1FFFF8
0FFFF0
0C0010
060020
060020
030040
030040
018080
018080
00C100
00C100
006100
006200
003200
003400
001C00
001C00
000800
000800
000000
000000
000000
ENDCHAR
STARTCHAR 2261
ENCODING 8801
SWIDTH 144 0
DWIDTH 24 0
BBX 24 24 0 -2
BITMAP
000000
000000
000000
000000
000000
000000
1FFFF8
000000
000000
000000
000000
1FFFF8
000000
000000
000000
000000
1FFFF8
000000
000000
000000
000000
000000
000000
000000
ENDCHAR
STARTCHAR 2262
ENCODING 8802
SWIDTH 144 0
DWIDTH 24 0
BBX 24 24 0 -2
BITMAP
000000
000000
000000
000000
070000
070000
070000
000000
000000
1FFFF8
000000
000000
000000
000000
1FFFF8
000000
000000
0000E0
0000E0
0000E0
000000
000000
000000
000000
ENDCHAR
STARTCHAR 2263
ENCODING 8803
SWIDTH 144 0
DWIDTH 24 0
BBX 24 24 0 -2
BITMAP
000000
000000
000104
000618
000820
0030C0
004100
018600
020800
0C3000
104000
208000
104000
0C3000
020800
010400
00C300
002080
001040
000C30
000208
000104
000000
000000
ENDCHAR
STARTCHAR 2264
ENCODING 8804
SWIDTH 144 0
DWIDTH 24 0
BBX 24 24 0 -2
BITMAP
000000
000000
208000
186000
041000
030C00
008200
006180
001040
000C30
000208
000104
000208
000C30
001040
002080
00C300
010400
020800
0C3000
104000
208000
000000
000000
ENDCHAR
STARTCHAR 2265
ENCODING 8805
SWIDTH 144 0
DWIDTH 24 0
BBX 24 24 0 -2
BITMAP
0007FF
000400
000800
000800
000800
001000
001000
001000
002000
002000
002000
004000
004000
004000
108000
308000
788000
990000
1D0000
0D0000
0E0000
0E0000
040000
040000
ENDCHAR
STARTCHAR 2266
ENCODING 8806
SWIDTH 144 0
DWIDTH 24 0
BBX 24 24 0 -2
BITMAP
000000
000000
000000
000000
000000
000000
0780E0
1CC3B8
30060C
200C04
600806
401802
401002
603006
202004
30600C
1DC338
0701E0
000000
000000
000000
000000
000000
000000
ENDCHAR
STARTCHAR 2267
ENCODING 8807
SWIDTH 144 0
DWIDTH 24 0
BBX 24 24 0 -2
BITMAP
000000
000000
000000
000000
000000
000000
0700F0
1DC39C
306604
202400
603C00
401800
401800
603C00
202400
306604
1DC39C
0700F0
000000
000000
000000
000000
000000
000000
ENDCHAR
STARTCHAR 2268
ENCODING 8808
SWIDTH 144 0
DWIDTH 24 0
BBX 24 24 0 -2
BITMAP
000000
000000
000000
000000
1C0070
1C0070
1C0070
000000
000000
000000
000000
000000
000000
000000
000000
000000
000000
003800
003800
003800
000000
000000
000000
000000
ENDCHAR
STARTCHAR 2269
ENCODING 8809
SWIDTH 144 0
DWIDTH 24 0
BBX 24 24 0 -2
BITMAP
000C00
001E00
002600
002000
002000
002000
003000
003000
003000
003800
001800
001800
001800
001800
001C00
000C00
000C00
000C00
000400
000400
000400
006400
007800
003000
ENDCHAR
STARTCHAR 226a
ENCODING 8810
SWIDTH 144 0
DWIDTH 24 0
BBX 24 24 0 -2
BITMAP
00C0C0
01E1E0
026260
020200
020200
020200
030300
030300
030300
038380
018180
018180
018180
018180
01C1C0
00C0C0
00C0C0
00C0C0
004040
004040
004040
064640
078780
030300
ENDCHAR
STARTCHAR 2272
ENCODING 8818
SWIDTH 144 0
DWIDTH 24 0
BBX 24 24 0 -2
BITMAP
001800
002400
004200
004200
002400
001800
000000
001800
001800
003C00
002C00
004600
004600
008300
008300
010180
01FF80
0200C0
0200C0
040060
0C0070
3F01FC
000000
000000
ENDCHAR
STARTCHAR 2273
ENCODING 8819
SWIDTH 144 0
DWIDTH 24 0
BBX 24 24 0 -2
BITMAP
000000
1C0200
220200
220400
630800
630800
631000
632000
222000
224000
1C8000
008000
010000
023838
024444
044444
08C6C6
08C6C6
10C6C6
10C6C6
204444
404444
403838
000000
ENDCHAR
STARTCHAR 2274
ENCODING 8820
SWIDTH 144 0
DWIDTH 24 0
BBX 24 24 0 -2
BITMAP
000100
008100
008100
008100
008100
0081F8
00FFF8
1FFF00
1F8100
008100
008100
008100
008100
008100
0081F8
00FFF8
1FFF00
1F8100
008100
008100
008100
008100
008100
008000
ENDCHAR
STARTCHAR 2275
ENCODING 8821
SWIDTH 144 0
DWIDTH 24 0
BBX 24 24 0 -2
BITMAP
008000
008000
008000
008000
008000
008000
008000
008000
008000
008F00
009180
00A0C0
00C0C0
0080C0
0080C0
008180
008180
008300
008600
008C00
009800
00A000
00C000
008000
ENDCHAR
STARTCHAR 2276
ENCODING 8822
SWIDTH 144 0
DWIDTH 24 0
BBX 24 24 0 -2
BITMAP
000800
000800
000C00
000E00
000F00
000B80
0008C0
000860
000820
000810
000810
000810
000820
000820
000840
000880
000800
000800
00F800
03F800
07F000
07F000
07E000
038000
ENDCHAR
STARTCHAR 2277
ENCODING 8823
SWIDTH 144 0
DWIDTH 24 0
BBX 24 24 0 -2
BITMAP
001000
003800
003800
003800
001000
019300
03FF80
019300
001000
001000
007C00
003800
003800
003800
003800
003800
003800
003800
003800
001000
001000
001000
001000
001000
ENDCHAR
STARTCHAR 2278
ENCODING 8824
SWIDTH 144 0
DWIDTH 24 0
BBX 24 24 0 -2
BITMAP
001000
003800
003800
001000
019300
03FF80
019300
001000
007C00
003800
003800
001000
001000
003800
003800
007C00
001000
019300
03FF80
019300
001000
003800
003800
001000
ENDCHAR
STARTCHAR 2279
ENCODING 8825
SWIDTH 144 0
DWIDTH 24 0
BBX 24 24 0 -2
BITMAP
000000
00FF80
03F180
03F180
07F180
07F180
07F180
07F180
03F180
03F180
00F180
003180
003180
003180
003180
003180
003180
003180
003180
003180
003180
003180
003180
003180
ENDCHAR
STARTCHAR 227e
ENCODING 8830
SWIDTH 144 0
DWIDTH 24 0
BBX 24 24 0 -2
BITMAP
007E00
018180
060060
080010
100008
200004
200004
400002
400002
800001
800001
800001
800001
800001
800001
400002
400002
200004
200004
100008
080010
060060
018180
007E00
ENDCHAR
STARTCHAR 2330
ENCODING 9008
SWIDTH 144 0
DWIDTH 24 0
BBX 24 24 0 -2
BITMAP
000000
000000
003C00
00C300
018180
0300C0
0300C0
060060
060060
060060
060060
060060
060060
060060
060060
060060
060060
0300C0
0300C0
018180
00C300
003C00
000000
000000
ENDCHAR
STARTCHAR 2331
ENCODING 9009
SWIDTH 144 0
DWIDTH 24 0
BBX 24 24 0 -2
BITMAP
000000
000000
001800
007800
01F800
001800
001800
001800
001800
001800
001800
001800
001800
001800
001800
001800
001800
001800
001800
001800
001800
01FF80
000000
000000
ENDCHAR
STARTCHAR 2332
ENCODING 9010
SWIDTH 144 0
DWIDTH 24 0
BBX 24 24 0 -2
BITMAP
000000
000000
003E00
00C180
0180C0
030060
020060
040060
000060
0000C0
0000C0
000180
000300
000600
000C00
001000
002000
004020
008020
010060
03FFE0
07FFE0
000000
000000
ENDCHAR
STARTCHAR 2333
ENCODING 9011
SWIDTH 144 0
DWIDTH 24 0
BBX 24 24 0 -2
BITMAP
000000
000000
007E00
01C780
030180
0401C0
0000C0
0000C0
000080
000100
007E00
00FF80
0003C0
0000E0
000060
000060
000060
0000E0
0000C0
000380
000E00
07F000
000000
000000
ENDCHAR
STARTCHAR 2334
ENCODING 9012
SWIDTH 144 0
DWIDTH 24 0
BBX 24 24 0 -2
BITMAP
000000
000000
000300
000700
000B00
000B00
001300
002300
004300
004300
008300
010300
020300
020300
040300
080300
1FFFE0
000300
000300
000300
000300
001FE0
000000
000000
ENDCHAR
STARTCHAR 2335
ENCODING 9013
SWIDTH 144 0
DWIDTH 24 0
BBX 24 24 0 -2
BITMAP
000000
000000
03FFE0
03FFC0
020000
020000
020000
020000
020000
023E00
02FF80
0381C0
0200C0
000060
000060
000060
000040
0000C0
000180
000300
001C00
03E000
000000
000000
ENDCHAR
STARTCHAR 2336
ENCODING 9014
SWIDTH 144 0
DWIDTH 24 0
BBX 24 24 0 -2
BITMAP
000000
000000
000F00
003000
004000
008000
018000
030000
030000
060000
067E00
078180
0600C0
0600C0
060060
060060
060060
0300C0
0300C0
018180
00C300
003C00
000000
000000
ENDCHAR
STARTCHAR 2337
ENCODING 9015
SWIDTH 144 0
DWIDTH 24 0
BBX 24 24 0 -2
BITMAP
000000
000000
07FFE0
07FFE0
060020
040040
040080
000100
000100
000200
000600
000400
000C00
000C00
000800
001800
001800
001800
003000
003000
003000
003000
000000
000000
ENDCHAR
STARTCHAR 2338
ENCODING 9016
SWIDTH 144 0
DWIDTH 24 0
BBX 24 24 0 -2
BITMAP
000000
000000
007E00
018180
0300C0
060060
060060
060060
070060
03C0C0
01F900
007E00
008F80
0303C0
0600E0
0C0070
0C0030
0C0030
0C0030
060060
0300C0
00FF00
000000
000000
ENDCHAR
STARTCHAR 2339
ENCODING 9017
SWIDTH 144 0
DWIDTH 24 0
BBX 24 24 0 -2
BITMAP
000000
000000
003C00
00C300
018180
0300C0
0300C0
060060
060060
060060
030060
030060
018060
00C1E0
003E60
0000C0
0000C0
000180
000300
000600
003800
03C000
000000
000000
ENDCHAR
STARTCHAR 2341
ENCODING 9025
SWIDTH 144 0
DWIDTH 24 0
BBX 24 24 0 -2
BITMAP
000000
000000
001000
001800
003800
002C00
002C00
004600
004600
004600
008300
008300
010180
010180
01FF80
0200C0
0200C0
040060
040060
0C0070
3F01FC
000000
000000
000000
ENDCHAR
STARTCHAR 2342
ENCODING 9026
SWIDTH 144 0
DWIDTH 24 0
BBX 24 24 0 -2
BITMAP
000000
000000
0FFE00
030180
0300C0
030060
030060
030060
030060
0300C0
030080
03FF00
0300C0
030060
030030
030030
030030
030030
030060
0300C0
0FFF00
000000
000000
000000
ENDCHAR
STARTCHAR 2343
ENCODING 9027
SWIDTH 144 0
DWIDTH 24 0
BBX 24 24 0 -2
BITMAP
000000
000000
003C00
00C320
0300E0
060060
0C0020
0C0020
180000
180000
180000
180000
180000
180000
180000
0C0000
0C0010
060020
030040
00C180
003E00
000000
000000
000000
ENDCHAR
STARTCHAR 2344
ENCODING 9028
SWIDTH 144 0
DWIDTH 24 0
BBX 24 24 0 -2
BITMAP
000000
000000
1FF800
060600
060180
0600C0
060060
060060
060030
060030
060030
060030
060030
060030
060030
060060
060060
0600C0
060180
060600
1FF800
000000
000000
000000
ENDCHAR
STARTCHAR 2345
ENCODING 9029
SWIDTH 144 0
DWIDTH 24 0
BBX 24 24 0 -2
BITMAP
000000
000000
1FFFC0
0600C0
060040
060020
060020
060000
060200
060200
060600
07FE00
060600
060200
060200
060000
060010
060010
060020
060060
1FFFE0
000000
000000
000000
ENDCHAR
STARTCHAR 2346
ENCODING 9030
SWIDTH 144 0
DWIDTH 24 0
BBX 24 24 0 -2
BITMAP
000000
000000
0FFFE0
030060
030020
030010
030010
030000
030100
030100
030300
03FF00
030300
030100
030100
030000
030000
030000
030000
030000
0FC000
000000
000000
000000
ENDCHAR
STARTCHAR 2347
ENCODING 9031
SWIDTH 144 0
DWIDTH 24 0
BBX 24 24 0 -2
BITMAP
000000
000000
003C00
00C320
0300E0
060060
0C0020
0C0020
180000
180000
180000
180000
1803FC
180060
180060
0C0060
0C0060
060060
0300E0
00C320
003C20
000000
000000
000000
ENDCHAR
STARTCHAR 2348
ENCODING 9032
SWIDTH 144 0
DWIDTH 24 0
BBX 24 24 0 -2
BITMAP
000000
000000
1F81F8
060060
060060
060060
060060
060060
060060
060060
060060
07FFE0
060060
060060
060060
060060
060060
060060
060060
060060
1F81F8
000000
000000
000000
ENDCHAR
STARTCHAR 2349
ENCODING 9033
SWIDTH 144 0
DWIDTH 24 0
BBX 24 24 0 -2
BITMAP
000000
000000
00FF00
001800
001800
001800
001800
001800
001800
001800
001800
001800
001800
001800
001800
001800
001800
001800
001800
001800
00FF00
000000
000000
000000
ENDCHAR
STARTCHAR 234a
ENCODING 9034
SWIDTH 144 0
DWIDTH 24 0
BBX 24 24 0 -2
BITMAP
000000
000000
001FE0
000300
000300
000300
000300
000300
000300
000300
000300
000300
000300
000300
000300
030300
070300
060600
060600
030C00
00F000
000000
000000
000000
ENDCHAR
STARTCHAR 234b
ENCODING 9035
SWIDTH 144 0
DWIDTH 24 0
BBX 24 24 0 -2
BITMAP
000000
000000
1F87E0
060180
060100
060200
060400
060800
061000
062000
066000
06F000
073800
061C00
060C00
060600
060700
060380
0601C0
0600E0
1F83F8
000000
000000
000000
ENDCHAR
STARTCHAR 234c
ENCODING 9036
SWIDTH 144 0
DWIDTH 24 0
BBX 24 24 0 -2
BITMAP
000000
000000
0FC000
030000
030000
030000
030000
030000
030000
030000
030000
030000
030000
030000
030000
030000
030008
030008
030010
030030
0FFFF0
000000
000000
000000
ENDCHAR
STARTCHAR 234d
ENCODING 9037
SWIDTH 144 0
DWIDTH 24 0
BBX 24 24 0 -2
BITMAP
000000
000000
3F00FC
0B00B0
0B00B0
098130
098130
098130
098130
08C230
08C230
08C230
08C430
086430
086430
086830
082830
083830
083830
081030
3E10FC
000000
000000
000000
ENDCHAR
STARTCHAR 234e
ENCODING 9038
SWIDTH 144 0
DWIDTH 24 0
BBX 24 24 0 -2
BITMAP
000000
000000
1F00F8
070020
058020
05C020
04C020
046020
047020
043020
041820
041C20
040C20
040620
040720
0403A0
0401A0
0400E0
0400E0
040060
1F0020
000000
000000
000000
ENDCHAR
STARTCHAR 234f
ENCODING 9039
SWIDTH 144 0
DWIDTH 24 0
BBX 24 24 0 -2
BITMAP
000000
000000
007E00
018180
0300C0
060060
0C0030
0C0030
180018
180018
180018
180018
180018
180018
180018
0C0030
0C0030
060060
0300C0
018180
007E00
000000
000000
000000
ENDCHAR
STARTCHAR 2350
ENCODING 9040
SWIDTH 144 0
DWIDTH 24 0
BBX 24 24 0 -2
BITMAP
000000
000000
0FFF00
0300C0
030060
030030
030030
030030
030030
030030
030060
0300C0
03FF00
030000
030000
030000
030000
030000
030000
030000
0FC000
000000
000000
000000
ENDCHAR
STARTCHAR 2351
ENCODING 9041
SWIDTH 144 0
DWIDTH 24 0
BBX 24 24 0 -2
BITMAP
000000
000000
007E00
018180
0300C0
060060
0C0030
0C0030
180018
180018
180018
180018
180018
180018
180018
0C0030
0C7830
068420
030240
00C280
003F04
000184
0000F8
000070
ENDCHAR
STARTCHAR 2352
ENCODING 9042
SWIDTH 144 0
DWIDTH 24 0
BBX 24 24 0 -2
BITMAP
000000
000000
1FFE00
060180
0600C0
060060
060060
060060
060060
0600C0
060300
07FC00
060200
060100
060180
060180
060180
060180
060184
0601C8
1F80F0
000000
000000
000000
ENDCHAR
STARTCHAR 2353
ENCODING 9043
SWIDTH 144 0
DWIDTH 24 0
BBX 24 24 0 -2
BITMAP
000000
000000
007C20
0183E0
0300E0
060060
060020
060020
070000
03C000
00F800
003F00
0007C0
0000E0
000070
040030
040030
060030
070060
07C0C0
043F00
000000
000000
000000
ENDCHAR
STARTCHAR 2354
ENCODING 9044
SWIDTH 144 0
DWIDTH 24 0
BBX 24 24 0 -2
BITMAP
000000
000000
1FFFF8
181818
101808
201804
201804
001800
001800
001800
001800
001800
001800
001800
001800
001800
001800
001800
001800
001800
007E00
000000
000000
000000
ENDCHAR
STARTCHAR 2355
ENCODING 9045
SWIDTH 144 0
DWIDTH 24 0
BBX 24 24 0 -2
BITMAP
000000
000000
1F80F8
060020
060020
060020
060020
060020
060020
060020
060020
060020
060020
060020
060020
060020
060020
030040
030040
01C180
007E00
000000
000000
000000
ENDCHAR
STARTCHAR 2356
ENCODING 9046
SWIDTH 144 0
DWIDTH 24 0
BBX 24 24 0 -2
BITMAP
000000
000000
3F80FC
0E0030
060020
060020
030040
030040
030040
018080
018080
00C100
00C100
00C100
006200
006200
003400
003400
001C00
001800
000800
000000
000000
000000
ENDCHAR
STARTCHAR 2357
ENCODING 9047
SWIDTH 144 0
DWIDTH 24 0
BBX 24 24 0 -2
BITMAP
000000
000000
FE7F3F
381C0C
181C08
181C08
182608
0C2610
0C2610
0C2610
0C4610
0C4320
064320
064320
064320
068340
028140
028140
0381C0
010080
010080
000000
000000
000000
ENDCHAR
STARTCHAR 2358
ENCODING 9048
SWIDTH 144 0
DWIDTH 24 0
BBX 24 24 0 -2
BITMAP
000000
000000
1F80F8
070060
030040
018080
01C100
00C100
006200
007400
003800
001800
001C00
002E00
004700
004300
008180
0101C0
0200E0
060070
1F00FC
000000
000000
000000
ENDCHAR
STARTCHAR 2359
ENCODING 9049
SWIDTH 144 0
DWIDTH 24 0
BBX 24 24 0 -2
BITMAP
000000
000000
3F80FC
0E0030
060020
030040
038080
018080
00C100
00E200
006200
003400
003800
001800
001800
001800
001800
001800
001800
001800
007E00
000000
000000
000000
ENDCHAR
STARTCHAR 235a
ENCODING 9050
SWIDTH 144 0
DWIDTH 24 0
BBX 24 24 0 -2
BITMAP
000000
000000
07FFF0
0600E0
0401C0
080180
080380
000700
000600
000C00
001C00
003800
003000
006000
00E000
01C000
018010
030010
070020
0E0060
1FFFE0
000000
000000
000000
ENDCHAR
STARTCHAR 2361
ENCODING 9057
SWIDTH 144 0
DWIDTH 24 0
BBX 24 24 0 -2
BITMAP
000000
000000
000000
000000
000000
000000
000000
000000
00FC00
038300
030180
000180
000180
001F80
00E180
030180
060180
060180
060190
030790
00F8E0
000000
000000
000000
ENDCHAR
STARTCHAR 2362
ENCODING 9058
SWIDTH 144 0
DWIDTH 24 0
BBX 24 24 0 -2
BITMAP
000000
000000
030000
0F0000
030000
030000
030000
030000
031E00
036180
0380C0
0300C0
030060
030060
030060
030060
030060
0300C0
0300C0
03C180
023E00
000000
000000
000000
ENDCHAR
STARTCHAR 2363
ENCODING 9059
SWIDTH 144 0
DWIDTH 24 0
BBX 24 24 0 -2
BITMAP
000000
000000
000000
000000
000000
000000
000000
000000
003E00
00C180
0180C0
0300C0
030000
060000
060000
060000
030000
030000
018040
00C180
003E00
000000
000000
000000
ENDCHAR
STARTCHAR 2364
ENCODING 9060
SWIDTH 144 0
DWIDTH 24 0
BBX 24 24 0 -2
BITMAP
000000
000000
0000C0
0003C0
0000C0
0000C0
0000C0
0000C0
0078C0
0186C0
0301C0
0300C0
0600C0
0600C0
0600C0
0600C0
0600C0
0300C0
0300C0
0183C0
007CF0
000000
000000
000000
ENDCHAR
STARTCHAR 2365
ENCODING 9061
SWIDTH 144 0
DWIDTH 24 0
BBX 24 24 0 -2
BITMAP
000000
000000
000000
000000
000000
000000
000000
000000
003C00
00C300
018180
030180
0300C0
07FFC0
060000
060000
030000
030000
018040
00C180
003E00
000000
000000
000000
ENDCHAR
STARTCHAR 2366
ENCODING 9062
SWIDTH 144 0
DWIDTH 24 0
BBX 24 24 0 -2
BITMAP
000000
000000
000380
000CC0
0018C0
001800
003000
003000
03FF00
003000
003000
003000
003000
003000
003000
003000
003000
003000
003000
003000
01FE00
000000
000000
000000
ENDCHAR
STARTCHAR 2367
ENCODING 9063
SWIDTH 144 0
DWIDTH 24 0
BBX 24 24 0 -2
BITMAP
000000
000000
000000
000000
000000
000000
000000
000060
007CF0
018330
030180
030180
030180
018300
007C00
008000
018000
00FF00
013FC0
0200E0
060060
060060
0300C0
00FF00
ENDCHAR
STARTCHAR 2368
ENCODING 9064
SWIDTH 144 0
DWIDTH 24 0
BBX 24 24 0 -2
BITMAP
000000
000000
030000
0F0000
030000
030000
030000
030000
031E00
036180
0380C0
0300C0
0300C0
0300C0
0300C0
0300C0
0300C0
0300C0
0300C0
0300C0
0FC3F0
000000
000000
000000
ENDCHAR
STARTCHAR 2369
ENCODING 9065
SWIDTH 144 0
DWIDTH 24 0
BBX 24 24 0 -2
BITMAP
000000
000000
003800
003800
003800
000000
000000
000000
00F800
001800
001800
001800
001800
001800
001800
001800
001800
001800
001800
001800
00FF00
000000
000000
000000
ENDCHAR
STARTCHAR 236a
ENCODING 9066
SWIDTH 144 0
DWIDTH 24 0
BBX 24 24 0 -2
BITMAP
000000
000000
000E00
000E00
000E00
000000
000000
000000
001E00
000600
000600
000600
000600
000600
000600
000600
000600
000600
000600
000600
000C00
060C00
061800
03E000
ENDCHAR
STARTCHAR 236b
ENCODING 9067
SWIDTH 144 0
DWIDTH 24 0
BBX 24 24 0 -2
BITMAP
000000
000000
030000
0F0000
030000
030000
030000
030000
0307E0
030100
030200
030400
030800
033000
037800
039C00
030E00
030700
030380
0301C0
0FC7F0
000000
000000
000000
ENDCHAR
STARTCHAR 236c
ENCODING 9068
SWIDTH 144 0
DWIDTH 24 0
BBX 24 24 0 -2
BITMAP
000000
000000
001800
007800
001800
001800
001800
001800
001800
001800
001800
001800
001800
001800
001800
001800
001800
001800
001800
001800
007E00
000000
000000
000000
ENDCHAR
STARTCHAR 236d
ENCODING 9069
SWIDTH 144 0
DWIDTH 24 0
BBX 24 24 0 -2
BITMAP
000000
000000
000000
000000
000000
000000
000000
000000
0CE1C0
3F1620
0C1830
0C1830
0C1830
0C1830
0C1830
0C1830
0C1830
0C1830
0C1830
0C1830
3E3C7C
000000
000000
000000
ENDCHAR
STARTCHAR 236e
ENCODING 9070
SWIDTH 144 0
DWIDTH 24 0
BBX 24 24 0 -2
BITMAP
000000
000000
000000
000000
000000
000000
000000
000000
019E00
07E180
0180C0
0180C0
0180C0
0180C0
0180C0
0180C0
0180C0
0180C0
0180C0
0180C0
07E3F0
000000
000000
000000
ENDCHAR
STARTCHAR 236f
ENCODING 9071
SWIDTH 144 0
DWIDTH 24 0
BBX 24 24 0 -2
BITMAP
000000
000000
000000
000000
000000
000000
000000
000000
003C00
00C300
018180
0300C0
0300C0
060060
060060
060060
0300C0
0300C0
018180
00C300
003C00
000000
000000
000000
ENDCHAR
STARTCHAR 2370
ENCODING 9072
SWIDTH 144 0
DWIDTH 24 0
BBX 24 24 0 -2
BITMAP
000000
000000
000000
000000
000000
000000
000000
000000
031E00
0F6180
0380C0
0300C0
030060
030060
030060
0300C0
0300C0
03C180
033E00
030000
030000
030000
030000
0FC000
ENDCHAR
STARTCHAR 2371
ENCODING 9073
SWIDTH 144 0
DWIDTH 24 0
BBX 24 24 0 -2
BITMAP
000000
000000
000000
000000
000000
000000
000000
000000
007C40
0183C0
0300C0
0300C0
0600C0
0600C0
0600C0
0300C0
0300C0
0183C0
007CC0
0000C0
0000C0
0000C0
0000C0
0003F0
ENDCHAR
STARTCHAR 2372
ENCODING 9074
SWIDTH 144 0
DWIDTH 24 0
BBX 24 24 0 -2
BITMAP
000000
000000
000000
000000
000000
000000
000000
000000
00C1C0
03C7E0
00CC60
00D000
00E000
00C000
00C000
00C000
00C000
00C000
00C000
00C000
03F000
000000
000000
000000
ENDCHAR
STARTCHAR 2373
ENCODING 9075
SWIDTH 144 0
DWIDTH 24 0
BBX 24 24 0 -2
BITMAP
000000
000000
000000
000000
000000
000000
000000
000000
007C80
018380
030180
030080
038000
01F800
007F00
000780
0001C0
0200C0
0300C0
038180
027E00
000000
000000
000000
ENDCHAR
STARTCHAR 2374
ENCODING 9076
SWIDTH 144 0
DWIDTH 24 0
BBX 24 24 0 -2
BITMAP
000000
000000
006000
006000
006000
006000
006000
006000
07FF00
006000
006000
006000
006000
006000
006000
006000
006000
006040
006040
003080
000F00
000000
000000
000000
ENDCHAR
STARTCHAR 2375
ENCODING 9077
SWIDTH 144 0
DWIDTH 24 0
BBX 24 24 0 -2
BITMAP
000000
000000
000000
000000
000000
000000
000000
000000
030180
0F0780
030180
030180
030180
030180
030180
030180
030180
030180
030180
018780
0079E0
000000
000000
000000
ENDCHAR
STARTCHAR 2376
ENCODING 9078
SWIDTH 144 0
DWIDTH 24 0
BBX 24 24 0 -2
BITMAP
000000
000000
000000
000000
000000
000000
000000
000000
0FC1F0
030040
018040
018080
00C080
00C100
006100
006200
003200
003400
001C00
001800
000800
000000
000000
000000
ENDCHAR
STARTCHAR 2377
ENCODING 9079
SWIDTH 144 0
DWIDTH 24 0
BBX 24 24 0 -2
BITMAP
000000
000000
000000
000000
000000
000000
000000
000000
7E7E7E
181818
181810
0C2C10
0C2C10
0C2620
064620
064320
064340
028140
0381C0
010080
010080
000000
000000
000000
ENDCHAR
STARTCHAR 2378
ENCODING 9080
SWIDTH 144 0
DWIDTH 24 0
BBX 24 24 0 -2
BITMAP
000000
000000
000000
000000
000000
000000
000000
000000
0FE3F0
038080
01C100
00E200
007400
003800
001C00
002E00
004700
008380
0101C0
0200E0
0F83F8
000000
000000
000000
ENDCHAR
STARTCHAR 2379
ENCODING 9081
SWIDTH 144 0
DWIDTH 24 0
BBX 24 24 0 -2
BITMAP
000000
000000
000000
000000
000000
000000
000000
000000
07E1F0
018040
018080
00C080
00C100
006100
006200
003200
003400
001C00
000800
001000
001000
0C2000
0C4000
078000
ENDCHAR
STARTCHAR 237a
ENCODING 9082
SWIDTH 144 0
DWIDTH 24 0
BBX 24 24 0 -2
BITMAP
000000
000000
000000
000000
000000
000000
000000
000000
03FFC0
030380
020700
040600
000E00
001C00
003800
007000
006000
00E020
01C040
0380C0
07FFC0
000000
000000
000000
ENDCHAR
STARTCHAR 2421
ENCODING 9249
SWIDTH 144 0
DWIDTH 24 0
BBX 24 24 0 -2
BITMAP
000000
000000
000000
000000
000000
004000
003000
003000
002700
07FE00
004000
004400
004400
007F00
01C4C0
034860
064830
045030
086030
08E030
09A060
0E20C0
000700
000000
ENDCHAR
STARTCHAR 2422
ENCODING 9250
SWIDTH 144 0
DWIDTH 24 0
BBX 24 24 0 -2
BITMAP
00C000
007000
006000
006300
107F80
0FFC00
00C000
00C400
008600
008600
00BF80
01CC60
028830
049818
089018
10A00C
10C00C
20C00C
20C00C
214018
266018
3C6030
300060
000380
ENDCHAR
STARTCHAR 2423
ENCODING 9251
SWIDTH 144 0
DWIDTH 24 0
BBX 24 24 0 -2
BITMAP
000000
000000
000000
000000
000000
000000
000000
000000
000000
080000
040300
0400C0
040040
040060
040020
042030
044030
064030
0280F0
038030
038000
018000
000000
000000
ENDCHAR
STARTCHAR 2424
ENCODING 9252
SWIDTH 144 0
DWIDTH 24 0
BBX 24 24 0 -2
BITMAP
000000
000000
000000
200000
100000
1000C0
180020
180010
180018
180008
18000C
18000C
184004
184006
18C006
0C801E
0D800E
0F0006
070000
070000
030000
000000
000000
000000
ENDCHAR
STARTCHAR 2425
ENCODING 9253
SWIDTH 144 0
DWIDTH 24 0
BBX 24 24 0 -2
BITMAP
000000
000000
000000
000000
000000
002000
001800
000E00
000600
000000
000000
010E00
00F300
00C180
000180
000180
000180
000180
000300
000300
000600
000C00
003000
000000
ENDCHAR
STARTCHAR 2426
ENCODING 9254
SWIDTH 144 0
DWIDTH 24 0
BBX 24 24 0 -2
BITMAP
006000
001C00
000700
000300
000000
000000
000000
001E00
047100
03C080
0300C0
0000C0
0000C0
0000C0
0000C0
0000C0
0000C0
000180
000180
000300
000600
001800
00E000
000000
ENDCHAR
STARTCHAR 2427
ENCODING 9255
SWIDTH 144 0
DWIDTH 24 0
BBX 24 24 0 -2
BITMAP
000000
000000
000000
000000
000000
001000
000C00
000700
000300
000000
000200
008F00
007300
004600
000C00
001800
003000
006000
00D000
018800
038C00
0307F0
0003E0
000000
ENDCHAR
STARTCHAR 2428
ENCODING 9256
SWIDTH 144 0
DWIDTH 24 0
BBX 24 24 0 -2
BITMAP
002000
001800
000E00
000600
000000
000000
000200
021F00
01F300
018600
000C00
001800
003000
002000
004000
00C000
018000
036000
061000
0E1000
1C1800
180FF8
0003F8
000000
ENDCHAR
STARTCHAR 2429
ENCODING 9257
SWIDTH 144 0
DWIDTH 24 0
BBX 24 24 0 -2
BITMAP
000000
000000
000000
000000
000000
000000
010000
00C000
00C000
0081C0
009830
04F830
038040
008000
008F00
00B0C0
00C060
018060
038060
168060
0C80C0
058F00
008000
000000
ENDCHAR
STARTCHAR 242a
ENCODING 9258
SWIDTH 144 0
DWIDTH 24 0
BBX 24 24 0 -2
BITMAP
000000
030000
01C000
018000
018060
018018
01980C
31F80C
1FC030
010000
010000
0103C0
011C70
016018
01800C
03000C
07000C
4D000C
790018
390038
1788F0
0387C0
010000
000000
ENDCHAR
STARTCHAR 242b
ENCODING 9259
SWIDTH 144 0
DWIDTH 24 0
BBX 24 24 0 -2
BITMAP
000000
018000
00C000
00E000
00C000
008000
008060
01F818
47860C
790206
330206
030207
020207
06023F
060606
0C0600
0C0400
180C00
180C00
311800
70F800
607000
006000
000000
ENDCHAR
STARTCHAR 242c
ENCODING 9260
SWIDTH 144 0
DWIDTH 24 0
BBX 24 24 0 -2
BITMAP
000006
018003
00C033
00E018
00C018
008000
0080C0
01F830
478618
79020C
33020C
03020E
02020E
06023E
06060C
0C0600
0C0400
180C00
180C00
311800
70F800
607000
006000
000000
ENDCHAR
STARTCHAR 242d
ENCODING 9261
SWIDTH 144 0
DWIDTH 24 0
BBX 24 24 0 -2
BITMAP
01C000
00C000
006000
006700
103E00
0FF000
071800
0008E0
000FC0
081C00
07E200
030300
000180
0000C0
00F8E0
0307E0
040060
080000
080000
0C0000
070000
03FE00
00FE00
000000
ENDCHAR
STARTCHAR 242e
ENCODING 9262
SWIDTH 144 0
DWIDTH 24 0
BBX 24 24 0 -2
BITMAP
01C006
00C003
006033
006718
103E18
0FF000
071800
0008E0
000FC0
081C00
07E200
030300
000180
0000C0
00F8E0
0307E0
040060
080000
080000
0C0000
070000
03FE00
00FE00
000000
ENDCHAR
STARTCHAR 242f
ENCODING 9263
SWIDTH 144 0
DWIDTH 24 0
BBX 24 24 0 -2
BITMAP
000080
0000C0
0001C0
000380
000700
000E00
003800
006000
018000
060000
080000
080000
040000
030000
01C000
006000
003000
001C00
000E00
000700
000380
000180
0001C0
0000C0
ENDCHAR
STARTCHAR 2430
ENCODING 9264
SWIDTH 144 0
DWIDTH 24 0
BBX 24 24 0 -2
BITMAP
000100
000180
000386
000703
000E33
001C18
003018
006000
018000
060000
080000
080000
040000
030000
01C000
006000
003000
001800
000C00
000600
000700
000300
000380
000180
ENDCHAR
STARTCHAR 2431
ENCODING 9265
SWIDTH 144 0
DWIDTH 24 0
BBX 24 24 0 -2
BITMAP
000000
180380
0C00E0
0C0060
0C0060
180060
180066
1841FF
103FE0
101860
300060
300060
320060
320060
320060
340040
3400C0
1C00C0
1800C0
180080
180180
080100
000200
000400
ENDCHAR
STARTCHAR 2432
ENCODING 9266
SWIDTH 144 0
DWIDTH 24 0
BBX 24 24 0 -2
BITMAP
000006
300003
180E33
180398
180198
300180
300180
30018C
2107FE
20FF80
606180
600180
640180
640180
640180
680100
680300
380300
300300
300200
300600
100400
000800
001000
ENDCHAR
STARTCHAR 2433
ENCODING 9267
SWIDTH 144 0
DWIDTH 24 0
BBX 24 24 0 -2
BITMAP
000000
000000
020000
01F000
007FC0
0007C0
001C00
006000
000000
000000
000000
000000
000000
000000
080000
100000
100000
100000
100000
0C0000
07FFF0
01FFF0
000000
000000
ENDCHAR
STARTCHAR 2434
ENCODING 9268
SWIDTH 144 0
DWIDTH 24 0
BBX 24 24 0 -2
BITMAP
000006
000003
020033
01F018
007F98
000780
001C00
006000
000000
000000
000000
000000
000000
000000
080000
100000
100000
100000
100000
0C0000
07FFF0
01FFF0
000000
000000
ENDCHAR
STARTCHAR 2435
ENCODING 9269
SWIDTH 144 0
DWIDTH 24 0
BBX 24 24 0 -2
BITMAP
00E000
01C000
00C180
0060E0
0031C0
101F00
0FFC00
038600
000300
000180
0000C0
0000E0
003E60
01C3F0
060070
040020
080000
080000
040000
070000
03F000
00FF80
000F80
000000
ENDCHAR
STARTCHAR 2436
ENCODING 9270
SWIDTH 144 0
DWIDTH 24 0
BBX 24 24 0 -2
BITMAP
01C006
038003
018633
00C398
006718
103C00
0FF800
038C00
000600
000300
000180
0001C0
003CC0
01C7E0
0600E0
040040
080000
080000
040000
070000
03F000
00FF80
000F80
000000
ENDCHAR
STARTCHAR 2437
ENCODING 9271
SWIDTH 144 0
DWIDTH 24 0
BBX 24 24 0 -2
BITMAP
060000
030000
038000
038000
038000
030000
030000
030000
030000
030000
030000
030000
030000
030000
020000
020000
020004
020008
020010
020060
0103C0
01FF00
007800
000000
ENDCHAR
STARTCHAR 2438
ENCODING 9272
SWIDTH 144 0
DWIDTH 24 0
BBX 24 24 0 -2
BITMAP
060000
030000
038000
038180
0380C0
030CC0
030600
030600
030000
030000
030000
030000
030000
030000
020000
020000
020004
020008
020010
020060
0103C0
01FF00
007800
000000
ENDCHAR
STARTCHAR 2439
ENCODING 9273
SWIDTH 144 0
DWIDTH 24 0
BBX 24 24 0 -2
BITMAP
001800
000E00
000700
000600
000600
001FFE
83FC1F
7F0400
300400
007C00
008C00
010600
010600
010600
010600
008600
00FE00
006400
000C00
000800
001800
001000
002000
00C000
ENDCHAR
STARTCHAR 243a
ENCODING 9274
SWIDTH 144 0
DWIDTH 24 0
BBX 24 24 0 -2
BITMAP
001806
000E03
000733
000618
000618
000600
83FFFE
7F041F
300400
007C00
008C00
010600
010600
010600
010600
008600
00FE00
006400
000C00
000800
001800
001000
002000
00C000
ENDCHAR
STARTCHAR 243b
ENCODING 9275
SWIDTH 144 0
DWIDTH 24 0
BBX 24 24 0 -2
BITMAP
000300
000180
0001C0
060180
030180
030180
030180
03018E
031FFF
0FF180
FB0180
630180
030100
030300
031300
030E00
030600
010000
010000
018000
00E000
007FF0
001FF0
000000
ENDCHAR
STARTCHAR 243c
ENCODING 9276
SWIDTH 144 0
DWIDTH 24 0
BBX 24 24 0 -2
BITMAP
000006
000603
000333
060398
030318
030300
030300
03031C
031FFE
0FF300
FB0300
630300
030200
030600
032600
031C00
030C00
010000
010000
018000
00E000
007FF0
001FF0
000000
ENDCHAR
STARTCHAR 243d
ENCODING 9277
SWIDTH 144 0
DWIDTH 24 0
BBX 24 24 0 -2
BITMAP
000000
000700
013980
01E380
008600
000C00
001800
003000
004000
0081F8
011FFC
066600
0F8800
3C1000
302000
002000
004000
004000
004000
002000
003000
001E00
000F80
000380
ENDCHAR
STARTCHAR 243e
ENCODING 9278
SWIDTH 144 0
DWIDTH 24 0
BBX 24 24 0 -2
BITMAP
000000
000700
013986
01E383
008633
000C18
001818
003000
004000
0081F8
011FFC
066600
0F8800
3C1000
302000
002000
004000
004000
004000
002000
003000
001E00
000F80
000380
ENDCHAR
STARTCHAR 243f
ENCODING 9279
SWIDTH 144 0
DWIDTH 24 0
BBX 24 24 0 -2
BITMAP
000000
018000
00C000
00C000
008C00
01BC00
41F000
7F81C0
330078
03001C
02001C
060060
040000
0C0000
0C0000
180000
181000
302000
302000
701000
601C00
000FFC
0001FC
000000
ENDCHAR
STARTCHAR 2440
ENCODING 9280
SWIDTH 144 0
DWIDTH 24 0
BBX 24 24 0 -2
BITMAP
000006
018003
00C033
00C018
008C18
01BC00
41F000
7F81C0
330078
03001C
02001C
060060
040000
0C0000
0C0000
180000
181000
302000
302000
701000
601C00
000FFC
0001FC
000000
ENDCHAR
STARTCHAR 2441
ENCODING 9281
SWIDTH 144 0
DWIDTH 24 0
BBX 24 24 0 -2
BITMAP
018000
00C000
00C000
008000
018600
21BF00
3FE000
198000
010000
010000
030000
0303C0
021C30
027018
02C00C
07000C
07000C
060018
000038
000070
0000E0
000380
001C00
000000
ENDCHAR
STARTCHAR 2442
ENCODING 9282
SWIDTH 144 0
DWIDTH 24 0
BBX 24 24 0 -2
BITMAP
018000
00C000
00C006
008003
018633
21BF18
3FE018
198000
010000
010000
030000
0303C0
021C30
027018
02C00C
07000C
07000C
060018
000038
000070
0000E0
000380
001C00
000000
ENDCHAR
STARTCHAR 2443
ENCODING 9283
SWIDTH 144 0
DWIDTH 24 0
BBX 24 24 0 -2
BITMAP
000000
000000
000000
000000
000000
000000
000000
000000
000000
000F00
0078C0
13C060
0F0030
040030
000030
000030
000060
000060
0000C0
000300
000C00
000000
000000
000000
ENDCHAR
STARTCHAR 2444
ENCODING 9284
SWIDTH 144 0
DWIDTH 24 0
BBX 24 24 0 -2
BITMAP
000000
000000
000000
000000
000000
000FC0
00F030
03C008
8F000C
7C0004
380006
000006
000006
00000E
00000C
00001C
000038
000070
0001C0
000700
003800
000000
000000
000000
ENDCHAR
STARTCHAR 2445
ENCODING 9285
SWIDTH 144 0
DWIDTH 24 0
BBX 24 24 0 -2
BITMAP
000006
000003
000033
000018
000018
000F80
00F0E0
03C030
8F0018
7C0018
38000C
00000C
00000C
00000C
000018
000038
000070
0000E0
000380
000E00
007000
000000
000000
000000
ENDCHAR
STARTCHAR 2446
ENCODING 9286
SWIDTH 144 0
DWIDTH 24 0
BBX 24 24 0 -2
BITMAP
000000
000000
0000F0
001FF8
41F380
7F0600
3C0C00
101000
002000
002000
004000
004000
008000
008000
008000
008000
00C000
004000
006000
003800
001F00
0007C0
0001C0
000000
ENDCHAR
STARTCHAR 2447
ENCODING 9287
SWIDTH 144 0
DWIDTH 24 0
BBX 24 24 0 -2
BITMAP
000000
000000
0000E0
001FF0
41F380
7F0606
3C0C03
101033
002018
002018
004000
004000
008000
008000
008000
008000
00C000
004000
006000
003800
001F00
0007C0
0001C0
000000
ENDCHAR
STARTCHAR 2448
ENCODING 9288
SWIDTH 144 0
DWIDTH 24 0
BBX 24 24 0 -2
BITMAP
000000
030000
018000
01C000
018000
018000
018000
008000
0081C0
0087C0
009F00
007800
00E000
018000
030000
060000
040000
080000
080000
080000
0400E0
03FFE0
00FF80
000000
ENDCHAR
STARTCHAR 2449
ENCODING 9289
SWIDTH 144 0
DWIDTH 24 0
BBX 24 24 0 -2
BITMAP
000000
03000C
018006
01C066
018030
018030
018000
008000
0081C0
0087C0
009F00
007800
00E000
018000
030000
060000
040000
080000
080000
080000
0400E0
03FFE0
00FF80
000000
ENDCHAR
STARTCHAR 244a
ENCODING 9290
SWIDTH 144 0
DWIDTH 24 0
BBX 24 24 0 -2
BITMAP
006000
003000
006000
006000
40CC00
7FFE00
388000
010070
03000C
02003E
0600C6
0C0100
180100
380200
700200
600200
000200
000200
00FA00
010780
0202E0
020670
01FC30
007800
ENDCHAR
STARTCHAR 244b
ENCODING 9291
SWIDTH 144 0
DWIDTH 24 0
BBX 24 24 0 -2
BITMAP
000000
080000
0C0000
0C0000
0C01E0
0C0FF8
18303C
180060
180080
180000
100000
300000
300000
310000
310000
321000
322000
322000
143000
1C1FFE
1C07FC
0C0000
080000
000000
ENDCHAR
STARTCHAR 244c
ENCODING 9292
SWIDTH 144 0
DWIDTH 24 0
BBX 24 24 0 -2
BITMAP
000000
006000
001000
001800
101000
101000
103F80
10F060
132018
16200C
18600C
184006
38C006
2C8006
478006
47000E
83000C
8787CC
CD8838
58083C
300CE6
000386
000000
000000
ENDCHAR
STARTCHAR 244d
ENCODING 9293
SWIDTH 144 0
DWIDTH 24 0
BBX 24 24 0 -2
BITMAP
060000
030000
018000
018000
018000
030000
030000
0783C0
5F1C30
326018
028008
07000C
06000C
0E000C
0A000C
1A000C
12001C
320798
730C78
6B083C
4F0C66
0607C6
060000
000000
ENDCHAR
STARTCHAR 244e
ENCODING 9294
SWIDTH 144 0
DWIDTH 24 0
BBX 24 24 0 -2
BITMAP
000000
000000
000000
001F00
00F8C0
038C30
060C18
0C0C0C
18180C
101806
203006
202006
406006
404006
40C006
618006
63000C
36000C
3C0018
180030
0000C0
000300
000000
000000
ENDCHAR
STARTCHAR 244f
ENCODING 9295
SWIDTH 144 0
DWIDTH 24 0
BBX 24 24 0 -2
BITMAP
000000
300180
180060
1C0060
180060
180040
180040
30204E
301FFC
300C40
300040
200040
600040
640040
640060
640060
6C0060
680FE0
283070
38407C
3840EE
183FC6
100F00
000000
ENDCHAR
STARTCHAR 2450
ENCODING 9296
SWIDTH 144 0
DWIDTH 24 0
BBX 24 24 0 -2
BITMAP
000006
300003
180633
1C0198
180198
180180
180100
308138
307FF0
303100
300100
200100
600100
640100
640180
640180
6C0180
681F80
2861C0
3881F0
3883B8
187F18
101C00
000000
ENDCHAR
STARTCHAR 2451
ENCODING 9297
SWIDTH 144 0
DWIDTH 24 0
BBX 24 24 0 -2
BITMAP
000000
300000
18060E
1C0191
180191
180191
18010E
308130
307FF0
303100
300100
200100
600100
640100
640180
640180
6C0180
681F80
2861C0
3881F0
3883B8
187F18
101C00
000000
ENDCHAR
STARTCHAR 2452
ENCODING 9298
SWIDTH 144 0
DWIDTH 24 0
BBX 24 24 0 -2
BITMAP
000000
000000
008060
03C060
4FC060
398060
030060
020070
060050
040058
0C0098
0C008C
08008E
180187
180102
180100
180300
180200
180600
080C00
0E3800
07F000
01C000
000000
ENDCHAR
STARTCHAR 2453
ENCODING 9299
SWIDTH 144 0
DWIDTH 24 0
BBX 24 24 0 -2
BITMAP
000006
000003
010033
078198
9F8198
730180
060180
0401C0
0C0140
080160
180160
180130
100138
30011C
300208
300200
300200
300400
300C00
101800
1C7000
0FE000
038000
000000
ENDCHAR
STARTCHAR 2454
ENCODING 9300
SWIDTH 144 0
DWIDTH 24 0
BBX 24 24 0 -2
BITMAP
000000
000000
01000E
078191
9F8191
730191
06018E
0401C0
0C0140
080160
180160
180130
100138
30011C
300208
300200
300200
300400
300C00
101800
1C7000
0FE000
038000
000000
ENDCHAR
STARTCHAR 2455
ENCODING 9301
SWIDTH 144 0
DWIDTH 24 0
BBX 24 24 0 -2
BITMAP
000000
004000
002000
003000
001800
000C00
000C00
001000
002000
002000
004000
004000
002000
003000
001FE0
00783C
018806
860C07
9C0C1F
780C06
70FC00
203800
000000
000000
ENDCHAR
STARTCHAR 2456
ENCODING 9302
SWIDTH 144 0
DWIDTH 24 0
BBX 24 24 0 -2
BITMAP
000000
004000
002000
003000
00180C
000C06
000C66
001030
002030
002000
004000
004000
002000
003000
001FE0
00783C
018806
860C07
9C0C1F
780C06
70FC00
203800
000000
000000
ENDCHAR
STARTCHAR 2457
ENCODING 9303
SWIDTH 144 0
DWIDTH 24 0
BBX 24 24 0 -2
BITMAP
000000
004000
002000
003000
001800
000C00
000C38
001044
002044
002044
004038
004000
002000
003000
001FE0
00783C
018806
860C07
9C0C1F
780C06
70FC00
203800
000000
000000
ENDCHAR
STARTCHAR 2458
ENCODING 9304
SWIDTH 144 0
DWIDTH 24 0
BBX 24 24 0 -2
BITMAP
000000
000000
000000
000000
038000
064000
042000
0C2000
0C1000
081800
180C00
180600
B00300
F00180
6000E0
000070
000038
00001E
00000F
000003
000000
000000
000000
000000
ENDCHAR
STARTCHAR 2459
ENCODING 9305
SWIDTH 144 0
DWIDTH 24 0
BBX 24 24 0 -2
BITMAP
000000
000060
000030
000330
038180
064180
042000
0C2000
0C1000
081800
180C00
180600
B00300
F00180
6000E0
000070
000038
00001E
00000F
000003
000000
000000
000000
000000
ENDCHAR
STARTCHAR 245a
ENCODING 9306
SWIDTH 144 0
DWIDTH 24 0
BBX 24 24 0 -2
BITMAP
000000
000000
000000
000070
038088
064088
042088
0C2070
0C1000
081800
180C00
180600
B00300
F00180
6000E0
000070
000038
00001E
00000F
000003
000000
000000
000000
000000
ENDCHAR
STARTCHAR 245b
ENCODING 9307
SWIDTH 144 0
DWIDTH 24 0
BBX 24 24 0 -2
BITMAP
000000
300000
1801F8
1C3FFC
1800C0
180060
180060
300060
30007C
3001F8
303F60
200060
600060
640060
640060
640060
6C0060
6807E0
281870
38207C
3820EE
181FC6
100700
000000
ENDCHAR
STARTCHAR 245c
ENCODING 9308
SWIDTH 144 0
DWIDTH 24 0
BBX 24 24 0 -2
BITMAP
000000
300000
1803C6
1CFFE3
180303
180198
18018C
30018C
300180
3001F0
30FFE0
200180
600180
640180
640180
640180
6C0180
681F80
2861C0
3881F0
3883B8
187F18
101C00
000000
ENDCHAR
STARTCHAR 245d
ENCODING 9309
SWIDTH 144 0
DWIDTH 24 0
BBX 24 24 0 -2
BITMAP
00000E
300011
180391
1CFFD1
18030E
180180
180180
300180
3001F0
300FE0
30F980
200180
600180
640180
640180
640180
6C0180
681F80
2861C0
3881F0
3883B8
187F18
101C00
000000
ENDCHAR
STARTCHAR 245e
ENCODING 9310
SWIDTH 144 0
DWIDTH 24 0
BBX 24 24 0 -2
BITMAP
001800
000C00
000E00
000C00
000C00
1009E0
0FFFC0
070800
000900
0008C0
080BC0
07FF00
038800
000800
000800
000C00
000C00
03FC00
0C0F80
100DE0
183C70
0FF830
03E000
000000
ENDCHAR
STARTCHAR 245f
ENCODING 9311
SWIDTH 144 0
DWIDTH 24 0
BBX 24 24 0 -2
BITMAP
000000
000000
083C00
07CE00
030E00
001C00
001800
003040
002020
006030
004030
00C030
03FE60
0D87E0
310070
2300FC
4600CE
4C0186
580180
700300
200200
000400
000000
000000
ENDCHAR
STARTCHAR 2460
ENCODING 9312
SWIDTH 144 0
DWIDTH 24 0
BBX 24 24 0 -2
BITMAP
000000
060000
030000
030000
033800
03F800
7FE030
330048
02004C
020046
0E0046
13005E
230044
230040
230040
120020
0E0020
060020
040030
040070
0601F0
03FFE0
00FF00
000000
ENDCHAR
STARTCHAR 2461
ENCODING 9313
SWIDTH 144 0
DWIDTH 24 0
BBX 24 24 0 -2
BITMAP
000000
001800
000C00
200C00
300C00
100800
101F80
18F8E0
0B9038
0E301C
1C200C
34600E
644006
46C006
C38006
83800E
83800C
86C01C
4C4018
700030
2000C0
000300
000000
000000
ENDCHAR
STARTCHAR 2462
ENCODING 9314
SWIDTH 144 0
DWIDTH 24 0
BBX 24 24 0 -2
BITMAP
00C000
006000
007000
006000
006000
084000
074000
01C000
00C000
018000
068000
088000
090080
07E040
01F860
011820
030030
030030
030030
010060
0180E0
00FFC0
003F00
000000
ENDCHAR
STARTCHAR 2463
ENCODING 9315
SWIDTH 144 0
DWIDTH 24 0
BBX 24 24 0 -2
BITMAP
000000
000000
000000
000000
000000
002000
001800
01F800
021800
0207C0
033C60
01C030
238030
1EC460
0C6380
003000
001000
001800
000800
000C00
000C00
000600
000600
000000
ENDCHAR
STARTCHAR 2464
ENCODING 9316
SWIDTH 144 0
DWIDTH 24 0
BBX 24 24 0 -2
BITMAP
001000
000800
038C00
047E00
080C00
0801F0
0C0E0C
067006
03C003
070003
9D8007
F8C61E
7063FC
0060F0
003000
001800
001800
000C00
000C00
000E00
000600
000700
000300
000000
ENDCHAR
STARTCHAR 2465
ENCODING 9317
SWIDTH 144 0
DWIDTH 24 0
BBX 24 24 0 -2
BITMAP
000000
000000
000000
000000
000000
000000
001800
002400
024700
025AC0
046260
048220
048230
054230
054230
064230
062620
063460
021CC0
000700
000C00
000800
001000
000000
ENDCHAR
STARTCHAR 2466
ENCODING 9318
SWIDTH 144 0
DWIDTH 24 0
BBX 24 24 0 -2
BITMAP
000000
003800
404400
208600
308FC0
313230
314218
31830C
21030C
630306
650306
650306
688306
68830C
68460C
304618
302670
301FE0
100F80
000800
001800
001000
002000
004000
ENDCHAR
STARTCHAR 2467
ENCODING 9319
SWIDTH 144 0
DWIDTH 24 0
BBX 24 24 0 -2
BITMAP
000000
000000
000000
000000
000000
000000
001000
000C00
000C00
000C00
0008C0
000FC0
000800
000800
000800
000800
000800
000800
00F800
030F00
020BC0
0118C0
00F000
000000
ENDCHAR
STARTCHAR 2468
ENCODING 9320
SWIDTH 144 0
DWIDTH 24 0
BBX 24 24 0 -2
BITMAP
006000
003800
001C00
001800
001800
001800
0018E0
001FF0
001800
001800
001800
001800
001800
001800
001800
001800
001800
07FE00
0C1F80
1019E0
101870
187030
0FC000
000000
ENDCHAR
STARTCHAR 2469
ENCODING 9321
SWIDTH 144 0
DWIDTH 24 0
BBX 24 24 0 -2
BITMAP
004000
002000
003000
001800
003C00
00CC00
010000
010000
020000
020000
020000
020000
020780
061860
066030
078018
0F0018
0E0018
040038
000030
0000E0
000380
001C00
000000
ENDCHAR
STARTCHAR 246a
ENCODING 9322
SWIDTH 144 0
DWIDTH 24 0
BBX 24 24 0 -2
BITMAP
020000
030000
010F00
011180
0120C0
0120C0
034060
034060
038060
038060
030060
030060
030060
030060
010060
0000C0
0000C0
0000C0
000180
000180
000300
000600
000C00
003000
ENDCHAR
STARTCHAR 246b
ENCODING 9323
SWIDTH 144 0
DWIDTH 24 0
BBX 24 24 0 -2
BITMAP
000000
000C00
027E00
03C700
018E00
000C00
001800
003000
006000
00C000
008000
019F00
03E0C0
038060
070030
0E0030
1C0030
187030
019830
010C60
0106C0
018700
007C00
000000
ENDCHAR
STARTCHAR 246c
ENCODING 9324
SWIDTH 144 0
DWIDTH 24 0
BBX 24 24 0 -2
BITMAP
060000
030000
038000
030000
030000
020700
021880
8720C0
7F40C0
3280C0
0700C0
0700C0
0E0080
0C0180
1C0180
1C0180
340180
340180
660180
F601C3
CE00FE
0E0038
040000
000000
ENDCHAR
STARTCHAR 246d
ENCODING 9325
SWIDTH 144 0
DWIDTH 24 0
BBX 24 24 0 -2
BITMAP
000000
020C00
03FE00
01C600
000C00
001800
001000
002000
006000
00C000
018F80
037060
078030
0E0018
1C0018
380018
300018
000038
000030
000060
0001C0
000700
007800
000000
ENDCHAR
STARTCHAR 246e
ENCODING 9326
SWIDTH 144 0
DWIDTH 24 0
BBX 24 24 0 -2
BITMAP
000000
000000
000000
000000
000000
008000
006000
006000
004000
004000
00E000
07C700
0298C0
00A060
01C060
018030
038030
028030
048060
0E8060
0980C0
00C700
00C000
000000
ENDCHAR
STARTCHAR 246f
ENCODING 9327
SWIDTH 144 0
DWIDTH 24 0
BBX 24 24 0 -2
BITMAP
018000
00C000
00E000
00C000
00C000
008000
008000
01E000
27E1E0
1CC638
00980C
01A00E
02C006
028006
058006
0C8006
08800E
18800C
34C018
72C030
61C0C0
01C300
008000
000000
ENDCHAR
STARTCHAR 2470
ENCODING 9328
SWIDTH 144 0
DWIDTH 24 0
BBX 24 24 0 -2
BITMAP
000000
041800
03FC00
018C00
001800
001800
001000
003000
002000
006F80
00F060
03C010
0C8018
198008
11000C
23000C
22000C
260F1C
3410D8
1C1070
0818E0
000F80
000000
000000
ENDCHAR
STARTCHAR 2471
ENCODING 9329
SWIDTH 144 0
DWIDTH 24 0
BBX 24 24 0 -2
BITMAP
000600
023F00
03E600
018400
000C00
001800
003780
0078C0
00C060
018060
070060
067860
00CCC0
008D80
007E00
006000
008000
0100E0
060338
0D860C
387C0E
70383E
601004
000000
ENDCHAR
STARTCHAR 2472
ENCODING 9330
SWIDTH 144 0
DWIDTH 24 0
BBX 24 24 0 -2
BITMAP
006000
003000
003000
102600
0FFF00
066000
00C000
008000
010070
036038
07B0F8
0E1BC0
1C1E00
183800
007800
009800
011800
020800
040000
040000
078000
03FFC0
00FFC0
000000
ENDCHAR
STARTCHAR 2473
ENCODING 9331
SWIDTH 144 0
DWIDTH 24 0
BBX 24 24 0 -2
BITMAP
000000
001800
000C00
001C00
001800
003800
003000
006000
006000
00C000
008000
018000
030000
027000
079800
0E1800
0C1802
181806
180C0C
300C18
700C70
600FE0
600780
000000
ENDCHAR
STARTCHAR 2521
ENCODING 9505
SWIDTH 144 0
DWIDTH 24 0
BBX 24 24 0 -2
BITMAP
000000
000000
000000
000000
000000
000000
000000
000040
083FE0
07E060
0700F0
002300
001C00
001800
001800
001000
003000
003000
002000
006000
004000
008000
010000
000000
ENDCHAR
STARTCHAR 2522
ENCODING 9506
SWIDTH 144 0
DWIDTH 24 0
BBX 24 24 0 -2
BITMAP
000000
000000
0000F0
21FFFC
3FC01E
1C003E
003078
001CC0
000F00
000C00
000C00
001800
001800
001000
003000
002000
006000
004000
00C000
008000
010000
020000
040000
000000
ENDCHAR
STARTCHAR 2523
ENCODING 9507
SWIDTH 144 0
DWIDTH 24 0
BBX 24 24 0 -2
BITMAP
000000
000000
000000
000000
000000
000000
000100
000180
000180
000300
000600
000C00
001800
003C00
006400
00C400
030400
000400
000400
000C00
000C00
000C00
000400
000000
ENDCHAR
STARTCHAR 2524
ENCODING 9508
SWIDTH 144 0
DWIDTH 24 0
BBX 24 24 0 -2
BITMAP
000100
000180
0003C0
000380
000700
000600
000E00
001C00
003800
007800
00CC00
018C00
030C00
0C0C00
300C00
000C00
000C00
000C00
000C00
000C00
000C00
000C00
000800
000000
ENDCHAR
STARTCHAR 2525
ENCODING 9509
SWIDTH 144 0
DWIDTH 24 0
BBX 24 24 0 -2
BITMAP
000000
000000
000000
000000
000000
000000
002000
001800
001800
021FE0
01F070
010060
030060
0300C0
0100C0
000180
000180
000300
000200
000400
000800
001000
002000
000000
ENDCHAR
STARTCHAR 2526
ENCODING 9510
SWIDTH 144 0
DWIDTH 24 0
BBX 24 24 0 -2
BITMAP
000000
007000
003800
001800
001800
3018F0
1FFFF8
0F803C
0C0038
0C0030
0C0070
0C0060
0C0060
0C00C0
0800C0
000180
000180
000300
000600
000400
000800
001000
002000
000000
ENDCHAR
STARTCHAR 2527
ENCODING 9511
SWIDTH 144 0
DWIDTH 24 0
BBX 24 24 0 -2
BITMAP
000000
000000
000000
000000
000000
000000
000000
000000
000000
000000
020380
01FFC0
01A000
001800
001800
001800
001800
001000
001000
1010C0
0FFFF0
070030
000000
000000
ENDCHAR
STARTCHAR 2528
ENCODING 9512
SWIDTH 144 0
DWIDTH 24 0
BBX 24 24 0 -2
BITMAP
000000
000000
000000
000000
1000E0
0FFFF0
073030
001800
001800
001800
001800
001800
001800
001800
003800
003000
003000
80FFF8
7FFFFE
3C000E
000000
000000
000000
000000
ENDCHAR
STARTCHAR 2529
ENCODING 9513
SWIDTH 144 0
DWIDTH 24 0
BBX 24 24 0 -2
BITMAP
000000
000000
000000
000000
000000
000000
001000
000C00
000C00
000C60
087FF0
07CC00
021C00
001400
003400
006400
00C400
018400
030400
0C0400
003C00
001C00
000C00
000000
ENDCHAR
STARTCHAR 252a
ENCODING 9514
SWIDTH 144 0
DWIDTH 24 0
BBX 24 24 0 -2
BITMAP
000000
000C00
000700
000300
000300
000300
0003FC
21FFFE
1FC700
0C0F00
001F00
003B00
003300
006300
00C300
018300
030300
060300
180300
600300
001300
000F00
000700
000200
ENDCHAR
STARTCHAR 252b
ENCODING 9515
SWIDTH 144 0
DWIDTH 24 0
BBX 24 24 0 -2
BITMAP
000000
001800
000C00
000E00
000C00
001C00
001820
107FF0
0FFE38
073038
006030
006030
00C060
00C060
018060
0180C0
0300C0
0600C0
0C0180
182180
301380
400F00
000700
000200
ENDCHAR
STARTCHAR 252c
ENCODING 9516
SWIDTH 144 0
DWIDTH 24 0
BBX 24 24 0 -2
BITMAP
000006
001803
000C33
000E18
000C18
001C00
001820
107FF0
0FFE38
073038
006030
006030
00C060
00C060
018060
0180C0
0300C0
0600C0
0C0180
182180
301380
400F00
000700
000200
ENDCHAR
STARTCHAR 252d
ENCODING 9517
SWIDTH 144 0
DWIDTH 24 0
BBX 24 24 0 -2
BITMAP
000000
018000
00E000
006000
0061C0
002FE0
007E00
21E000
1F3000
0C3000
001038
001BFC
001F00
40F800
3F8C00
1C0C00
000400
000600
000600
000600
000300
000300
000300
000100
ENDCHAR
STARTCHAR 252e
ENCODING 9518
SWIDTH 144 0
DWIDTH 24 0
BBX 24 24 0 -2
BITMAP
000006
018003
00E033
006018
006198
002FC0
007C00
21E000
1F3000
0C3000
001038
001BFC
001F00
40F800
3F8C00
1C0C00
000400
000600
000600
000600
000300
000300
000300
000100
ENDCHAR
STARTCHAR 252f
ENCODING 9519
SWIDTH 144 0
DWIDTH 24 0
BBX 24 24 0 -2
BITMAP
000000
002000
003800
003040
007FE0
007C70
00E070
01C0E0
0300C0
0601C0
080180
100380
000700
000E00
000C00
001800
003000
006000
00C000
018000
030000
060000
180000
000000
ENDCHAR
STARTCHAR 2530
ENCODING 9520
SWIDTH 144 0
DWIDTH 24 0
BBX 24 24 0 -2
BITMAP
000006
000003
004033
007018
006098
00FFC0
00F8E0
01C0E0
0381C0
060180
0C0380
100700
200E00
001C00
001800
003000
006000
00C000
018000
030000
060000
0C0000
300000
000000
ENDCHAR
STARTCHAR 2531
ENCODING 9521
SWIDTH 144 0
DWIDTH 24 0
BBX 24 24 0 -2
BITMAP
000000
00C000
006000
006000
00E000
00C000
01807C
03FFFE
067E00
0C0300
100300
200300
000600
000600
000C00
000C00
001800
003000
006000
00C000
018000
030000
0C0000
000000
ENDCHAR
STARTCHAR 2532
ENCODING 9522
SWIDTH 144 0
DWIDTH 24 0
BBX 24 24 0 -2
BITMAP
000006
00C003
006033
006018
00E018
00C000
018000
03007C
06FFFE
0C3E00
100300
200300
000600
000600
000C00
000C00
001800
003000
006000
00C000
018000
030000
0C0000
000000
ENDCHAR
STARTCHAR 2533
ENCODING 9523
SWIDTH 144 0
DWIDTH 24 0
BBX 24 24 0 -2
BITMAP
000000
000000
000000
000000
0000E0
107FF0
0FF038
070030
000030
000070
000060
000060
000060
000060
0000E0
0000C0
0000C0
1000C0
0FFFE0
07C060
000000
000000
000000
000000
ENDCHAR
STARTCHAR 2534
ENCODING 9524
SWIDTH 144 0
DWIDTH 24 0
BBX 24 24 0 -2
BITMAP
000006
000003
000033
000018
000018
0001C0
107FE0
0FF070
070060
000060
0000E0
0000C0
0000C0
0000C0
0001C0
000180
000180
100180
0FFFC0
07C0C0
000000
000000
000000
000000
ENDCHAR
STARTCHAR 2535
ENCODING 9525
SWIDTH 144 0
DWIDTH 24 0
BBX 24 24 0 -2
BITMAP
000000
000600
000380
0301C0
018180
018180
01819E
819FFF
7FF180
398180
018180
018180
018380
018300
018300
010300
000600
000600
000400
000C00
001800
001000
002000
004000
ENDCHAR
STARTCHAR 2536
ENCODING 9526
SWIDTH 144 0
DWIDTH 24 0
BBX 24 24 0 -2
BITMAP
000006
000C03
000733
030398
018318
018300
018300
01831C
819FFE
7FF300
398300
018300
018700
018600
018600
010600
000C00
000C00
000800
001800
003000
002000
004000
008000
ENDCHAR
STARTCHAR 2537
ENCODING 9527
SWIDTH 144 0
DWIDTH 24 0
BBX 24 24 0 -2
BITMAP
000000
000000
060000
038000
01C000
00C000
000000
000000
000002
180004
0F0008
038010
018060
0000C0
000180
000300
000E00
003C00
10F000
1FE000
0F8000
060000
000000
000000
ENDCHAR
STARTCHAR 2538
ENCODING 9528
SWIDTH 144 0
DWIDTH 24 0
BBX 24 24 0 -2
BITMAP
000006
000003
060033
038018
01C018
00C000
000000
000000
000002
180004
0F0008
038010
018060
0000C0
000180
000300
000E00
003C00
10F000
1FE000
0F8000
060000
000000
000000
ENDCHAR
STARTCHAR 2539
ENCODING 9529
SWIDTH 144 0
DWIDTH 24 0
BBX 24 24 0 -2
BITMAP
000000
000000
000000
000180
041FC0
03F8E0
01C1C0
000180
000380
000300
000600
000600
000C00
001C00
003200
006180
00C0E0
018070
060038
18001C
60000C
000000
000000
000000
ENDCHAR
STARTCHAR 253a
ENCODING 9530
SWIDTH 144 0
DWIDTH 24 0
BBX 24 24 0 -2
BITMAP
000006
000003
000033
000318
083F98
07F1C0
038180
000380
000300
000700
000600
000E00
000C00
001800
003600
006180
00C0E0
018070
060038
18001C
60000C
000000
000000
000000
ENDCHAR
STARTCHAR 253b
ENCODING 9531
SWIDTH 144 0
DWIDTH 24 0
BBX 24 24 0 -2
BITMAP
000000
000000
018000
00C000
00E000
00C000
00C000
00C070
00CFF8
00FC3C
07C070
7EC0C0
30C100
00C200
00C000
00C000
00C000
004000
007000
003FF8
000FF8
000000
000000
000000
ENDCHAR
STARTCHAR 253c
ENCODING 9532
SWIDTH 144 0
DWIDTH 24 0
BBX 24 24 0 -2
BITMAP
000006
000003
018033
00C018
00E018
00C000
00C000
00C070
00CFF8
00FC3C
07C070
7EC0C0
30C100
00C200
00C000
00C000
00C000
004000
007000
003FF8
000FF8
000000
000000
000000
ENDCHAR
STARTCHAR 253d
ENCODING 9533
SWIDTH 144 0
DWIDTH 24 0
BBX 24 24 0 -2
BITMAP
000000
000000
000060
000030
100038
0C0030
060070
070060
0300E0
0380C0
0181C0
000180
000300
000300
000600
000C00
000C00
001800
003000
002000
004000
008000
010000
000000
ENDCHAR
STARTCHAR 253e
ENCODING 9534
SWIDTH 144 0
DWIDTH 24 0
BBX 24 24 0 -2
BITMAP
000006
000003
000033
000318
400198
3001C0
180180
1C0180
0C0300
0E0300
060600
000600
000C00
000C00
001800
001000
003000
006000
004000
008000
010000
020000
040000
000000
ENDCHAR
STARTCHAR 253f
ENCODING 9535
SWIDTH 144 0
DWIDTH 24 0
BBX 24 24 0 -2
BITMAP
000000
003000
001800
001860
003FF0
007738
006030
00C070
018060
0360C0
0631C0
181980
001B00
000700
000600
000C00
001800
003000
006000
00C000
018000
060000
180000
000000
ENDCHAR
STARTCHAR 2540
ENCODING 9536
SWIDTH 144 0
DWIDTH 24 0
BBX 24 24 0 -2
BITMAP
000006
006003
003033
003018
006198
007FC0
00D8E0
0180C0
030180
06C180
0C6300
303300
003600
000C00
000C00
001800
003000
006000
00C000
018000
030000
0C0000
300000
000000
ENDCHAR
STARTCHAR 2541
ENCODING 9537
SWIDTH 144 0
DWIDTH 24 0
BBX 24 24 0 -2
BITMAP
000000
000200
000300
000F80
003E00
00F800
070C00
000C00
000C00
000C78
41FFFE
3F8C06
1C0C00
000C00
000C00
001800
001800
001800
003000
003000
006000
004000
008000
010000
ENDCHAR
STARTCHAR 2542
ENCODING 9538
SWIDTH 144 0
DWIDTH 24 0
BBX 24 24 0 -2
BITMAP
000006
000203
000333
000F98
003E18
00F800
070C00
000C00
000C00
000C78
41FFFE
3F8C06
1C0C00
000C00
000C00
001800
001800
001800
003000
003000
006000
004000
008000
010000
ENDCHAR
STARTCHAR 2543
ENCODING 9539
SWIDTH 144 0
DWIDTH 24 0
BBX 24 24 0 -2
BITMAP
000000
000000
000000
000000
000000
000000
000000
000000
000000
002040
041070
021860
031860
0308C0
0100C0
000180
000100
000300
000600
000400
000800
001000
002000
000000
ENDCHAR
STARTCHAR 2544
ENCODING 9540
SWIDTH 144 0
DWIDTH 24 0
BBX 24 24 0 -2
BITMAP
000000
000000
000000
004030
006018
20201C
103018
183038
1C3030
0C0030
0C0060
000060
0000C0
0000C0
000180
000180
000300
000600
000C00
001800
003000
006000
018000
000000
ENDCHAR
STARTCHAR 2545
ENCODING 9541
SWIDTH 144 0
DWIDTH 24 0
BBX 24 24 0 -2
BITMAP
000006
000003
000033
010318
018198
4081C0
20C180
30C180
38C380
180300
180300
000600
000600
000C00
000C00
001800
001800
003000
006000
00C000
018000
030000
0C0000
000000
ENDCHAR
STARTCHAR 2546
ENCODING 9542
SWIDTH 144 0
DWIDTH 24 0
BBX 24 24 0 -2
BITMAP
000000
000000
0403C0
03FFE0
01E000
000000
000000
000000
000078
40FFFE
3FC80E
1C0C00
000C00
000C00
001800
001800
001800
003000
003000
002000
006000
004000
008000
010000
ENDCHAR
STARTCHAR 2547
ENCODING 9543
SWIDTH 144 0
DWIDTH 24 0
BBX 24 24 0 -2
BITMAP
000006
000003
040733
03FF98
01C018
000000
000000
000000
0000F0
40FFFC
3FC81C
1C0C00
000C00
000C00
001800
001800
001800
003000
003000
002000
006000
004000
008000
010000
ENDCHAR
STARTCHAR 2548
ENCODING 9544
SWIDTH 144 0
DWIDTH 24 0
BBX 24 24 0 -2
BITMAP
000000
030000
01C000
00E000
00E000
00C000
00C000
00C000
00C000
00F000
00CE00
00C380
00C0E0
00C070
00C030
00C000
00C000
00C000
00C000
00C000
00C000
00C000
008000
000000
ENDCHAR
STARTCHAR 2549
ENCODING 9545
SWIDTH 144 0
DWIDTH 24 0
BBX 24 24 0 -2
BITMAP
000000
030000
01C030
00E018
00E198
00C0C0
00C0C0
00C000
00C000
00F000
00CE00
00C380
00C0E0
00C070
00C030
00C000
00C000
00C000
00C000
00C000
00C000
00C000
008000
000000
ENDCHAR
STARTCHAR 254a
ENCODING 9546
SWIDTH 144 0
DWIDTH 24 0
BBX 24 24 0 -2
BITMAP
000000
003000
001800
000C00
000C00
000C00
000C00
000C78
41FFFE
3F8C0E
1C0C00
000C00
001C00
001800
001800
001800
003000
003000
002000
006000
004000
008000
010000
000000
ENDCHAR
STARTCHAR 254b
ENCODING 9547
SWIDTH 144 0
DWIDTH 24 0
BBX 24 24 0 -2
BITMAP
000000
000000
000000
000000
080780
07FFE0
0380E0
000000
000000
000000
000000
000000
000000
000000
000000
000000
400FF0
3FFFFE
1F001E
000000
000000
000000
000000
000000
ENDCHAR
STARTCHAR 254c
ENCODING 9548
SWIDTH 144 0
DWIDTH 24 0
BBX 24 24 0 -2
BITMAP
000000
000000
000000
0200E0
01FFF0
00E0E0
0000C0
0001C0
000180
030300
00C300
003600
001C00
000E00
001B00
003380
003180
0061C0
00C0C0
018000
030000
0C0000
300000
000000
ENDCHAR
STARTCHAR 254d
ENCODING 9549
SWIDTH 144 0
DWIDTH 24 0
BBX 24 24 0 -2
BITMAP
003000
001C00
000E00
000600
000000
000180
087FC0
07E380
030700
000E00
001C00
003C80
006C60
00CC38
018C1C
030C0E
0C0C06
300C00
000C00
000C00
000C00
000C00
000800
000000
ENDCHAR
STARTCHAR 254e
ENCODING 9550
SWIDTH 144 0
DWIDTH 24 0
BBX 24 24 0 -2
BITMAP
000000
000000
000060
000030
000038
000070
000060
0000E0
0000C0
0001C0
000180
000300
000700
000600
000C00
001800
003000
006000
00C000
018000
060000
180000
000000
000000
ENDCHAR
STARTCHAR 254f
ENCODING 9551
SWIDTH 144 0
DWIDTH 24 0
BBX 24 24 0 -2
BITMAP
000000
000000
000000
000000
030000
018200
018100
018080
0380C0
030060
030030
060038
060018
0C001C
0C000C
18000E
100006
200006
C00006
000000
000000
000000
000000
000000
ENDCHAR
STARTCHAR 2550
ENCODING 9552
SWIDTH 144 0
DWIDTH 24 0
BBX 24 24 0 -2
BITMAP
000006
000003
000033
000018
030018
018200
018100
018080
0380C0
030060
030030
060038
060018
0C001C
0C000C
18000E
100006
200006
C00006
000000
000000
000000
000000
000000
ENDCHAR
STARTCHAR 2551
ENCODING 9553
SWIDTH 144 0
DWIDTH 24 0
BBX 24 24 0 -2
BITMAP
000000
000000
00000E
000011
030011
018211
01810E
018080
0380C0
030060
030030
060038
060018
0C001C
0C000C
18000E
100006
200006
C00006
000000
000000
000000
000000
000000
ENDCHAR
STARTCHAR 2552
ENCODING 9554
SWIDTH 144 0
DWIDTH 24 0
BBX 24 24 0 -2
BITMAP
000000
180000
0E0000
070000
060000
060000
060000
060780
07FFC0
06E000
060000
060000
060000
060000
060000
060000
060000
070000
03C070
01FFF0
007FC0
000000
000000
000000
ENDCHAR
STARTCHAR 2553
ENCODING 9555
SWIDTH 144 0
DWIDTH 24 0
BBX 24 24 0 -2
BITMAP
000006
180003
0E0033
070018
060018
060000
060000
060780
07FFC0
06E000
060000
060000
060000
060000
060000
060000
060000
070000
03C070
01FFF0
007FC0
000000
000000
000000
ENDCHAR
STARTCHAR 2554
ENCODING 9556
SWIDTH 144 0
DWIDTH 24 0
BBX 24 24 0 -2
BITMAP
000000
180000
0E001C
070022
060022
060022
06001C
060780
07FFC0
06E000
060000
060000
060000
060000
060000
060000
060000
070000
03C070
01FFF0
007FC0
000000
000000
000000
ENDCHAR
STARTCHAR 2555
ENCODING 9557
SWIDTH 144 0
DWIDTH 24 0
BBX 24 24 0 -2
BITMAP
000000
000000
000000
000000
1003E0
0FFFF0
03C038
000070
000060
000060
0000C0
0000C0
000180
000180
000300
000600
000C00
001800
003000
006000
018000
060000
000000
000000
ENDCHAR
STARTCHAR 2556
ENCODING 9558
SWIDTH 144 0
DWIDTH 24 0
BBX 24 24 0 -2
BITMAP
000006
000003
000033
000018
200798
1FFFC0
0780E0
0000C0
0001C0
000180
000180
000300
000300
000600
000600
000C00
001800
003000
006000
00C000
030000
0C0000
000000
000000
ENDCHAR
STARTCHAR 2557
ENCODING 9559
SWIDTH 144 0
DWIDTH 24 0
BBX 24 24 0 -2
BITMAP
000000
000000
00000E
000011
400F11
3FFF91
0F01CE
000180
000380
000300
000300
000600
000600
000C00
000C00
001800
003000
006000
00C000
018000
060000
180000
000000
000000
ENDCHAR
STARTCHAR 2558
ENCODING 9560
SWIDTH 144 0
DWIDTH 24 0
BBX 24 24 0 -2
BITMAP
000000
000000
000000
000000
010000
038000
02C000
066000
0C3000
0C1800
180C00
380600
F00300
600180
0000E0
000070
00003C
00001E
000007
000003
000000
000000
000000
000000
ENDCHAR
STARTCHAR 2559
ENCODING 9561
SWIDTH 144 0
DWIDTH 24 0
BBX 24 24 0 -2
BITMAP
000000
000060
000030
000330
010180
038180
02C000
066000
0C3000
0C1800
180C00
380600
F00300
600180
0000E0
000070
00003C
00001E
000007
000003
000000
000000
000000
000000
ENDCHAR
STARTCHAR 255a
ENCODING 9562
SWIDTH 144 0
DWIDTH 24 0
BBX 24 24 0 -2
BITMAP
000000
000000
000000
0000E0
010110
038110
02C110
0660E0
0C3000
0C1800
180C00
380600
F00300
600180
0000E0
000070
00003C
00001E
000007
000003
000000
000000
000000
000000
ENDCHAR
STARTCHAR 255b
ENCODING 9563
SWIDTH 144 0
DWIDTH 24 0
BBX 24 24 0 -2
BITMAP
000000
003000
001800
001C00
001800
001800
001870
403FFC
3FF80C
1E1800
001800
001800
001840
041820
041830
0C1818
08181C
18180C
38180C
309800
007800
003800
001000
000000
ENDCHAR
STARTCHAR 255c
ENCODING 9564
SWIDTH 144 0
DWIDTH 24 0
BBX 24 24 0 -2
BITMAP
000006
003003
001833
001C18
001818
001800
0018E0
203FF8
1FF818
0E1800
001800
001800
001840
041820
041830
0C1818
08181C
18180C
38180C
309800
007800
003800
001000
000000
ENDCHAR
STARTCHAR 255d
ENCODING 9565
SWIDTH 144 0
DWIDTH 24 0
BBX 24 24 0 -2
BITMAP
000000
006000
00300E
003811
003011
003011
0031CE
407FE0
3FF060
1C3000
003000
003000
003080
083040
083060
183030
103038
303018
703018
613000
00F000
007000
002000
000000
ENDCHAR
STARTCHAR 255e
ENCODING 9566
SWIDTH 144 0
DWIDTH 24 0
BBX 24 24 0 -2
BITMAP
000000
000000
000000
000000
000038
401FFC
3FF80E
1F001C
080038
000030
000060
0000C0
000180
008200
006400
003800
001C00
000E00
000700
000700
000300
000000
000000
000000
ENDCHAR
STARTCHAR 255f
ENCODING 9567
SWIDTH 144 0
DWIDTH 24 0
BBX 24 24 0 -2
BITMAP
000000
010000
00C000
007C00
001F80
0003C0
0000C0
000000
010000
018000
00F000
003F00
0007C0
0000C0
000000
000000
040000
030000
01E000
007F00
000FC0
0001E0
000060
000000
ENDCHAR
STARTCHAR 2560
ENCODING 9568
SWIDTH 144 0
DWIDTH 24 0
BBX 24 24 0 -2
BITMAP
000000
000000
003000
001800
001C00
001C00
003800
003000
003000
006000
006000
004100
00C080
008040
018060
010030
030018
4201F8
7FFE0C
3F800C
18000C
000000
000000
000000
ENDCHAR
STARTCHAR 2561
ENCODING 9569
SWIDTH 144 0
DWIDTH 24 0
BBX 24 24 0 -2
BITMAP
000000
000000
0000C0
000060
000070
0000E0
0000C0
030180
00C180
003300
001F00
000E00
000F00
001B80
0031C0
0060C0
00C0E0
018060
030000
060000
180000
600000
000000
000000
ENDCHAR
STARTCHAR 2562
ENCODING 9570
SWIDTH 144 0
DWIDTH 24 0
BBX 24 24 0 -2
BITMAP
000000
000000
000000
100780
0FFFC0
07C000
006000
006000
006000
006000
0063F8
41FFFC
3FE000
1C6000
006000
006000
006000
006000
006000
007800
003FF8
000FF8
000000
000000
ENDCHAR
STARTCHAR 2563
ENCODING 9571
SWIDTH 144 0
DWIDTH 24 0
BBX 24 24 0 -2
BITMAP
000000
000000
000000
000000
000000
000000
000000
01C000
00C000
00C060
0043F0
007C38
21E040
1F2080
0C3100
001000
001000
001800
001800
000800
000C00
000C00
000C00
000000
ENDCHAR
STARTCHAR 2564
ENCODING 9572
SWIDTH 144 0
DWIDTH 24 0
BBX 24 24 0 -2
BITMAP
000000
018000
03C000
00C000
00C000
00400C
0061FE
007F07
01F00E
8FA01C
7C3030
3030C0
001000
001000
001800
001800
000800
000800
000C00
000C00
000600
000600
000600
000000
ENDCHAR
STARTCHAR 2565
ENCODING 9573
SWIDTH 144 0
DWIDTH 24 0
BBX 24 24 0 -2
BITMAP
000000
000000
000000
000000
000000
000000
000000
000000
000000
000000
010300
00FF80
00C300
000300
000300
000200
000600
000400
000400
107FF8
0FC038
0C0000
000000
000000
ENDCHAR
STARTCHAR 2566
ENCODING 9574
SWIDTH 144 0
DWIDTH 24 0
BBX 24 24 0 -2
BITMAP
000000
000000
000000
000000
000000
080F00
07FF80
038380
000300
000300
000300
000300
000600
000600
000600
000400
000400
81FFFE
7FC03F
380000
000000
000000
000000
000000
ENDCHAR
STARTCHAR 2567
ENCODING 9575
SWIDTH 144 0
DWIDTH 24 0
BBX 24 24 0 -2
BITMAP
000000
000000
000000
000000
000000
000000
000000
000000
000000
020180
01FFC0
00C180
000180
000180
020180
01FF80
00C100
000100
000100
000100
020100
01FF80
00C000
000000
ENDCHAR
STARTCHAR 2568
ENCODING 9576
SWIDTH 144 0
DWIDTH 24 0
BBX 24 24 0 -2
BITMAP
000000
000000
000000
1003E0
0FFFF0
070070
000060
000060
000060
000060
080FE0
07FCC0
0380C0
0000C0
0000C0
0000C0
000080
000080
101F80
0FFFC0
070000
000000
000000
000000
ENDCHAR
STARTCHAR 2569
ENCODING 9577
SWIDTH 144 0
DWIDTH 24 0
BBX 24 24 0 -2
BITMAP
000000
000000
0403C0
03FFE0
01C000
000000
000000
000030
101FF8
0FFC38
070030
000070
000060
0000E0
0000C0
0001C0
000380
000300
000600
000C00
001800
006000
038000
000000
ENDCHAR
STARTCHAR 256a
ENCODING 9578
SWIDTH 144 0
DWIDTH 24 0
BBX 24 24 0 -2
BITMAP
000000
000180
0400C0
0200E0
0300C0
0300C0
0300C0
0300C0
0300C0
0300C0
0300C0
0300C0
0300C0
0300C0
0201C0
000180
000180
000300
000300
000600
000C00
003000
01C000
000000
ENDCHAR
STARTCHAR 256b
ENCODING 9579
SWIDTH 144 0
DWIDTH 24 0
BBX 24 24 0 -2
BITMAP
000000
000000
003000
001800
001C00
0C1800
071800
061800
061800
061800
061801
0C1802
0C1804
0C1808
0C1810
181860
1818C0
101B80
301F00
203E00
401C00
800800
000000
000000
ENDCHAR
STARTCHAR 256c
ENCODING 9580
SWIDTH 144 0
DWIDTH 24 0
BBX 24 24 0 -2
BITMAP
000000
000000
180000
0E0000
070000
060000
060000
060000
060000
060004
060008
060010
060020
0600C0
060180
060700
060E00
063800
07F000
0FC000
0F0000
040000
000000
000000
ENDCHAR
STARTCHAR 256d
ENCODING 9581
SWIDTH 144 0
DWIDTH 24 0
BBX 24 24 0 -2
BITMAP
000000
000000
000000
000000
000000
301FF0
1FFFF8
18001C
18001C
180018
080018
0C0018
0C0030
0C0030
0C0030
0C0020
0C0060
0C0060
0FFFF0
040030
040000
000000
000000
000000
ENDCHAR
STARTCHAR 256e
ENCODING 9582
SWIDTH 144 0
DWIDTH 24 0
BBX 24 24 0 -2
BITMAP
000000
000000
000000
000000
000000
000000
000000
000000
000040
041FE0
03F070
010060
0100C0
0100C0
030180
030180
010300
000200
000600
000C00
000800
001000
006000
000000
ENDCHAR
STARTCHAR 256f
ENCODING 9583
SWIDTH 144 0
DWIDTH 24 0
BBX 24 24 0 -2
BITMAP
000000
000000
000000
3000F0
1FFFF8
0FC01C
0C0018
0C0038
0C0030
0C0030
0C0060
0C0060
0400C0
000180
000180
000300
000600
000C00
001800
003000
006000
018000
000000
000000
ENDCHAR
STARTCHAR 2570
ENCODING 9584
SWIDTH 144 0
DWIDTH 24 0
BBX 24 24 0 -2
BITMAP
000C00
000600
000700
000600
000600
000600
101FE0
0FFFF0
07C600
030600
030600
030600
030600
03061C
87FFFE
7F860E
380600
000600
000600
000600
000600
000600
000600
000400
ENDCHAR
STARTCHAR 2571
ENCODING 9585
SWIDTH 144 0
DWIDTH 24 0
BBX 24 24 0 -2
BITMAP
000000
000000
000000
000000
0001C0
10FFF0
0FC0E0
0601C0
003300
001C00
001800
001800
001800
001000
001000
001000
0010F0
80FFFE
7FE01F
3C0003
000000
000000
000000
000000
ENDCHAR
STARTCHAR 2572
ENCODING 9586
SWIDTH 144 0
DWIDTH 24 0
BBX 24 24 0 -2
BITMAP
000000
000000
000060
0407F0
03FE18
01E038
000030
000030
000060
081FE0
07F8C0
0381C0
000180
000300
000700
000600
000C00
001800
003000
006000
00C000
018000
020000
000000
ENDCHAR
STARTCHAR 2573
ENCODING 9587
SWIDTH 144 0
DWIDTH 24 0
BBX 24 24 0 -2
BITMAP
000000
000000
000000
080000
040000
070000
038002
01C004
00C008
000010
000020
0000C0
000180
000300
000600
000C00
003800
007000
11E000
0F8000
0F0000
040000
000000
000000
ENDCHAR
STARTCHAR 2574
ENCODING 9588
SWIDTH 144 0
DWIDTH 24 0
BBX 24 24 0 -2
BITMAP
000006
00E003
007033
003018
003018
3031C0
1FFFE0
0F80F0
0C00E0
0C00C0
0C01C0
0C0180
0C0180
0C0300
080300
000600
000600
000C00
000800
001000
002000
004000
008000
000000
ENDCHAR
STARTCHAR 2575
ENCODING 9589
SWIDTH 144 0
DWIDTH 24 0
BBX 24 24 0 -2
BITMAP
000000
000000
000000
000000
000000
000000
001000
000C00
000C00
000C00
020860
01FFF0
019060
003060
002040
0060C0
00C0C0
008080
010180
021100
040F00
000600
000400
000000
ENDCHAR
STARTCHAR 2576
ENCODING 9590
SWIDTH 144 0
DWIDTH 24 0
BBX 24 24 0 -2
BITMAP
000000
000000
000000
000000
000000
000000
000000
004000
006000
00C000
00C0E0
018FF0
037C00
060600
080600
000400
000C00
000800
001800
001000
002000
004000
018000
000000
ENDCHAR
STARTCHAR 2621
ENCODING 9761
SWIDTH 144 0
DWIDTH 24 0
BBX 24 24 0 -2
BITMAP
000000
000000
001000
001000
003800
003800
002C00
004C00
004600
008600
008300
008300
010180
010180
03FFC0
0200C0
040060
040060
080030
080030
3E00FC
000000
000000
000000
ENDCHAR
STARTCHAR 2622
ENCODING 9762
SWIDTH 144 0
DWIDTH 24 0
BBX 24 24 0 -2
BITMAP
000000
000000
0FFE00
030180
0300C0
030060
030060
030060
030060
0300C0
030080
03FF00
0300C0
030060
030030
030030
030030
030030
030060
0300C0
0FFF00
000000
000000
000000
ENDCHAR
STARTCHAR 2623
ENCODING 9763
SWIDTH 144 0
DWIDTH 24 0
BBX 24 24 0 -2
BITMAP
000000
000000
0FFFF0
030030
030010
030010
030010
030000
030000
030000
030000
030000
030000
030000
030000
030000
030000
030000
030000
030000
0FC000
000000
000000
000000
ENDCHAR
STARTCHAR 2624
ENCODING 9764
SWIDTH 144 0
DWIDTH 24 0
BBX 24 24 0 -2
BITMAP
000000
000000
001000
001000
003800
003800
002C00
004C00
004600
008600
008300
008300
010180
010180
0200C0
0200C0
040060
040060
080030
0FFFF0
1FFFF8
000000
000000
000000
ENDCHAR
STARTCHAR 2625
ENCODING 9765
SWIDTH 144 0
DWIDTH 24 0
BBX 24 24 0 -2
BITMAP
000000
000000
1FFFC0
0600C0
060040
060040
060000
060000
060200
060200
060600
07FE00
060600
060200
060200
060000
060020
060020
060020
060060
1FFFE0
000000
000000
000000
ENDCHAR
STARTCHAR 2626
ENCODING 9766
SWIDTH 144 0
DWIDTH 24 0
BBX 24 24 0 -2
BITMAP
000000
000000
0FFFF0
0C00E0
0801C0
080180
080380
000700
000600
000C00
001C00
003800
003000
006000
00E000
01C000
018010
030010
070010
0E0030
1FFFF0
000000
000000
000000
ENDCHAR
STARTCHAR 2627
ENCODING 9767
SWIDTH 144 0
DWIDTH 24 0
BBX 24 24 0 -2
BITMAP
000000
000000
1F81F8
060060
060060
060060
060060
060060
060060
060060
060060
07FFE0
060060
060060
060060
060060
060060
060060
060060
060060
1F81F8
000000
000000
000000
ENDCHAR
STARTCHAR 2628
ENCODING 9768
SWIDTH 144 0
DWIDTH 24 0
BBX 24 24 0 -2
BITMAP
000000
000000
007E00
018180
0300C0
060060
0C0030
0C0030
180018
188118
18FF18
18FF18
188118
180018
180018
0C0030
0C0030
060060
0300C0
018180
007E00
000000
000000
000000
ENDCHAR
STARTCHAR 2629
ENCODING 9769
SWIDTH 144 0
DWIDTH 24 0
BBX 24 24 0 -2
BITMAP
000000
000000
007E00
001800
001800
001800
001800
001800
001800
001800
001800
001800
001800
001800
001800
001800
001800
001800
001800
001800
007E00
000000
000000
000000
ENDCHAR
STARTCHAR 262a
ENCODING 9770
SWIDTH 144 0
DWIDTH 24 0
BBX 24 24 0 -2
BITMAP
000000
000000
1F87E0
060180
060100
060200
060400
060800
061000
062000
066000
06F000
073800
061C00
060C00
060600
060700
060380
0601C0
0600E0
1F83F8
000000
000000
000000
ENDCHAR
STARTCHAR 262b
ENCODING 9771
SWIDTH 144 0
DWIDTH 24 0
BBX 24 24 0 -2
BITMAP
000000
000000
001000
001000
003800
003800
002C00
004C00
004600
008600
008300
008300
010180
010180
0200C0
0200C0
040060
040060
080030
080030
3E00FC
000000
000000
000000
ENDCHAR
STARTCHAR 262c
ENCODING 9772
SWIDTH 144 0
DWIDTH 24 0
BBX 24 24 0 -2
BITMAP
000000
000000
3F00FC
0B00B0
0B00B0
098130
098130
098130
098130
08C230
08C230
08C230
08C430
086430
086430
086830
082830
083830
083830
081030
3E10FC
000000
000000
000000
ENDCHAR
STARTCHAR 262d
ENCODING 9773
SWIDTH 144 0
DWIDTH 24 0
BBX 24 24 0 -2
BITMAP
000000
000000
1F00F8
070020
058020
05C020
04C020
046020
047020
043020
041820
041C20
040C20
040620
040720
0403A0
0401A0
0400E0
0400E0
040060
1F0020
000000
000000
000000
ENDCHAR
STARTCHAR 262e
ENCODING 9774
SWIDTH 144 0
DWIDTH 24 0
BBX 24 24 0 -2
BITMAP
000000
000000
07FFF0
07FFF0
0C0030
080020
080020
000000
000000
010040
01FFC0
03FF80
020080
000000
000000
000000
040010
040010
0C0030
0FFFE0
0FFFE0
000000
000000
000000
ENDCHAR
STARTCHAR 262f
ENCODING 9775
SWIDTH 144 0
DWIDTH 24 0
BBX 24 24 0 -2
BITMAP
000000
000000
007E00
018180
0300C0
060060
0C0030
0C0030
180018
180018
180018
180018
180018
180018
180018
0C0030
0C0030
060060
0300C0
018180
007E00
000000
000000
000000
ENDCHAR
STARTCHAR 2630
ENCODING 9776
SWIDTH 144 0
DWIDTH 24 0
BBX 24 24 0 -2
BITMAP
000000
000000
1FFFF8
0300C0
0300C0
0300C0
0300C0
0300C0
0300C0
0300C0
0300C0
0300C0
0300C0
0300C0
0300C0
0300C0
0300C0
0300C0
0300C0
0300C0
1FC3F8
000000
000000
000000
ENDCHAR
STARTCHAR 2631
ENCODING 9777
SWIDTH 144 0
DWIDTH 24 0
BBX 24 24 0 -2
BITMAP
000000
000000
0FFF00
0300C0
030060
030030
030030
030030
030030
030030
030060
0300C0
03FF00
030000
030000
030000
030000
030000
030000
030000
0FC000
000000
000000
000000
ENDCHAR
STARTCHAR 2632
ENCODING 9778
SWIDTH 144 0
DWIDTH 24 0
BBX 24 24 0 -2
BITMAP
000000
000040
1FFFE0
0E0020
070010
038010
01C000
00E000
007000
003800
001C00
000C00
001800
003000
006000
00C000
018008
030008
060018
0FFFF0
1FFFF0
000010
000000
000000
ENDCHAR
STARTCHAR 2633
ENCODING 9779
SWIDTH 144 0
DWIDTH 24 0
BBX 24 24 0 -2
BITMAP
000000
000000
1FFFF8
181818
101808
201804
201804
001800
001800
001800
001800
001800
001800
001800
001800
001800
001800
001800
001800
001800
007E00
000000
000000
000000
ENDCHAR
STARTCHAR 2634
ENCODING 9780
SWIDTH 144 0
DWIDTH 24 0
BBX 24 24 0 -2
BITMAP
000000
000000
0781E0
0CC330
186618
103C08
203C04
001800
001800
001800
001800
001800
001800
001800
001800
001800
001800
001800
001800
001800
007E00
000000
000000
000000
ENDCHAR
STARTCHAR 2635
ENCODING 9781
SWIDTH 144 0
DWIDTH 24 0
BBX 24 24 0 -2
BITMAP
000000
000000
00FF00
001800
001800
00FF00
0318C0
061860
0C1830
181818
181818
181818
181818
181818
0C1830
061860
0318C0
00FF00
001800
001800
00FF00
000000
000000
000000
ENDCHAR
STARTCHAR 2636
ENCODING 9782
SWIDTH 144 0
DWIDTH 24 0
BBX 24 24 0 -2
BITMAP
000000
000000
1F80F8
070060
030040
018080
01C100
00C100
006200
007400
003800
001800
001C00
002E00
004700
004300
008180
0101C0
0200E0
060070
1F00FC
000000
000000
000000
ENDCHAR
STARTCHAR 2637
ENCODING 9783
SWIDTH 144 0
DWIDTH 24 0
BBX 24 24 0 -2
BITMAP
000000
000000
007E00
001800
1C1838
3E187C
261864
061860
061860
061860
061860
0318C0
0318C0
011880
019980
00DB00
003C00
001800
001800
001800
007E00
000000
000000
000000
ENDCHAR
STARTCHAR 2638
ENCODING 9784
SWIDTH 144 0
DWIDTH 24 0
BBX 24 24 0 -2
BITMAP
000000
000000
007E00
018180
0300C0
060060
0C0030
0C0030
180018
180018
180018
180018
0C0030
0C0030
060060
0300C0
018180
104208
104208
1FC3F8
1FC3F8
000000
000000
000000
ENDCHAR
STARTCHAR 2641
ENCODING 9793
SWIDTH 144 0
DWIDTH 24 0
BBX 24 24 0 -2
BITMAP
000000
000000
000000
000000
000000
000000
000000
000000
003860
00C460
018260
0302C0
0702C0
060380
0E0300
0C0600
0C0600
0C0E00
0C1A40
0633C0
03C180
000000
000000
000000
ENDCHAR
STARTCHAR 2642
ENCODING 9794
SWIDTH 144 0
DWIDTH 24 0
BBX 24 24 0 -2
BITMAP
000000
000000
000700
0018C0
003060
002060
006060
004060
00C060
0080C0
019980
019E00
010180
0300C0
0300C0
0200C0
0600C0
060180
068380
0C6700
0C3C00
0C0000
180000
180000
ENDCHAR
STARTCHAR 2643
ENCODING 9795
SWIDTH 144 0
DWIDTH 24 0
BBX 24 24 0 -2
BITMAP
000000
000000
000000
000000
000000
000000
000000
000000
01E030
0330F0
041980
081A00
001C00
001800
001800
003000
003000
007000
006000
00E000
00E000
00C000
01C000
018000
ENDCHAR
STARTCHAR 2644
ENCODING 9796
SWIDTH 144 0
DWIDTH 24 0
BBX 24 24 0 -2
BITMAP
000000
000000
003C00
004300
004180
0020E0
001070
000830
000400
003A00
00C300
018100
030180
030180
060180
060180
060300
060300
020600
030C00
00F000
000000
000000
000000
ENDCHAR
STARTCHAR 2645
ENCODING 9797
SWIDTH 144 0
DWIDTH 24 0
BBX 24 24 0 -2
BITMAP
000000
000000
000000
000000
000000
000000
000000
000000
003E00
00E380
0180C0
018040
01C000
00FC00
039800
070000
060000
060040
070180
03FF00
01FC00
000000
000000
000000
ENDCHAR
STARTCHAR 2646
ENCODING 9798
SWIDTH 144 0
DWIDTH 24 0
BBX 24 24 0 -2
BITMAP
000000
000000
003000
004000
0080E0
0083E0
007F80
000C00
001800
003000
006000
00C000
018000
030000
030000
060000
060000
07C000
03F800
003E00
000700
000300
01C600
01F800
ENDCHAR
STARTCHAR 2647
ENCODING 9799
SWIDTH 144 0
DWIDTH 24 0
BBX 24 24 0 -2
BITMAP
000000
000000
000000
000000
000000
000000
000000
000000
01C3C0
066C20
087030
006030
00C030
00C060
018060
0180C0
0300C0
030180
060180
060300
000300
000600
000E00
000C00
ENDCHAR
STARTCHAR 2648
ENCODING 9800
SWIDTH 144 0
DWIDTH 24 0
BBX 24 24 0 -2
BITMAP
000000
000000
000780
001860
003020
006030
00C030
018030
018030
030060
03FFE0
060060
0600C0
0600C0
0C0180
0C0180
0C0300
0C0200
040400
061800
01E000
000000
000000
000000
ENDCHAR
STARTCHAR 2649
ENCODING 9801
SWIDTH 144 0
DWIDTH 24 0
BBX 24 24 0 -2
BITMAP
000000
000000
000000
000000
000000
000000
000000
000000
006000
006000
006000
00C000
00C000
018000
018000
018000
030040
030080
030700
01FC00
00F000
000000
000000
000000
ENDCHAR
STARTCHAR 264a
ENCODING 9802
SWIDTH 144 0
DWIDTH 24 0
BBX 24 24 0 -2
BITMAP
000000
000000
000000
000000
000000
000000
000000
000000
00C0E0
00C1F0
00C330
018600
019800
03E000
033000
061800
061800
0C1840
0C1880
181F00
180E00
000000
000000
000000
ENDCHAR
STARTCHAR 264b
ENCODING 9803
SWIDTH 144 0
DWIDTH 24 0
BBX 24 24 0 -2
BITMAP
000000
000000
007000
007800
001800
000C00
000C00
000400
000400
000400
000C00
001C00
003400
006400
00C600
018600
038300
030300
060380
0E01E0
0C00E0
000000
000000
000000
ENDCHAR
STARTCHAR 264c
ENCODING 9804
SWIDTH 144 0
DWIDTH 24 0
BBX 24 24 0 -2
BITMAP
000000
000000
000000
000000
000000
000000
000000
000000
00C060
00C060
01C0E0
0180C0
0180C0
0381C0
030180
030180
030100
030300
070290
0584F0
0C7860
180000
380000
300000
ENDCHAR
STARTCHAR 264d
ENCODING 9805
SWIDTH 144 0
DWIDTH 24 0
BBX 24 24 0 -2
BITMAP
000000
000000
000000
000000
000000
000000
000000
000000
000000
030020
038020
018040
018040
018080
010180
010300
020E00
023C00
07F000
07C000
060000
000000
000000
000000
ENDCHAR
STARTCHAR 264e
ENCODING 9806
SWIDTH 144 0
DWIDTH 24 0
BBX 24 24 0 -2
BITMAP
000000
000000
001F80
006000
004000
003FE0
00FFC0
010000
020000
020000
018000
007FE0
00FFC0
030000
040000
080000
080000
0F8000
07F800
007E00
000300
000300
030600
03F800
ENDCHAR
STARTCHAR 264f
ENCODING 9807
SWIDTH 144 0
DWIDTH 24 0
BBX 24 24 0 -2
BITMAP
000000
000000
000000
000000
000000
000000
000000
000000
003E00
00C180
018080
0300C0
0300C0
0600C0
0600C0
0600C0
060180
060180
020300
030600
00F800
000000
000000
000000
ENDCHAR
STARTCHAR 2650
ENCODING 9808
SWIDTH 144 0
DWIDTH 24 0
BBX 24 24 0 -2
BITMAP
000000
000000
000000
000000
000000
000000
000000
000010
03FFF0
07FFE0
046300
086300
00C600
00C600
018C00
018C00
030800
031840
061880
0E1F00
0C0E00
000000
000000
000000
ENDCHAR
STARTCHAR 2651
ENCODING 9809
SWIDTH 144 0
DWIDTH 24 0
BBX 24 24 0 -2
BITMAP
000000
000000
000000
000000
000000
000000
000000
000000
000F00
0030C0
006040
00C060
008060
018060
010060
0300C0
0280C0
028180
064300
063C00
060000
0C0000
0C0000
0C0000
ENDCHAR
STARTCHAR 2652
ENCODING 9810
SWIDTH 144 0
DWIDTH 24 0
BBX 24 24 0 -2
BITMAP
000000
000000
000000
000000
000000
000000
000020
000030
001FF0
007FE0
00C200
018100
030080
0300C0
0600C0
0600C0
060180
060180
020300
030600
00F800
000000
000000
000000
ENDCHAR
STARTCHAR 2653
ENCODING 9811
SWIDTH 144 0
DWIDTH 24 0
BBX 24 24 0 -2
BITMAP
000000
000000
000000
000000
000000
000000
000000
000010
03FFF0
07FFE0
043000
083000
006000
006000
00C000
00C000
018080
018100
018600
00FC00
007000
000000
000000
000000
ENDCHAR
STARTCHAR 2654
ENCODING 9812
SWIDTH 144 0
DWIDTH 24 0
BBX 24 24 0 -2
BITMAP
000000
000000
000000
000000
000000
000000
000000
000000
000000
0180C0
018060
018060
018060
0300C0
0300C0
030180
060180
060300
060600
021800
01E000
000000
000000
000000
ENDCHAR
STARTCHAR 2655
ENCODING 9813
SWIDTH 144 0
DWIDTH 24 0
BBX 24 24 0 -2
BITMAP
000000
000000
000300
000300
000300
000600
000600
000400
000400
007F00
018CC0
030860
060830
0C1830
0C1030
0C1030
0C3060
0620C0
032180
00FE00
006000
006000
00C000
00C000
ENDCHAR
STARTCHAR 2656
ENCODING 9814
SWIDTH 144 0
DWIDTH 24 0
BBX 24 24 0 -2
BITMAP
000000
000000
000000
000000
000000
000000
000000
000000
000000
01C060
03E0E0
0231C0
041380
001700
001C00
001800
003000
007000
01D000
039000
071040
0E1880
1C0F80
180700
ENDCHAR
STARTCHAR 2657
ENCODING 9815
SWIDTH 144 0
DWIDTH 24 0
BBX 24 24 0 -2
BITMAP
000000
000000
000300
000300
000300
000200
000600
000600
070460
098470
018C30
018C30
030830
030830
031860
061060
0610C0
063180
022300
01FC00
006000
006000
00C000
00C000
ENDCHAR
STARTCHAR 2658
ENCODING 9816
SWIDTH 144 0
DWIDTH 24 0
BBX 24 24 0 -2
BITMAP
000000
000000
000000
000000
000000
000000
000000
000000
006040
018020
030030
060010
0C0C18
0C0C18
181C18
181818
181818
183830
083430
0C6460
038380
000000
000000
000000
ENDCHAR
STARTCHAR 2721
ENCODING 10017
SWIDTH 144 0
DWIDTH 24 0
BBX 24 24 0 -2
BITMAP
000000
000000
001000
003000
007800
003800
003C00
002C00
004E00
004600
008700
008300
010380
010180
03FFC0
0200C0
0400E0
040060
080070
080030
3E00FC
000000
000000
000000
ENDCHAR
STARTCHAR 2722
ENCODING 10018
SWIDTH 144 0
DWIDTH 24 0
BBX 24 24 0 -2
BITMAP
000000
000000
0FFFE0
030060
030020
030010
030010
030000
030000
030000
03FF00
0300C0
030060
030030
030030
030030
030030
030030
030060
0300C0
0FFF00
000000
000000
000000
ENDCHAR
STARTCHAR 2723
ENCODING 10019
SWIDTH 144 0
DWIDTH 24 0
BBX 24 24 0 -2
BITMAP
000000
000000
0FFE00
030180
0300C0
030060
030060
030060
030060
0300C0
030080
03FF00
0300C0
030060
030030
030030
030030
030030
030060
0300C0
0FFF00
000000
000000
000000
ENDCHAR
STARTCHAR 2724
ENCODING 10020
SWIDTH 144 0
DWIDTH 24 0
BBX 24 24 0 -2
BITMAP
000000
000000
0FFFE0
030060
030020
030010
030010
030000
030000
030000
030000
030000
030000
030000
030000
030000
030000
030000
030000
030000
0FC000
000000
000000
000000
ENDCHAR
STARTCHAR 2725
ENCODING 10021
SWIDTH 144 0
DWIDTH 24 0
BBX 24 24 0 -2
BITMAP
000000
000000
01FFF8
002060
002060
002060
002060
002060
002060
002060
006060
004060
004060
004060
004060
00C060
008060
008060
010060
020060
1FFFF8
180018
100008
200004
ENDCHAR
STARTCHAR 2726
ENCODING 10022
SWIDTH 144 0
DWIDTH 24 0
BBX 24 24 0 -2
BITMAP
000000
000000
0FFFE0
030060
030020
030010
030090
030080
030180
03FF80
030180
030080
030080
030000
030000
030000
030008
030008
030010
030030
0FFFF0
000000
000000
000000
ENDCHAR
STARTCHAR 2727
ENCODING 10023
SWIDTH 144 0
DWIDTH 24 0
BBX 24 24 0 -2
BITMAP
01C380
01C380
01C380
000000
000000
0FFFE0
030060
030020
030010
030080
030180
03FF80
030180
030080
030000
030000
030008
030008
030010
030030
0FFFF0
000000
000000
000000
ENDCHAR
STARTCHAR 2728
ENCODING 10024
SWIDTH 144 0
DWIDTH 24 0
BBX 24 24 0 -2
BITMAP
000000
000000
307E0C
78181E
78181E
081810
0C1830
041820
041820
021840
011880
03FFC0
0318C0
061860
061860
0C1830
0C1830
181818
181818
30180C
FC7E3F
000000
000000
000000
ENDCHAR
STARTCHAR 2729
ENCODING 10025
SWIDTH 144 0
DWIDTH 24 0
BBX 24 24 0 -2
BITMAP
000000
000000
003E00
01C180
0700C0
060060
040060
000060
000060
0000C0
000180
001E00
0001C0
000060
000030
000030
040030
060070
0700E0
01C1C0
003F00
000000
000000
000000
ENDCHAR
STARTCHAR 272a
ENCODING 10026
SWIDTH 144 0
DWIDTH 24 0
BBX 24 24 0 -2
BITMAP
000000
000000
1F81F8
060060
060060
0600E0
060160
060260
060260
060460
060860
060860
061060
062060
064060
064060
068060
070060
060060
060060
1F81F8
000000
000000
000000
ENDCHAR
STARTCHAR 272b
ENCODING 10027
SWIDTH 144 0
DWIDTH 24 0
BBX 24 24 0 -2
BITMAP
00C300
01C380
018180
00C300
003C00
1F81F8
060060
060060
0600E0
060160
060260
060460
060860
061060
062060
064060
068060
070060
060060
060060
1F81F8
000000
000000
000000
ENDCHAR
STARTCHAR 272c
ENCODING 10028
SWIDTH 144 0
DWIDTH 24 0
BBX 24 24 0 -2
BITMAP
000000
000000
1F80E0
0601F0
060330
060200
060600
060400
060C00
061800
07F000
063800
061C00
060C00
060E00
060700
060380
060180
0601C0
0600E0
1F83F8
000000
000000
000000
ENDCHAR
STARTCHAR 272d
ENCODING 10029
SWIDTH 144 0
DWIDTH 24 0
BBX 24 24 0 -2
BITMAP
000000
000000
01FFF8
002060
002060
002060
002060
002060
002060
002060
006060
004060
004060
004060
004060
004060
18C060
388060
308060
310060
1E01F8
000000
000000
000000
ENDCHAR
STARTCHAR 272e
ENCODING 10030
SWIDTH 144 0
DWIDTH 24 0
BBX 24 24 0 -2
BITMAP
000000
000000
1F00F8
0700E0
0700E0
058160
058160
058160
04C260
08C230
08C230
086430
086430
086430
083830
103818
103818
101018
101018
100018
7C007E
000000
000000
000000
ENDCHAR
STARTCHAR 272f
ENCODING 10031
SWIDTH 144 0
DWIDTH 24 0
BBX 24 24 0 -2
BITMAP
000000
000000
1F81F8
060060
060060
060060
060060
060060
060060
07FFE0
060060
060060
060060
060060
060060
060060
060060
060060
060060
060060
1F81F8
000000
000000
000000
ENDCHAR
STARTCHAR 2730
ENCODING 10032
SWIDTH 144 0
DWIDTH 24 0
BBX 24 24 0 -2
BITMAP
000000
000000
007E00
018180
0300C0
060060
0C0030
0C0030
180018
180018
180018
180018
180018
180018
180018
0C0030
0C0030
060060
0300C0
018180
007E00
000000
000000
000000
ENDCHAR
STARTCHAR 2731
ENCODING 10033
SWIDTH 144 0
DWIDTH 24 0
BBX 24 24 0 -2
BITMAP
000000
000000
1FFFF8
060060
060060
060060
060060
060060
060060
060060
060060
060060
060060
060060
060060
060060
060060
060060
060060
060060
1F81F8
000000
000000
000000
ENDCHAR
STARTCHAR 2732
ENCODING 10034
SWIDTH 144 0
DWIDTH 24 0
BBX 24 24 0 -2
BITMAP
000000
000000
0FFF00
0301C0
030060
030030
030030
030030
030030
030030
030030
030060
0301C0
03FF00
030000
030000
030000
030000
030000
030000
0FC000
000000
000000
000000
ENDCHAR
STARTCHAR 2733
ENCODING 10035
SWIDTH 144 0
DWIDTH 24 0
BBX 24 24 0 -2
BITMAP
000000
000000
003F00
00C1E0
030060
060020
0C0020
0C0000
180000
180000
180000
180000
180000
180000
180000
0C0000
0C0020
060020
030060
00C1E0
003F00
000000
000000
000000
ENDCHAR
STARTCHAR 2734
ENCODING 10036
SWIDTH 144 0
DWIDTH 24 0
BBX 24 24 0 -2
BITMAP
000000
000000
0FFFF0
0C1830
181818
101808
201804
001800
001800
001800
001800
001800
001800
001800
001800
001800
001800
001800
001800
001800
007E00
000000
000000
000000
ENDCHAR
STARTCHAR 2735
ENCODING 10037
SWIDTH 144 0
DWIDTH 24 0
BBX 24 24 0 -2
BITMAP
000000
000000
3F80FC
0E0030
060020
060020
030040
030040
018080
018080
00C100
00C100
006200
006200
003400
003C00
061800
0E1800
0C1000
042000
03C000
000000
000000
000000
ENDCHAR
STARTCHAR 2736
ENCODING 10038
SWIDTH 144 0
DWIDTH 24 0
BBX 24 24 0 -2
BITMAP
000000
000000
00FF00
001800
001800
00FF00
0318C0
061860
0C1830
181818
181818
181818
181818
181818
0C1830
061860
0318C0
00FF00
001800
001800
00FF00
000000
000000
000000
ENDCHAR
STARTCHAR 2737
ENCODING 10039
SWIDTH 144 0
DWIDTH 24 0
BBX 24 24 0 -2
BITMAP
000000
000000
1F80F8
070060
030040
018080
01C100
00C100
006200
007400
003800
001800
001C00
002E00
004700
004300
008180
0101C0
0200E0
060070
1F00FC
000000
000000
000000
ENDCHAR
STARTCHAR 2738
ENCODING 10040
SWIDTH 144 0
DWIDTH 24 0
BBX 24 24 0 -2
BITMAP
000000
000000
1F83F0
0600C0
0600C0
0600C0
0600C0
0600C0
0600C0
0600C0
0600C0
0600C0
0600C0
0600C0
0600C0
0600C0
0600C0
0600C0
0600C0
0600C0
1FFFF8
000018
000008
000004
ENDCHAR
STARTCHAR 2739
ENCODING 10041
SWIDTH 144 0
DWIDTH 24 0
BBX 24 24 0 -2
BITMAP
000000
000000
1F81F8
060060
060060
060060
060060
060060
060060
060060
060060
060060
070060
0381E0
00FE60
000060
000060
000060
000060
000060
0001F8
000000
000000
000000
ENDCHAR
STARTCHAR 273a
ENCODING 10042
SWIDTH 144 0
DWIDTH 24 0
BBX 24 24 0 -2
BITMAP
000000
000000
7E7E7E
181818
181818
181818
181818
181818
181818
181818
181818
181818
181818
181818
181818
181818
181818
181818
181818
181818
7FFFFE
000000
000000
000000
ENDCHAR
STARTCHAR 273b
ENCODING 10043
SWIDTH 144 0
DWIDTH 24 0
BBX 24 24 0 -2
BITMAP
000000
000000
7E7E7E
181818
181818
181818
181818
181818
181818
181818
181818
181818
181818
181818
181818
181818
181818
181818
181818
181818
7FFFFE
000006
000002
000001
ENDCHAR
STARTCHAR 273c
ENCODING 10044
SWIDTH 144 0
DWIDTH 24 0
BBX 24 24 0 -2
BITMAP
000000
000000
3FF800
306000
206000
406000
406000
006000
006000
006000
007FC0
006030
006018
00600C
00600C
00600C
00600C
00600C
006018
006030
01FFC0
000000
000000
000000
ENDCHAR
STARTCHAR 273d
ENCODING 10045
SWIDTH 144 0
DWIDTH 24 0
BBX 24 24 0 -2
BITMAP
000000
000000
7E007E
180018
180018
180018
180018
180018
180018
180018
1FF018
180C18
180618
180318
180318
180318
180318
180318
180618
180C18
7FF07E
000000
000000
000000
ENDCHAR
STARTCHAR 273e
ENCODING 10046
SWIDTH 144 0
DWIDTH 24 0
BBX 24 24 0 -2
BITMAP
000000
000000
0FC000
030000
030000
030000
030000
030000
030000
030000
03FF00
0300C0
030060
030030
030030
030030
030030
030030
030060
0300C0
0FFF00
000000
000000
000000
ENDCHAR
STARTCHAR 273f
ENCODING 10047
SWIDTH 144 0
DWIDTH 24 0
BBX 24 24 0 -2
BITMAP
000000
000000
01F800
0F0600
0C0180
0800C0
080060
000060
000030
000030
003870
00FFB0
010730
000030
000030
000060
080060
0800C0
0C0180
0F0600
01F800
000000
000000
000000
ENDCHAR
STARTCHAR 2740
ENCODING 10048
SWIDTH 144 0
DWIDTH 24 0
BBX 24 24 0 -2
BITMAP
000000
000000
7E07C0
181830
183018
18600C
18600C
18C006
18C006
1FC006
18C006
18C006
18C006
18C006
18C006
18C006
18600C
18600C
183018
181830
7E07C0
000000
000000
000000
ENDCHAR
STARTCHAR 2741
ENCODING 10049
SWIDTH 144 0
DWIDTH 24 0
BBX 24 24 0 -2
BITMAP
000000
000000
00FFF0
0300C0
0600C0
0C00C0
0C00C0
0C00C0
0C00C0
0C00C0
0600C0
0300C0
00FFC0
0060C0
0060C0
00C0C0
00C0C0
0180C0
0300C0
0600C0
1803F0
000000
000000
000000
ENDCHAR
STARTCHAR 2751
ENCODING 10065
SWIDTH 144 0
DWIDTH 24 0
BBX 24 24 0 -2
BITMAP
000000
000000
000000
000000
000000
000000
000000
000000
007C00
03C300
030180
000180
000180
001F80
00E180
030180
060180
060180
060180
030780
00F9E0
000000
000000
000000
ENDCHAR
STARTCHAR 2752
ENCODING 10066
SWIDTH 144 0
DWIDTH 24 0
BBX 24 24 0 -2
BITMAP
000000
000000
000040
003FC0
00FF80
018000
030000
020000
043C00
04C300
058180
0700C0
0700C0
060060
060060
060060
0300C0
0300C0
018180
00C300
003C00
000000
000000
000000
ENDCHAR
STARTCHAR 2753
ENCODING 10067
SWIDTH 144 0
DWIDTH 24 0
BBX 24 24 0 -2
BITMAP
000000
000000
000000
000000
000000
000000
000000
000000
07FE00
018180
0180C0
0180C0
0180C0
018180
01FE00
018180
0180C0
0180C0
0180C0
018180
07FE00
000000
000000
000000
ENDCHAR
STARTCHAR 2754
ENCODING 10068
SWIDTH 144 0
DWIDTH 24 0
BBX 24 24 0 -2
BITMAP
000000
000000
000000
000000
000000
000000
000000
000000
07FFC0
0180C0
018040
018020
018000
018000
018000
018000
018000
018000
018000
018000
07E000
000000
000000
000000
ENDCHAR
STARTCHAR 2755
ENCODING 10069
SWIDTH 144 0
DWIDTH 24 0
BBX 24 24 0 -2
BITMAP
000000
000000
000000
000000
000000
000000
000000
000000
00FFE0
002180
002180
002180
002180
002180
002180
006180
004180
004180
008180
010180
07FFE0
060060
040020
080010
ENDCHAR
STARTCHAR 2756
ENCODING 10070
SWIDTH 144 0
DWIDTH 24 0
BBX 24 24 0 -2
BITMAP
000000
000000
000000
000000
000000
000000
000000
000000
003C00
00C300
018180
030180
0300C0
07FFC0
060000
060000
030000
030000
018040
00C180
003E00
000000
000000
000000
ENDCHAR
STARTCHAR 2757
ENCODING 10071
SWIDTH 144 0
DWIDTH 24 0
BBX 24 24 0 -2
BITMAP
000000
000000
000000
01C380
01C380
01C380
000000
000000
003C00
00C300
018180
030180
0300C0
07FFC0
060000
060000
030000
030000
018040
00C180
003E00
000000
000000
000000
ENDCHAR
STARTCHAR 2758
ENCODING 10072
SWIDTH 144 0
DWIDTH 24 0
BBX 24 24 0 -2
BITMAP
000000
000000
000000
000000
000000
000000
000000
000000
187E18
1C1838
041820
061860
021840
011880
00FF00
019980
019980
0318C0
061860
061860
0C1830
3E7E7C
000000
000000
ENDCHAR
STARTCHAR 2759
ENCODING 10073
SWIDTH 144 0
DWIDTH 24 0
BBX 24 24 0 -2
BITMAP
000000
000000
000000
000000
000000
000000
000000
000000
007E00
03C380
0300C0
0200C0
0000C0
000180
007E00
000180
0000C0
0200C0
0300C0
03C180
007E00
000000
000000
000000
ENDCHAR
STARTCHAR 275a
ENCODING 10074
SWIDTH 144 0
DWIDTH 24 0
BBX 24 24 0 -2
BITMAP
000000
000000
000000
000000
000000
000000
000000
000000
0781E0
0300C0
0301C0
0302C0
0304C0
0308C0
0310C0
0320C0
0340C0
0380C0
0300C0
0300C0
0781E0
000000
000000
000000
ENDCHAR
STARTCHAR 275b
ENCODING 10075
SWIDTH 144 0
DWIDTH 24 0
BBX 24 24 0 -2
BITMAP
000000
000000
000000
006600
00E700
00C300
004200
003C00
0781E0
0300C0
0301C0
0302C0
0304C0
0308C0
0310C0
0320C0
0340C0
0380C0
0300C0
0300C0
0781E0
000000
000000
000000
ENDCHAR
STARTCHAR 275c
ENCODING 10076
SWIDTH 144 0
DWIDTH 24 0
BBX 24 24 0 -2
BITMAP
000000
000000
000000
000000
000000
000000
000000
000000
07E0C0
0181E0
018260
018400
019800
01F000
01B800
019C00
018E00
018700
018380
0181C0
07E3F0
000000
000000
000000
ENDCHAR
STARTCHAR 275d
ENCODING 10077
SWIDTH 144 0
DWIDTH 24 0
BBX 24 24 0 -2
BITMAP
000000
000000
000000
000000
000000
000000
000000
000000
00FFE0
002180
002180
002180
002180
002180
006180
004180
0C4180
1CC180
188180
190180
0E07E0
000000
000000
000000
ENDCHAR
STARTCHAR 275e
ENCODING 10078
SWIDTH 144 0
DWIDTH 24 0
BBX 24 24 0 -2
BITMAP
000000
000000
000000
000000
000000
000000
000000
000000
0F00F0
0700E0
058160
058160
04C260
04C260
04C260
046460
046460
043860
043860
041060
0F10F0
000000
000000
000000
ENDCHAR
STARTCHAR 275f
ENCODING 10079
SWIDTH 144 0
DWIDTH 24 0
BBX 24 24 0 -2
BITMAP
000000
000000
000000
000000
000000
000000
000000
000000
0781E0
0300C0
0300C0
0300C0
0300C0
03FFC0
0300C0
0300C0
0300C0
0300C0
0300C0
0300C0
0781E0
000000
000000
000000
ENDCHAR
STARTCHAR 2760
ENCODING 10080
SWIDTH 144 0
DWIDTH 24 0
BBX 24 24 0 -2
BITMAP
000000
000000
000000
000000
000000
000000
000000
000000
003C00
00C300
018180
0300C0
0300C0
060060
060060
060060
0300C0
0300C0
018180
00C300
003C00
000000
000000
000000
ENDCHAR
STARTCHAR 2761
ENCODING 10081
SWIDTH 144 0
DWIDTH 24 0
BBX 24 24 0 -2
BITMAP
000000
000000
000000
000000
000000
000000
000000
000000
07FFE0
018180
018180
018180
018180
018180
018180
018180
018180
018180
018180
018180
07C3E0
000000
000000
000000
ENDCHAR
STARTCHAR 2762
ENCODING 10082
SWIDTH 144 0
DWIDTH 24 0
BBX 24 24 0 -2
BITMAP
000000
000000
000000
000000
000000
000000
000000
000000
031E00
0F6180
0380C0
0300C0
030060
030060
030060
0300C0
0300C0
03C180
033E00
030000
030000
030000
030000
0FC000
ENDCHAR
STARTCHAR 2763
ENCODING 10083
SWIDTH 144 0
DWIDTH 24 0
BBX 24 24 0 -2
BITMAP
000000
000000
000000
000000
000000
000000
000000
000000
003E00
00C180
0180C0
0300C0
030000
060000
060000
060000
030000
030000
018040
00C180
003E00
000000
000000
000000
ENDCHAR
STARTCHAR 2764
ENCODING 10084
SWIDTH 144 0
DWIDTH 24 0
BBX 24 24 0 -2
BITMAP
000000
000000
000000
000000
000000
000000
000000
000000
03FFC0
0318C0
021840
041820
001800
001800
001800
001800
001800
001800
001800
001800
007E00
000000
000000
000000
ENDCHAR
STARTCHAR 2765
ENCODING 10085
SWIDTH 144 0
DWIDTH 24 0
BBX 24 24 0 -2
BITMAP
000000
000000
000000
000000
000000
000000
000000
000000
07E1F0
018040
018040
00C080
00C080
00C100
006100
006200
003200
003400
003400
001800
001800
061000
062000
03C000
ENDCHAR
STARTCHAR 2766
ENCODING 10086
SWIDTH 144 0
DWIDTH 24 0
BBX 24 24 0 -2
BITMAP
000000
000000
001800
007800
001800
001800
001800
001800
01DB80
023C40
061860
041820
0C1830
0C1830
0C1830
0C1830
0C1830
041820
061860
023C40
01DB80
001800
001800
007E00
ENDCHAR
STARTCHAR 2767
ENCODING 10087
SWIDTH 144 0
DWIDTH 24 0
BBX 24 24 0 -2
BITMAP
000000
000000
000000
000000
000000
000000
000000
000000
0FE3F0
038080
01C100
00E200
007400
003800
001C00
002E00
004700
008380
0101C0
0200E0
0F83F8
000000
000000
000000
ENDCHAR
STARTCHAR 2768
ENCODING 10088
SWIDTH 144 0
DWIDTH 24 0
BBX 24 24 0 -2
BITMAP
000000
000000
000000
000000
000000
000000
000000
000000
07C3E0
018180
018180
018180
018180
018180
018180
018180
018180
018180
018180
018180
07FFE0
000060
000020
000010
ENDCHAR
STARTCHAR 2769
ENCODING 10089
SWIDTH 144 0
DWIDTH 24 0
BBX 24 24 0 -2
BITMAP
000000
000000
000000
000000
000000
000000
000000
000000
07C3E0
018180
018180
018180
018180
018180
00C380
003D80
000180
000180
000180
000180
0007E0
000000
000000
000000
ENDCHAR
STARTCHAR 276a
ENCODING 10090
SWIDTH 144 0
DWIDTH 24 0
BBX 24 24 0 -2
BITMAP
000000
000000
000000
000000
000000
000000
000000
000000
0F3CF0
061860
061860
061860
061860
061860
061860
061860
061860
061860
061860
061860
0FFFF0
000000
000000
000000
ENDCHAR
STARTCHAR 276b
ENCODING 10091
SWIDTH 144 0
DWIDTH 24 0
BBX 24 24 0 -2
BITMAP
000000
000000
000000
000000
000000
000000
000000
000000
0F3CF0
061860
061860
061860
061860
061860
061860
061860
061860
061860
061860
061860
0FFFF8
000018
000008
000004
ENDCHAR
STARTCHAR 276c
ENCODING 10092
SWIDTH 144 0
DWIDTH 24 0
BBX 24 24 0 -2
BITMAP
000000
000000
000000
000000
000000
000000
000000
000000
0FFC00
0C3000
083000
103000
003000
003FC0
003030
003018
003018
003018
003018
003030
00FFC0
000000
000000
000000
ENDCHAR
STARTCHAR 276d
ENCODING 10093
SWIDTH 144 0
DWIDTH 24 0
BBX 24 24 0 -2
BITMAP
000000
000000
000000
000000
000000
000000
000000
000000
1F81F8
060060
060060
060060
060060
07E060
061860
060C60
060C60
060C60
060C60
061860
1FE1F8
000000
000000
000000
ENDCHAR
STARTCHAR 276e
ENCODING 10094
SWIDTH 144 0
DWIDTH 24 0
BBX 24 24 0 -2
BITMAP
000000
000000
000000
000000
000000
000000
000000
000000
03F000
00C000
00C000
00C000
00C000
00FF00
00C0C0
00C060
00C060
00C060
00C060
00C0C0
03FF00
000000
000000
000000
ENDCHAR
STARTCHAR 276f
ENCODING 10095
SWIDTH 144 0
DWIDTH 24 0
BBX 24 24 0 -2
BITMAP
000000
000000
000000
000000
000000
000000
000000
000000
007E00
01C180
0180C0
010060
001860
003FB0
004630
000030
000060
000060
0100C0
00C180
003E00
000000
000000
000000
ENDCHAR
STARTCHAR 2770
ENCODING 10096
SWIDTH 144 0
DWIDTH 24 0
BBX 24 24 0 -2
BITMAP
000000
000000
000000
000000
000000
000000
000000
000000
1F8380
060C60
061830
061830
063018
07F018
063018
063018
063018
061830
061830
060C60
1F8380
000000
000000
000000
ENDCHAR
STARTCHAR 2771
ENCODING 10097
SWIDTH 144 0
DWIDTH 24 0
BBX 24 24 0 -2
BITMAP
000000
000000
000000
000000
000000
000000
000000
000000
007FE0
018180
030180
030180
030180
018180
007F80
006180
00E180
00C180
01C180
018180
0787E0
000000
000000
000000
ENDCHAR
STARTCHAR 2821
ENCODING 10273
SWIDTH 144 0
DWIDTH 24 0
BBX 24 24 0 -2
BITMAP
000000
000000
000000
000000
000000
000000
000000
000000
000000
000000
000000
FFFFFF
000000
000000
000000
000000
000000
000000
000000
000000
000000
000000
000000
000000
ENDCHAR
STARTCHAR 2822
ENCODING 10274
SWIDTH 144 0
DWIDTH 24 0
BBX 24 24 0 -2
BITMAP
001000
001000
001000
001000
001000
001000
001000
001000
001000
001000
001000
001000
001000
001000
001000
001000
001000
001000
001000
001000
001000
001000
001000
001000
ENDCHAR
STARTCHAR 2823
ENCODING 10275
SWIDTH 144 0
DWIDTH 24 0
BBX 24 24 0 -2
BITMAP
000000
000000
000000
000000
000000
000000
000000
000000
000000
000000
000000
001FFF
001000
001000
001000
001000
001000
001000
001000
001000
001000
001000
001000
001000
ENDCHAR
STARTCHAR 2824
ENCODING 10276
SWIDTH 144 0
DWIDTH 24 0
BBX 24 24 0 -2
BITMAP
000000
000000
000000
000000
000000
000000
000000
000000
000000
000000
000000
FFF000
001000
001000
001000
001000
001000
001000
001000
001000
001000
001000
001000
001000
ENDCHAR
STARTCHAR 2825
ENCODING 10277
SWIDTH 144 0
DWIDTH 24 0
BBX 24 24 0 -2
BITMAP
001000
001000
001000
001000
001000
001000
001000
001000
001000
001000
001000
FFF000
000000
000000
000000
000000
000000
000000
000000
000000
000000
000000
000000
000000
ENDCHAR
STARTCHAR 2826
ENCODING 10278
SWIDTH 144 0
DWIDTH 24 0
BBX 24 24 0 -2
BITMAP
001000
001000
001000
001000
001000
001000
001000
001000
001000
001000
001000
001FFF
000000
000000
000000
000000
000000
000000
000000
000000
000000
000000
000000
000000
ENDCHAR
STARTCHAR 2827
ENCODING 10279
SWIDTH 144 0
DWIDTH 24 0
BBX 24 24 0 -2
BITMAP
001000
001000
001000
001000
001000
001000
001000
001000
001000
001000
001000
001FFF
001000
001000
001000
001000
001000
001000
001000
001000
001000
001000
001000
001000
ENDCHAR
STARTCHAR 2828
ENCODING 10280
SWIDTH 144 0
DWIDTH 24 0
BBX 24 24 0 -2
BITMAP
000000
000000
000000
000000
000000
000000
000000
000000
000000
000000
000000
FFFFFF
001000
001000
001000
001000
001000
001000
001000
001000
001000
001000
001000
001000
ENDCHAR
STARTCHAR 2829
ENCODING 10281
SWIDTH 144 0
DWIDTH 24 0
BBX 24 24 0 -2
BITMAP
001000
001000
001000
001000
001000
001000
001000
001000
001000
001000
001000
FFF000
001000
001000
001000
001000
001000
001000
001000
001000
001000
001000
001000
001000
ENDCHAR
STARTCHAR 282a
ENCODING 10282
SWIDTH 144 0
DWIDTH 24 0
BBX 24 24 0 -2
BITMAP
001000
001000
001000
001000
001000
001000
001000
001000
001000
001000
001000
FFFFFF
000000
000000
000000
000000
000000
000000
000000
000000
000000
000000
000000
000000
ENDCHAR
STARTCHAR 282b
ENCODING 10283
SWIDTH 144 0
DWIDTH 24 0
BBX 24 24 0 -2
BITMAP
001000
001000
001000
001000
001000
001000
001000
001000
001000
001000
001000
FFFFFF
001000
001000
001000
001000
001000
001000
001000
001000
001000
001000
001000
001000
ENDCHAR
STARTCHAR 282c
ENCODING 10284
SWIDTH 144 0
DWIDTH 24 0
BBX 24 24 0 -2
BITMAP
000000
000000
000000
000000
000000
000000
000000
000000
000000
000000
FFFFFF
FFFFFF
FFFFFF
000000
000000
000000
000000
000000
000000
000000
000000
000000
000000
000000
ENDCHAR
STARTCHAR 282d
ENCODING 10285
SWIDTH 144 0
DWIDTH 24 0
BBX 24 24 0 -2
BITMAP
003800
003800
003800
003800
003800
003800
003800
003800
003800
003800
003800
003800
003800
003800
003800
003800
003800
003800
003800
003800
003800
003800
003800
003800
ENDCHAR
STARTCHAR 282e
ENCODING 10286
SWIDTH 144 0
DWIDTH 24 0
BBX 24 24 0 -2
BITMAP
000000
000000
000000
000000
000000
000000
000000
000000
000000
000000
003FFF
003FFF
003FFF
003800
003800
003800
003800
003800
003800
003800
003800
003800
003800
003800
ENDCHAR
STARTCHAR 282f
ENCODING 10287
SWIDTH 144 0
DWIDTH 24 0
BBX 24 24 0 -2
BITMAP
000000
000000
000000
000000
000000
000000
000000
000000
000000
000000
FFF800
FFF800
FFF800
003800
003800
003800
003800
003800
003800
003800
003800
003800
003800
003800
ENDCHAR
STARTCHAR 2830
ENCODING 10288
SWIDTH 144 0
DWIDTH 24 0
BBX 24 24 0 -2
BITMAP
003800
003800
003800
003800
003800
003800
003800
003800
003800
003800
FFF800
FFF800
FFF800
000000
000000
000000
000000
000000
000000
000000
000000
000000
000000
000000
ENDCHAR
STARTCHAR 2831
ENCODING 10289
SWIDTH 144 0
DWIDTH 24 0
BBX 24 24 0 -2
BITMAP
003800
003800
003800
003800
003800
003800
003800
003800
003800
003800
003FFF
003FFF
003FFF
000000
000000
000000
000000
000000
000000
000000
000000
000000
000000
000000
ENDCHAR
STARTCHAR 2832
ENCODING 10290
SWIDTH 144 0
DWIDTH 24 0
BBX 24 24 0 -2
BITMAP
003800
003800
003800
003800
003800
003800
003800
003800
003800
003800
003FFF
003FFF
003FFF
003800
003800
003800
003800
003800
003800
003800
003800
003800
003800
003800
ENDCHAR
STARTCHAR 2833
ENCODING 10291
SWIDTH 144 0
DWIDTH 24 0
BBX 24 24 0 -2
BITMAP
000000
000000
000000
000000
000000
000000
000000
000000
000000
000000
FFFFFF
FFFFFF
FFFFFF
003800
003800
003800
003800
003800
003800
003800
003800
003800
003800
003800
ENDCHAR
STARTCHAR 2834
ENCODING 10292
SWIDTH 144 0
DWIDTH 24 0
BBX 24 24 0 -2
BITMAP
003800
003800
003800
003800
003800
003800
003800
003800
003800
003800
FFF800
FFF800
FFF800
003800
003800
003800
003800
003800
003800
003800
003800
003800
003800
003800
ENDCHAR
STARTCHAR 2835
ENCODING 10293
SWIDTH 144 0
DWIDTH 24 0
BBX 24 24 0 -2
BITMAP
003800
003800
003800
003800
003800
003800
003800
003800
003800
003800
FFFFFF
FFFFFF
FFFFFF
000000
000000
000000
000000
000000
000000
000000
000000
000000
000000
000000
ENDCHAR
STARTCHAR 2836
ENCODING 10294
SWIDTH 144 0
DWIDTH 24 0
BBX 24 24 0 -2
BITMAP
003800
003800
003800
003800
003800
003800
003800
003800
003800
003800
FFFFFF
FFFFFF
FFFFFF
003800
003800
003800
003800
003800
003800
003800
003800
003800
003800
003800
ENDCHAR
STARTCHAR 2837
ENCODING 10295
SWIDTH 144 0
DWIDTH 24 0
BBX 24 24 0 -2
BITMAP
003800
003800
003800
003800
003800
003800
003800
003800
003800
003800
003800
003FFF
003800
003800
003800
003800
003800
003800
003800
003800
003800
003800
003800
003800
ENDCHAR
STARTCHAR 2838
ENCODING 10296
SWIDTH 144 0
DWIDTH 24 0
BBX 24 24 0 -2
BITMAP
000000
000000
000000
000000
000000
000000
000000
000000
000000
000000
FFFFFF
FFFFFF
FFFFFF
001000
001000
001000
001000
001000
001000
001000
001000
001000
001000
001000
ENDCHAR
STARTCHAR 2839
ENCODING 10297
SWIDTH 144 0
DWIDTH 24 0
BBX 24 24 0 -2
BITMAP
003800
003800
003800
003800
003800
003800
003800
003800
003800
003800
003800
FFF800
003800
003800
003800
003800
003800
003800
003800
003800
003800
003800
003800
003800
ENDCHAR
STARTCHAR 283a
ENCODING 10298
SWIDTH 144 0
DWIDTH 24 0
BBX 24 24 0 -2
BITMAP
001000
001000
001000
001000
001000
001000
001000
001000
001000
001000
FFFFFF
FFFFFF
FFFFFF
000000
000000
000000
000000
000000
000000
000000
000000
000000
000000
000000
ENDCHAR
STARTCHAR 283b
ENCODING 10299
SWIDTH 144 0
DWIDTH 24 0
BBX 24 24 0 -2
BITMAP
001000
001000
001000
001000
001000
001000
001000
001000
001000
001000
FFFFFF
FFFFFF
FFFFFF
001000
001000
001000
001000
001000
001000
001000
001000
001000
001000
001000
ENDCHAR
STARTCHAR 283c
ENCODING 10300
SWIDTH 144 0
DWIDTH 24 0
BBX 24 24 0 -2
BITMAP
001000
001000
001000
001000
001000
001000
001000
001000
001000
001000
001FFF
001FFF
001FFF
001000
001000
001000
001000
001000
001000
001000
001000
001000
001000
001000
ENDCHAR
STARTCHAR 283d
ENCODING 10301
SWIDTH 144 0
DWIDTH 24 0
BBX 24 24 0 -2
BITMAP
000000
000000
000000
000000
000000
000000
000000
000000
000000
000000
000000
FFFFFF
003800
003800
003800
003800
003800
003800
003800
003800
003800
003800
003800
003800
ENDCHAR
STARTCHAR 283e
ENCODING 10302
SWIDTH 144 0
DWIDTH 24 0
BBX 24 24 0 -2
BITMAP
001000
001000
001000
001000
001000
001000
001000
001000
001000
001000
FFF000
FFF000
FFF000
001000
001000
001000
001000
001000
001000
001000
001000
001000
001000
001000
ENDCHAR
STARTCHAR 283f
ENCODING 10303
SWIDTH 144 0
DWIDTH 24 0
BBX 24 24 0 -2
BITMAP
003800
003800
003800
003800
003800
003800
003800
003800
003800
003800
003800
FFFFFF
000000
000000
000000
000000
000000
000000
000000
000000
000000
000000
000000
000000
ENDCHAR
STARTCHAR 2840
ENCODING 10304
SWIDTH 144 0
DWIDTH 24 0
BBX 24 24 0 -2
BITMAP
003800
003800
003800
003800
003800
003800
003800
003800
003800
003800
003800
FFFFFF
003800
003800
003800
003800
003800
003800
003800
003800
003800
003800
003800
003800
ENDCHAR
STARTCHAR 3021
ENCODING 12321
SWIDTH 144 0
DWIDTH 24 0
BBX 24 24 0 -2
BITMAP
000006
FFFFFF
00C300
00C300
00C300
00C300
20C30C
3FFFFE
30C30C
30C30C
30C30C
30C30C
30C30C
30C30C
3FFFFC
30C30C
00C300
00C300
00C300
00C300
00C300
00C306
FFFFFF
000000
ENDCHAR
STARTCHAR 3022
ENCODING 12322
SWIDTH 144 0
DWIDTH 24 0
BBX 24 24 0 -2
BITMAP
000006
00FFFF
460660
7F0660
660660
660660
664666
667FFF
666666
666666
666666
666666
666666
666666
667FFE
666666
7E0660
660660
600660
000660
000660
000666
01FFFF
000000
ENDCHAR
STARTCHAR 3023
ENCODING 12323
SWIDTH 144 0
DWIDTH 24 0
BBX 24 24 0 -2
BITMAP
0E00E0
0C00C0
0C00C0
0C00CC
0C0FFE
0CC0C0
FFE0C0
18C0C0
18C0C6
18DFFF
18C000
198000
3180E0
3180C0
3100CC
330FFE
6A00C0
6600C0
0700C0
0D80C0
08C0C0
10C0C6
203FFF
C00000
ENDCHAR
STARTCHAR 3024
ENCODING 12324
SWIDTH 144 0
DWIDTH 24 0
BBX 24 24 0 -2
BITMAP
430000
7F8006
637FFF
630018
620018
660018
642198
643FD8
683198
643198
663198
623198
633198
633198
633F98
633198
633018
6F0018
660018
600018
600018
600018
6000F8
600030
ENDCHAR
STARTCHAR 3025
ENCODING 12325
SWIDTH 144 0
DWIDTH 24 0
BBX 24 24 0 -2
BITMAP
001C00
001800
001806
FFFFFF
000000
040060
07FFF0
060060
060060
060060
060060
060060
07FFE0
066860
00E410
01C41C
038238
0D8140
318180
C180C0
018E70
3FF03F
1F001E
100006
ENDCHAR
STARTCHAR 3026
ENCODING 12326
SWIDTH 144 0
DWIDTH 24 0
BBX 24 24 0 -2
BITMAP
000078
001FFC
3FFC40
042070
231860
210886
7FFFFF
601006
C1C848
C98CA0
098C98
1180CC
31FFCC
30FF80
008000
00C0C0
01FFE0
0381C0
074380
0C2600
301C00
0067C0
0780FF
78001E
ENDCHAR
STARTCHAR 3027
ENCODING 12327
SWIDTH 144 0
DWIDTH 24 0
BBX 24 24 0 -2
BITMAP
0E0400
0C0700
0C0620
0C0610
0C0418
0D88EC
FFFF0C
0C380C
0C2000
0C1C00
0C9818
0F1FFC
1C3300
FC4300
6C0306
4DFFFF
0C0680
0C0680
0C0440
0C0C60
0C0838
0C101F
7C600E
198006
ENDCHAR
STARTCHAR 3028
ENCODING 12328
SWIDTH 144 0
DWIDTH 24 0
BBX 24 24 0 -2
BITMAP
0E0180
0C0180
0C0180
0C0340
0C0340
0CC220
FFE630
18C418
18CC1C
18C80F
18D026
19A7F0
318000
318000
310818
330FFC
6A0C18
660C18
070C18
0D8C18
08CC18
10CC18
200FF8
C00C18
ENDCHAR
STARTCHAR 3029
ENCODING 12329
SWIDTH 144 0
DWIDTH 24 0
BBX 24 24 0 -2
BITMAP
000800
400E00
300C60
181FF0
0C1060
0C28C0
00C580
000300
000CE0
00303F
0CC30E
FE3FF0
0C0300
0C0300
0C3FF0
0C0300
0C0300
0CFFFC
0C0300
0C0300
1A0000
F1FFFF
607FFE
400000
ENDCHAR
STARTCHAR 302a
ENCODING 12330
SWIDTH 144 0
DWIDTH 24 0
BBX 24 24 0 -2
BITMAP
01C1C0
018180
018186
FFFFFF
018180
018180
001840
0FF870
003C68
10728E
0CE10C
0D80C8
030670
0CFF3F
30180E
C01806
001830
1FFFF8
003400
006200
00C1C0
0180FE
06003C
38000C
ENDCHAR
STARTCHAR 302b
ENCODING 12331
SWIDTH 144 0
DWIDTH 24 0
BBX 24 24 0 -2
BITMAP
01C380
018300
018306
FFFFFF
018300
018300
000006
FFFFFF
00C600
00C600
20C60C
3FFFFE
30C60C
30C60C
31860C
3187FC
3303FC
36000C
38000C
30000C
30000C
3FFFFC
30000C
30000C
ENDCHAR
STARTCHAR 302c
ENCODING 12332
SWIDTH 144 0
DWIDTH 24 0
BBX 24 24 0 -2
BITMAP
018800
0FCC60
FC0FF0
0C1860
0C3040
0CFFF8
0C2308
FFA308
0C3FF8
0C2308
1F2308
1DBFF8
1D8300
3C7FFC
2C4304
2C4304
6C7FFC
4C4304
8C4304
0C7FFC
0C0302
0C0303
0C03FF
0C01FE
ENDCHAR
STARTCHAR 302d
ENCODING 12333
SWIDTH 144 0
DWIDTH 24 0
BBX 24 24 0 -2
BITMAP
00000C
7FFFFE
00C300
00C300
10C318
1FFFFC
18C318
18C318
18C318
18C318
1FFFF8
18C318
00C300
00C306
FFFFFF
001000
11CC10
11864C
218647
618043
E1C0E3
C1FFE0
00FFC0
000000
ENDCHAR
STARTCHAR 302e
ENCODING 12334
SWIDTH 144 0
DWIDTH 24 0
BBX 24 24 0 -2
BITMAP
1C4006
187FFF
186006
186006
186006
1B7FFE
FFE000
18600C
186FFE
186180
186190
196108
1E620C
F86FF6
786706
5864E0
18C0C0
18C0CC
18CFFE
1880C0
1980C0
1900C6
FA3FFF
300000
ENDCHAR
STARTCHAR 302f
ENCODING 12335
SWIDTH 144 0
DWIDTH 24 0
BBX 24 24 0 -2
BITMAP
208006
18FFFF
0CC006
0CC006
00C006
00FFFE
80C000
44C00C
64DFFE
64C300
04C320
08C218
08C40C
08DFF6
18CF06
1989C0
318180
F1818C
711FFE
330180
320180
340186
387FFF
180000
ENDCHAR
STARTCHAR 3030
ENCODING 12336
SWIDTH 144 0
DWIDTH 24 0
BBX 24 24 0 -2
BITMAP
0E0000
0C0418
0C07FC
0C0618
0C6618
FFF618
0C6618
0C6618
0C67F8
0C6618
0C6618
0C6618
0C6618
0C6618
1C6618
1867F8
18661A
18661A
106002
306002
207007
207FFF
403FFE
800000
ENDCHAR
STARTCHAR 3031
ENCODING 12337
SWIDTH 144 0
DWIDTH 24 0
BBX 24 24 0 -2
BITMAP
01C1C0
018186
FFFFFF
018180
01B980
003060
1FFFF0
003060
003066
FFFFFF
000000
07FFE0
060060
060060
07FFE0
000600
000630
0FFFF8
030600
030606
FFFFFF
000600
000600
000600
ENDCHAR
STARTCHAR 3032
ENCODING 12338
SWIDTH 144 0
DWIDTH 24 0
BBX 24 24 0 -2
BITMAP
01C1C0
018180
018186
FFFFFF
018180
018180
00000C
7FFFFE
000000
000000
0FFFF0
0C0030
0C0030
0C0030
0C0030
0FFFF0
0C0030
0C0000
080000
180000
100000
100000
200000
C00000
ENDCHAR
STARTCHAR 3033
ENCODING 12339
SWIDTH 144 0
DWIDTH 24 0
BBX 24 24 0 -2
BITMAP
100100
1C01C0
180190
198308
1FC20C
119FF6
310E06
220180
7F8186
A4BFFF
248320
248610
3F841C
24888F
24B1C6
248300
3F8C20
000070
0080C4
2AC70E
2AC01C
6A4070
CA01C0
C01E00
ENDCHAR
STARTCHAR 3034
ENCODING 12340
SWIDTH 144 0
DWIDTH 24 0
BBX 24 24 0 -2
BITMAP
0E01C0
0C0180
0C018C
0C3FFE
0C8020
FFC838
0C0430
0C0630
0C0620
1E0620
1D8040
1CC046
3CFFFF
2CC180
2C0180
6C0180
4C018C
8C3FFE
0C0180
0C0180
0C0180
0C0180
0C0180
0C0180
ENDCHAR
STARTCHAR 3035
ENCODING 12341
SWIDTH 144 0
DWIDTH 24 0
BBX 24 24 0 -2
BITMAP
100006
1FFFFF
180000
180000
180700
180600
180600
180600
180600
180600
180600
18060C
1BFFFE
180600
180600
180600
380600
300600
300600
300600
200600
600606
4FFFFF
800000
ENDCHAR
STARTCHAR 3036
ENCODING 12342
SWIDTH 144 0
DWIDTH 24 0
BBX 24 24 0 -2
BITMAP
0E00E0
0C00C0
0C60C0
FFF1A0
0C01A0
4CC310
7FE318
60C60C
60C40F
60CA36
7FD130
60C1B0
60C1B0
60C830
7FC430
6CC630
0C0636
0C603F
FFF0F0
0C07B0
0C1C30
0C0030
0C0030
0C0030
ENDCHAR
STARTCHAR 3037
ENCODING 12343
SWIDTH 144 0
DWIDTH 24 0
BBX 24 24 0 -2
BITMAP
1C0060
18FFF0
181860
181860
181860
1B1860
FF9860
1818C0
1834C0
1834CC
1834FE
1934CC
1E320C
F83218
783318
586130
1861B0
1860E0
1840C0
18C1E0
188338
18861F
F9180E
326006
ENDCHAR
STARTCHAR 3038
ENCODING 12344
SWIDTH 144 0
DWIDTH 24 0
BBX 24 24 0 -2
BITMAP
001C00
201800
201806
3FFFFF
600006
640004
C70008
C60000
066418
0FF7FC
0C6618
186618
306618
68C618
86C618
06C618
018618
0186FA
030632
060602
0C0607
1807FF
3003FE
C00000
ENDCHAR
STARTCHAR 3039
ENCODING 12345
SWIDTH 144 0
DWIDTH 24 0
BBX 24 24 0 -2
BITMAP
0E0418
0C07FC
0C0618
0C0618
0C0618
0CC618
FFE618
18C618
18C7F8
18C618
18C618
198618
318618
318618
310618
3307F8
6A0618
660618
070618
0D8618
08C618
10C61A
203FFF
C00000
ENDCHAR
STARTCHAR 303a
ENCODING 12346
SWIDTH 144 0
DWIDTH 24 0
BBX 24 24 0 -2
BITMAP
0700E0
0600C0
0600C0
0600C0
4660C0
7FF0C6
666FFF
666300
666300
666300
666300
666300
666300
666300
7FE300
666300
660300
068300
064300
066300
07B300
FE33FE
7031FE
400000
ENDCHAR
STARTCHAR 303b
ENCODING 12347
SWIDTH 144 0
DWIDTH 24 0
BBX 24 24 0 -2
BITMAP
060080
0600E0
0D00C0
0CC0C0
186180
176188
260104
460306
BFC21B
30DFE3
30CF03
3FC800
30C000
30C406
30C7FF
3FC606
30C606
310606
308606
30C606
336606
FC67FE
706606
400606
ENDCHAR
STARTCHAR 303c
ENCODING 12348
SWIDTH 144 0
DWIDTH 24 0
BBX 24 24 0 -2
BITMAP
080800
0E0E00
0C0C00
080C00
921806
639FFF
333006
362006
0C4866
090FF6
108C66
FFCC66
7CCC66
4CCFE6
0C0C66
4C0C66
7D0C66
6C8FE6
6CCC66
4CCC0E
4CC00C
8C000C
0C00FC
0C0038
ENDCHAR
STARTCHAR 303d
ENCODING 12349
SWIDTH 144 0
DWIDTH 24 0
BBX 24 24 0 -2
BITMAP
0801C0
0E0180
0C0184
083FFE
920180
638182
337FFF
360630
0C0630
0A0C30
110A3F
FF939F
7DA300
4D8618
0C07FC
4C0C18
7D1438
6CA270
6CC2E0
4CC1C0
4CC370
8C063F
0C181E
0CE006
ENDCHAR
STARTCHAR 303e
ENCODING 12350
SWIDTH 144 0
DWIDTH 24 0
BBX 24 24 0 -2
BITMAP
0800E0
0E00C0
0C00C0
0CC0C0
1FE0C0
18C0C6
3080FF
2100C0
7FE0C0
B260C0
3260C0
3260C0
3FE4CC
3267FE
32660C
32660C
3FE60C
00060C
00260C
29360C
24B60C
64960C
C487FC
C0060C
ENDCHAR
STARTCHAR 303f
ENCODING 12351
SWIDTH 144 0
DWIDTH 24 0
BBX 24 24 0 -2
BITMAP
000E80
000C60
000C30
000C30
000C06
FFFFFF
000C00
000C00
20CC10
3FE61C
30C618
30C618
30C630
30C330
30C320
3FC160
30C1C0
300082
0031C2
03C362
FE0672
700C3F
40301F
01C006
ENDCHAR
STARTCHAR 3040
ENCODING 12352
SWIDTH 144 0
DWIDTH 24 0
BBX 24 24 0 -2
BITMAP
000006
FFFFFF
00C300
00C300
20C30C
3FFFFE
30C30C
30C30C
30C30C
3FFFFC
30000C
041C80
0318E0
0198C0
019906
FFFFFF
007A00
00D900
01D8C0
039870
07183F
1C181E
E01806
001800
ENDCHAR
STARTCHAR 3041
ENCODING 12353
SWIDTH 144 0
DWIDTH 24 0
BBX 24 24 0 -2
BITMAP
0E0180
0C0180
0C0180
0C0340
0D8340
FFC220
018630
030418
030C1C
06880F
04D026
0CA7F0
1D0000
2E0000
CD8818
0CCFFC
0CCC18
0C0C18
0C0C18
0C0C18
0C0C18
0C0C18
0C0FF8
0C0C18
ENDCHAR
STARTCHAR 3042
ENCODING 12354
SWIDTH 144 0
DWIDTH 24 0
BBX 24 24 0 -2
BITMAP
001C00
101800
101806
3FFFFF
30000C
602008
603810
003000
006000
006000
00C006
FFFFFF
00C0C0
0180C0
018180
030180
06C300
0E3600
0C0C00
001B80
0070E0
00C038
07001C
78000C
ENDCHAR
STARTCHAR 3043
ENCODING 12355
SWIDTH 144 0
DWIDTH 24 0
BBX 24 24 0 -2
BITMAP
001C00
001800
201806
3FFFFF
301000
301C00
30180C
3FFFFE
303080
306040
30CC60
318C30
33FFFC
3D8C6F
318C66
31FFE0
318C60
318C60
218C60
61FFE2
618C02
400C03
800FFF
0007FE
ENDCHAR
STARTCHAR 3044
ENCODING 12356
SWIDTH 144 0
DWIDTH 24 0
BBX 24 24 0 -2
BITMAP
1C01C0
180180
182180
182186
187FFF
1B6006
FFC404
18C708
180600
180600
180606
18FFFF
1E0C30
F80C30
780C30
581860
181860
1834C0
1832C0
180180
180360
180638
F8181C
30E00C
ENDCHAR
STARTCHAR 3045
ENCODING 12357
SWIDTH 144 0
DWIDTH 24 0
BBX 24 24 0 -2
BITMAP
0001C0
000180
43018C
7FBFFE
630020
630838
630430
630660
630640
630086
7F7FFF
630000
631018
631FFC
631818
631818
631818
7F1FF8
631818
601818
001818
001818
001FF8
001818
ENDCHAR
STARTCHAR 3046
ENCODING 12358
SWIDTH 144 0
DWIDTH 24 0
BBX 24 24 0 -2
BITMAP
001C00
101800
101806
3FFFFF
602006
603808
007006
FFFFFF
01C1C0
038380
077600
061F80
0071E0
038070
3C1C30
001806
FFFFFF
007A00
00F980
01D8E0
07187F
1C181E
E01806
001800
ENDCHAR
STARTCHAR 3047
ENCODING 12359
SWIDTH 144 0
DWIDTH 24 0
BBX 24 24 0 -2
BITMAP
406406
7FF7FF
606606
606606
7FE7FE
606606
606606
7FE7FE
601806
601806
63FFC6
608306
604206
6FFFF6
600006
61FF86
618186
618186
61FF86
618186
618186
61FF86
6181BE
60000C
ENDCHAR
STARTCHAR 3048
ENCODING 12360
SWIDTH 144 0
DWIDTH 24 0
BBX 24 24 0 -2
BITMAP
1DC0E0
1980C0
19A4C0
FFF4C6
198FFF
198C06
1F9904
0619C8
466180
7FE180
666186
667FFF
666318
666318
666318
7FE630
666630
060DB0
066C60
FFF070
0600DC
06018E
060606
061806
ENDCHAR
STARTCHAR 3049
ENCODING 12361
SWIDTH 144 0
DWIDTH 24 0
BBX 24 24 0 -2
BITMAP
001C00
001800
001800
001806
FFFFFF
007A00
00D900
01D980
0398C0
071870
0C183F
30181E
C01806
000000
040060
07FFF0
060060
060060
060060
060060
060060
060060
07FFE0
060060
ENDCHAR
STARTCHAR 304a
ENCODING 12362
SWIDTH 144 0
DWIDTH 24 0
BBX 24 24 0 -2
BITMAP
1C001C
180018
184018
183018
181C18
180E18
180618
180618
180018
180018
180018
180018
180018
180018
180818
181030
186030
18C030
1B8068
1E00C6
FC0187
700603
401803
00E000
ENDCHAR
STARTCHAR 304b
ENCODING 12363
SWIDTH 144 0
DWIDTH 24 0
BBX 24 24 0 -2
BITMAP
020000
03800C
033FFE
07030C
06030C
06030C
0C030C
0C030C
1CFFFF
1C030C
2C030C
4C030C
8C030C
0C030C
0C7FFC
0C030C
0C0300
0C0300
0C0600
0C0600
0C0C00
0C1800
0C3000
0CC000
ENDCHAR
STARTCHAR 304c
ENCODING 12364
SWIDTH 144 0
DWIDTH 24 0
BBX 24 24 0 -2
BITMAP
040380
070300
060300
060300
0C030C
0CFFFE
0C0000
180020
180038
384030
382030
582030
981030
181060
181860
181860
181840
181840
181840
181080
180080
180086
1BFFFF
180000
ENDCHAR
STARTCHAR 304d
ENCODING 12365
SWIDTH 144 0
DWIDTH 24 0
BBX 24 24 0 -2
BITMAP
040380
070300
060300
060300
0C0306
0DFFFF
0C0600
180600
180D00
380D04
381907
58108E
983098
1870A0
18B0C0
1B3040
183060
183020
183030
183098
18371F
19FC0E
18E006
188000
ENDCHAR
STARTCHAR 304e
ENCODING 12366
SWIDTH 144 0
DWIDTH 24 0
BBX 24 24 0 -2
BITMAP
040700
070600
060630
067FF8
0C0C30
0C0C32
0DFFFF
180000
184018
387FFC
386018
586018
987FF8
186000
1800E0
1800C8
18FFFC
1830C0
1830C0
1830C6
1BFFFF
1800C0
1800C0
1800C0
ENDCHAR
STARTCHAR 304f
ENCODING 12367
SWIDTH 144 0
DWIDTH 24 0
BBX 24 24 0 -2
BITMAP
400006
7FFFFF
600006
60E386
60C306
60C306
60C366
6FFFF6
60C306
60C306
60C306
60C306
60C366
6FFFF6
60C306
60C306
618306
618306
610306
620306
640306
600006
7FFFFE
600006
ENDCHAR
STARTCHAR 3050
ENCODING 12368
SWIDTH 144 0
DWIDTH 24 0
BBX 24 24 0 -2
BITMAP
001C00
001800
001806
FFFFFF
001800
001818
3FFFFC
001818
101818
1FFFF8
181818
181800
181806
3FFFFF
303406
303206
007206
00613E
00E18C
01C0C0
038070
07003F
1C001E
E00006
ENDCHAR
STARTCHAR 3051
ENCODING 12369
SWIDTH 144 0
DWIDTH 24 0
BBX 24 24 0 -2
BITMAP
0000F0
001FF8
3FFF00
001800
001806
FFFFFF
007A00
00F900
01D8C0
039870
06183F
18201E
E03806
007000
006006
FFFFFF
00C180
01C380
038300
077600
060FC0
0038F8
01E03C
7E000C
ENDCHAR
STARTCHAR 3052
ENCODING 12370
SWIDTH 144 0
DWIDTH 24 0
BBX 24 24 0 -2
BITMAP
000740
000630
000630
200606
3FFFFF
300600
302600
37F600
300600
310310
31C31C
318B18
3FFF18
333198
3231B0
3620B0
2660E0
2D4042
2CE0E2
60B1B2
41B33A
43061F
86180F
186006
ENDCHAR
STARTCHAR 3053
ENCODING 12371
SWIDTH 144 0
DWIDTH 24 0
BBX 24 24 0 -2
BITMAP
20181C
3FFC18
301818
301818
301818
3FF81A
3007FF
300018
303018
37FA18
300118
300198
3018D8
3FFCD8
20C018
24C018
26D018
66C818
64CC18
4CCC18
48CC18
90C018
07C0F8
018030
ENDCHAR
STARTCHAR 3054
ENCODING 12372
SWIDTH 144 0
DWIDTH 24 0
BBX 24 24 0 -2
BITMAP
0E0800
0C0E40
0C0C70
0C0C60
0D1840
0D1086
2DBFFF
2DB0C0
4C70C0
4C70C0
CCB0CC
CD3FFE
0C30C0
0C30C0
0C30C0
0C30CC
0C3FFE
0C30C0
0C30C0
0C30C0
0C30C0
0C30C6
0C3FFF
0C3000
ENDCHAR
STARTCHAR 3055
ENCODING 12373
SWIDTH 144 0
DWIDTH 24 0
BBX 24 24 0 -2
BITMAP
001C00
001818
3FFFFC
010180
008100
00C206
FFFFFF
000000
000000
07FFE0
060060
060060
07FFE0
060060
060060
07FFE0
002000
039810
130C0C
130C46
230047
E30063
C3FFE0
01FFC0
ENDCHAR
STARTCHAR 3056
ENCODING 12374
SWIDTH 144 0
DWIDTH 24 0
BBX 24 24 0 -2
BITMAP
20181C
3FFC18
301818
301818
3FF81A
3003FF
37F818
300218
300198
2FFCD8
20C0D8
68D018
4CC818
4CCC18
9BCCF8
218030
002000
039810
130C0C
130C46
230047
E30063
C3FFE0
01FFC0
ENDCHAR
STARTCHAR 3057
ENCODING 12375
SWIDTH 144 0
DWIDTH 24 0
BBX 24 24 0 -2
BITMAP
040060
07FFF0
060060
060060
060060
07FFE0
060060
060060
060060
07FFE0
06C060
00C000
01800C
03FFFE
06318C
0C630C
30C30C
C1860C
030C18
0C1818
303018
006030
0183F0
0600E0
ENDCHAR
STARTCHAR 3058
ENCODING 12376
SWIDTH 144 0
DWIDTH 24 0
BBX 24 24 0 -2
BITMAP
0E0380
0C0300
0C030C
0C7FFE
0C8300
FFC680
0C0660
0C0C30
0C3030
1E0006
1D7FFF
1D8018
3DA198
2C3FD8
2C3198
6C3198
4C3198
8C3F98
0C3198
0C3018
0C0018
0C0018
0C00F8
0C0030
ENDCHAR
STARTCHAR 3059
ENCODING 12377
SWIDTH 144 0
DWIDTH 24 0
BBX 24 24 0 -2
BITMAP
081000
061C00
031800
031800
003000
003060
3FFFF0
006060
006060
00C0C8
00FFFC
018018
030018
060032
0FFFFF
180006
300086
C88846
0C4466
0C6666
0C660E
08000C
0000FC
000038
ENDCHAR
STARTCHAR 305a
ENCODING 12378
SWIDTH 144 0
DWIDTH 24 0
BBX 24 24 0 -2
BITMAP
080030
0FFFF8
0C1830
0C1830
0C1830
0FFFF0
0C1830
0C1830
0C1830
0FFFF0
0C0030
000000
000006
FFFFFF
060800
060808
06040E
06061C
060360
060180
063CE0
FFC07F
7C001E
400006
ENDCHAR
STARTCHAR 305b
ENCODING 12379
SWIDTH 144 0
DWIDTH 24 0
BBX 24 24 0 -2
BITMAP
100018
1FFFFC
181818
181818
1FFFF8
181818
181818
181818
1FFFF8
180018
01C1C0
018180
01818C
3FFFFE
018180
018180
018186
FFFFFF
010000
01C300
0380E0
070038
1C001C
60000C
ENDCHAR
STARTCHAR 305c
ENCODING 12380
SWIDTH 144 0
DWIDTH 24 0
BBX 24 24 0 -2
BITMAP
00E100
07F18C
FE01FE
06030C
060218
060518
0649B0
FFE060
0600C0
060180
0E0680
0F18C6
0EC0FF
1E6186
16630C
36068C
2618D8
460030
860060
0600C0
060180
060300
060C00
063000
ENDCHAR
STARTCHAR 305d
ENCODING 12381
SWIDTH 144 0
DWIDTH 24 0
BBX 24 24 0 -2
BITMAP
080420
0E0738
0C0630
080620
920C46
638FFF
331C60
361C60
0C2C60
094C6C
108FFE
FFCC60
7CCC60
4CCC60
0C0C60
4C0C6C
7D0FFE
6C8C60
6CCC60
4CCC60
4CCC60
8C0C66
0C0FFF
0C0C00
ENDCHAR
STARTCHAR 305e
ENCODING 12382
SWIDTH 144 0
DWIDTH 24 0
BBX 24 24 0 -2
BITMAP
0801C0
0E0180
0C0198
081FFC
920318
63831A
337FFF
360000
0C080C
090FFE
108C0C
FFCC0C
7CCFFC
4CCC00
0C0070
4D0064
7C9FFE
6CCC60
6CCC60
4CCC66
4C3FFF
8C0060
0C0060
0C0060
ENDCHAR
STARTCHAR 305f
ENCODING 12383
SWIDTH 144 0
DWIDTH 24 0
BBX 24 24 0 -2
BITMAP
20000C
3FFFFE
30180C
30180C
3FFFFC
30180C
30180C
30180C
3FFFFC
30000C
000000
0FFFF0
0C0030
0C0030
0FFFF0
0C0030
0C0030
0C0030
0FFFF0
0C0030
0C0030
0C0030
0C01F0
0C0060
ENDCHAR
STARTCHAR 3060
ENCODING 12384
SWIDTH 144 0
DWIDTH 24 0
BBX 24 24 0 -2
BITMAP
00E380
00C306
FFFFFF
00C300
00C1E0
000FF0
1FFE00
001806
FFFFFF
007A00
00D980
0398F0
0E183F
F0400E
007000
00E006
FFFFFF
0380C0
0701C0
0EF380
0C0F00
003CF0
01E03C
7E000C
ENDCHAR
STARTCHAR 3061
ENCODING 12385
SWIDTH 144 0
DWIDTH 24 0
BBX 24 24 0 -2
BITMAP
001C00
001800
001800
001800
001806
FFFFFF
003800
007400
006400
00C408
01820E
03821C
078330
0D8140
318180
C18080
0180C0
018060
018070
018638
01F81F
3FC00E
1E0006
100000
ENDCHAR
STARTCHAR 3062
ENCODING 12386
SWIDTH 144 0
DWIDTH 24 0
BBX 24 24 0 -2
BITMAP
031006
7F9FFF
0018C6
0018C6
019FFE
FFD8C6
0018C6
0018C6
031FFE
7F9806
000000
000FFC
030C0C
7F8C0C
000FFC
000C0C
430C0C
7F8C0C
630FFC
630C0C
630C0C
630C0C
7F0C7C
630C18
ENDCHAR
STARTCHAR 3063
ENCODING 12387
SWIDTH 144 0
DWIDTH 24 0
BBX 24 24 0 -2
BITMAP
000380
400330
303FF8
180630
0C0636
0DFFFF
000000
002018
003FFC
003018
0C3018
FE3FF8
0C30C0
0C00D8
0C7FFC
0C30C0
0C30C6
0DFFFF
0C00C0
0C00C0
1A0000
F1FFFF
607FFE
400000
ENDCHAR
STARTCHAR 3064
ENCODING 12388
SWIDTH 144 0
DWIDTH 24 0
BBX 24 24 0 -2
BITMAP
000300
407FF8
306318
186318
0C7FF8
0C0302
03FFFF
000000
007FF8
006018
0C7FF8
FE6018
0C6018
0C7FF8
0C6018
0C6018
0C7FF8
0C1820
0C3C1C
0CC00C
1A0000
F1FFFF
607FFE
400000
ENDCHAR
STARTCHAR 3065
ENCODING 12389
SWIDTH 144 0
DWIDTH 24 0
BBX 24 24 0 -2
BITMAP
20000C
3FFFFE
308000
30E000
30C000
30C060
30FFF0
318C00
310C00
320C00
300C18
37FFFC
300C00
301A00
301980
3030C0
303060
306030
30C038
330018
300000
300006
3FFFFF
300000
ENDCHAR
STARTCHAR 3066
ENCODING 12390
SWIDTH 144 0
DWIDTH 24 0
BBX 24 24 0 -2
BITMAP
01C1C0
018180
018180
018180
018180
01818C
7FFFFE
018180
018180
018180
018180
018180
018180
018186
FFFFFF
018180
030180
030180
030180
060180
060180
0C0180
180180
600180
ENDCHAR
STARTCHAR 3067
ENCODING 12391
SWIDTH 144 0
DWIDTH 24 0
BBX 24 24 0 -2
BITMAP
001C00
001800
001806
FFFFFF
002000
003800
003000
006200
048380
030700
018600
018C40
001870
0030E0
00E0C0
018180
060300
380600
000D00
0038C0
006070
018038
060018
380018
ENDCHAR
STARTCHAR 3068
ENCODING 12392
SWIDTH 144 0
DWIDTH 24 0
BBX 24 24 0 -2
BITMAP
0001D0
1C018C
180186
180186
180180
180186
18FFFF
FF0180
180180
18FD84
18CD87
18CD86
18CC86
18CCCC
18CCCC
18FC58
1A0070
1C0220
F81C72
63F0D2
41C19A
01030F
000C0F
003006
ENDCHAR
STARTCHAR 3069
ENCODING 12393
SWIDTH 144 0
DWIDTH 24 0
BBX 24 24 0 -2
BITMAP
001C00
001800
001806
FFFFFF
00C080
008060
010038
3FFFDC
1FE00C
10000C
040060
07FFF0
060060
060060
07FFE0
060060
060060
07FFE0
060060
060060
060060
060060
0603E0
0600C0
ENDCHAR
STARTCHAR 306a
ENCODING 12394
SWIDTH 144 0
DWIDTH 24 0
BBX 24 24 0 -2
BITMAP
070106
0601FF
060186
061986
FFFD8C
0C018C
0C0188
0C0198
183190
1FF9A0
183190
383198
38318C
5FF18C
983186
183186
183186
1FF186
183186
183186
1831BE
18318C
19F180
186180
ENDCHAR
STARTCHAR 306b
ENCODING 12395
SWIDTH 144 0
DWIDTH 24 0
BBX 24 24 0 -2
BITMAP
0011C8
031D8E
FF998C
1821D0
18C9A4
186FB7
182D9E
101988
331192
3F25BF
33FFB1
7362A8
734086
B32082
333FFF
333080
3330D0
33305C
3F2C58
336630
304672
3040DA
00818F
010603
ENDCHAR
STARTCHAR 306c
ENCODING 12396
SWIDTH 144 0
DWIDTH 24 0
BBX 24 24 0 -2
BITMAP
000000
000000
000000
000000
000000
000000
000000
000000
000000
000004
00000E
FFFFFF
000000
000000
000000
000000
000000
000000
000000
000000
000000
000000
000000
000000
ENDCHAR
STARTCHAR 306d
ENCODING 12397
SWIDTH 144 0
DWIDTH 24 0
BBX 24 24 0 -2
BITMAP
001C00
001800
001806
FFFFFF
001800
001800
001818
3FFFFC
000000
200000
200006
7FFFFF
600006
C38004
C30188
0307C0
031E00
03E008
030008
030008
03000C
03FFFC
01FFF8
000000
ENDCHAR
STARTCHAR 306e
ENCODING 12398
SWIDTH 144 0
DWIDTH 24 0
BBX 24 24 0 -2
BITMAP
102010
0C101C
061838
060C30
000C60
000040
80008C
62FFFE
321020
321C20
041810
043818
0C300C
08600F
18C006
1B7FF8
306498
F06498
706498
306498
306498
30649A
3BFFFF
180000
ENDCHAR
STARTCHAR 306f
ENCODING 12399
SWIDTH 144 0
DWIDTH 24 0
BBX 24 24 0 -2
BITMAP
001000
401C00
301860
183FF0
0C30C0
0C6080
00410C
00FFFE
01630C
00630C
0C630C
FE7FFC
0C6CCC
0C0CC0
0C0CC2
0C18C2
0C18C3
0C30FF
0C607E
0C8000
1A0000
F1FFFF
607FFE
400000
ENDCHAR
STARTCHAR 3070
ENCODING 12400
SWIDTH 144 0
DWIDTH 24 0
BBX 24 24 0 -2
BITMAP
01801C
0FC1FE
FC3FC0
0C0104
0C1087
0C08C6
0D8CC6
FFCCCC
0C0C08
1C0010
1C3A06
1F33FF
1DB306
3DB306
3DB306
2C3306
6C33FE
4C3306
8C3306
0C3306
0C3306
0C3306
0C33FE
0C3306
ENDCHAR
STARTCHAR 3071
ENCODING 12401
SWIDTH 144 0
DWIDTH 24 0
BBX 24 24 0 -2
BITMAP
01C1C0
018180
018186
FFFFFF
018180
018180
019180
001C00
401800
301806
183FFF
1C3306
0C6304
004308
008680
000680
008640
030C40
1C0C60
F81830
603038
40601F
00C00E
030006
ENDCHAR
STARTCHAR 3072
ENCODING 12402
SWIDTH 144 0
DWIDTH 24 0
BBX 24 24 0 -2
BITMAP
00E380
00C300
00C306
FFFFFF
00C300
00C300
00C300
000018
3FFFFC
001800
001800
001800
001800
001806
FFFFFF
001800
001800
001800
001800
001800
001800
001800
01F800
007000
ENDCHAR
STARTCHAR 3073
ENCODING 12403
SWIDTH 144 0
DWIDTH 24 0
BBX 24 24 0 -2
BITMAP
100306
1C3F7F
180306
198306
1FC306
11A346
313F7E
223060
7FB060
A4B066
24BF7F
248306
3FA346
249B36
249B36
248306
3F870E
000F1E
00BB76
2A9B36
2A9326
6A0306
601F3E
00060C
ENDCHAR
STARTCHAR 3074
ENCODING 12404
SWIDTH 144 0
DWIDTH 24 0
BBX 24 24 0 -2
BITMAP
004000
007000
006000
006080
00C060
008038
01001C
7FFFEE
3FC306
20C306
00C300
00C300
00C300
00C300
00C300
00C300
018300
018300
018302
030302
030302
060303
1803FF
E001FE
ENDCHAR
STARTCHAR 3075
ENCODING 12405
SWIDTH 144 0
DWIDTH 24 0
BBX 24 24 0 -2
BITMAP
006000
00F000
238406
3C07FF
300606
300606
300606
300606
300606
30C606
3FE606
300606
300606
300606
300606
300606
300606
306606
3FF67E
30061C
300600
000600
000600
000600
ENDCHAR
STARTCHAR 3076
ENCODING 12406
SWIDTH 144 0
DWIDTH 24 0
BBX 24 24 0 -2
BITMAP
004006
007FFF
006006
4661C6
7F6186
666186
666186
6661B6
667FFE
666186
666186
666186
666186
666346
666326
666326
7E6236
666636
666436
606836
006006
006006
007FFE
006006
ENDCHAR
STARTCHAR 3077
ENCODING 12407
SWIDTH 144 0
DWIDTH 24 0
BBX 24 24 0 -2
BITMAP
080030
0FFFF8
0C0030
0C0030
0C0030
0FFFF0
0C0030
000000
100018
1FFFFC
180018
180018
1FFFF8
180018
180018
1FFFF8
180018
180018
1FFFF8
190018
01C180
038078
0E001C
70000C
ENDCHAR
STARTCHAR 3078
ENCODING 12408
SWIDTH 144 0
DWIDTH 24 0
BBX 24 24 0 -2
BITMAP
400006
7FFFFF
600006
600006
601C06
601806
601806
601866
67FFF6
601806
601806
603406
603406
603406
606206
606306
60C186
6181C6
6300F6
6C0066
600006
600006
7FFFFE
600006
ENDCHAR
STARTCHAR 3079
ENCODING 12409
SWIDTH 144 0
DWIDTH 24 0
BBX 24 24 0 -2
BITMAP
1C2006
183FFF
183006
1831C6
183186
1B3186
FFB186
3331B6
333FFE
333186
333186
333186
333186
623146
663366
663326
743226
6C3636
0E3436
0B3836
19B006
11B006
203FFE
C03006
ENDCHAR
STARTCHAR 307a
ENCODING 12410
SWIDTH 144 0
DWIDTH 24 0
BBX 24 24 0 -2
BITMAP
00181C
7FFC18
001818
001818
001818
001818
201818
3FF818
301818
300018
300018
601818
7FFC18
601818
601818
001818
001818
003818
003018
003018
007018
00E018
0FC018
038018
ENDCHAR
STARTCHAR 307b
ENCODING 12411
SWIDTH 144 0
DWIDTH 24 0
BBX 24 24 0 -2
BITMAP
030100
0301C0
068180
066180
0C3180
1B3306
1303FF
3FE206
586604
9864E8
1FE8C0
1860C0
1860C0
1860C0
1FE1A0
1801A0
1881A0
184130
186310
19B218
1E361C
7C040F
30080E
203006
ENDCHAR
STARTCHAR 307c
ENCODING 12412
SWIDTH 144 0
DWIDTH 24 0
BBX 24 24 0 -2
BITMAP
200038
1803FC
0CFF88
0C040E
00820C
004308
806318
606310
306000
340070
0403F8
047F00
080300
080300
180300
100306
31FFFF
F00300
700300
300300
300300
30030C
38FFFE
180000
ENDCHAR
STARTCHAR 307d
ENCODING 12413
SWIDTH 144 0
DWIDTH 24 0
BBX 24 24 0 -2
BITMAP
1C2070
183860
183060
1A4860
198E60
18CC60
187860
183460
182260
184360
1BFF60
19C360
180060
19FE60
198660
198660
19FE60
198660
198662
31FE62
318662
218663
419E7F
818C3E
ENDCHAR
STARTCHAR 307e
ENCODING 12414
SWIDTH 144 0
DWIDTH 24 0
BBX 24 24 0 -2
BITMAP
00E380
00C306
FFFFFF
00C300
00C000
430300
7F8700
630680
620C60
661838
6437DF
64400E
699FC6
6400C0
660188
633FFC
630000
630006
63FFFF
6F0C40
660830
6011DC
60FE0E
607006
ENDCHAR
STARTCHAR 3121
ENCODING 12577
SWIDTH 144 0
DWIDTH 24 0
BBX 24 24 0 -2
BITMAP
4301C0
7F8180
632180
632186
627FFF
666006
64C004
64C018
683FFC
640000
660000
620006
63FFFF
630C60
630C60
630C60
630C60
6F0C60
661C62
601862
601862
603063
60607F
61803E
ENDCHAR
STARTCHAR 3122
ENCODING 12578
SWIDTH 144 0
DWIDTH 24 0
BBX 24 24 0 -2
BITMAP
418300
7FC700
618680
638E40
630C60
621838
66309F
646FCE
698006
640060
663FF0
620060
6300C0
6300CC
633FFE
630000
630006
6F7FFF
660600
600420
600818
60FFFC
607E0E
604006
ENDCHAR
STARTCHAR 3123
ENCODING 12579
SWIDTH 144 0
DWIDTH 24 0
BBX 24 24 0 -2
BITMAP
43001C
7F81FE
637FC8
63220E
62110C
661998
641990
64002C
683FFE
64000C
66000C
623FFC
63000C
63000C
633FFC
63000C
630100
6F0E88
664CC6
604CD3
60CC13
618C18
618FF8
6007F0
ENDCHAR
STARTCHAR 3124
ENCODING 12580
SWIDTH 144 0
DWIDTH 24 0
BBX 24 24 0 -2
BITMAP
070406
0607FF
066606
7FF606
008606
20E7FE
10C000
198406
1907FF
023606
FFFE06
0007FE
20C606
3FE606
30C7FE
30C606
30C606
3FC606
30C7FE
30C200
30C388
3FC306
30C603
301803
ENDCHAR
STARTCHAR 3125
ENCODING 12581
SWIDTH 144 0
DWIDTH 24 0
BBX 24 24 0 -2
BITMAP
000070
000060
418060
7FC060
618060
618060
618066
61FFFF
618060
618060
61A060
619860
618C60
618660
618660
7F8060
618060
618060
600060
000060
000060
000060
0007E0
0001C0
ENDCHAR
STARTCHAR 3126
ENCODING 12582
SWIDTH 144 0
DWIDTH 24 0
BBX 24 24 0 -2
BITMAP
007000
006000
006000
006000
006000
006006
FFFFFF
00C000
00C000
018000
018000
030000
060030
0FFFF8
1B0030
330030
C30030
030030
030030
030030
030030
030030
03FFF0
030030
ENDCHAR
STARTCHAR 3127
ENCODING 12583
SWIDTH 144 0
DWIDTH 24 0
BBX 24 24 0 -2
BITMAP
001C00
101800
101806
3FFFFF
300006
600004
600008
000060
0FFFF0
001800
001800
001800
001806
FFFFFF
001800
001800
001800
001800
001800
001800
001800
001800
00F800
003000
ENDCHAR
STARTCHAR 3128
ENCODING 12584
SWIDTH 144 0
DWIDTH 24 0
BBX 24 24 0 -2
BITMAP
004000
007000
0860C0
0FFFE0
0C00C0
0C00C0
0C00C0
0C00C0
0FFFC0
0C0000
0C000C
0FFFFE
0C0000
0C0000
0C0006
0FFFFF
0C0006
000106
1210C6
110866
218C6C
E18C0C
C0007C
000018
ENDCHAR
STARTCHAR 3129
ENCODING 12585
SWIDTH 144 0
DWIDTH 24 0
BBX 24 24 0 -2
BITMAP
000000
006006
FFF7FF
006006
006006
406406
306306
186186
0C60C6
0C60C6
006006
006006
00E00E
016016
066066
0C60C6
386386
F06F06
606606
406406
006006
006006
03E03E
00C00C
ENDCHAR
STARTCHAR 312a
ENCODING 12586
SWIDTH 144 0
DWIDTH 24 0
BBX 24 24 0 -2
BITMAP
000000
40000C
307FFE
180180
0C0180
0C0180
000180
000180
000186
00FFFF
0C0180
FE0180
0C0180
0C0180
0C0180
0C0180
0C0180
0C0180
0C0F80
0C0300
1A0000
F1FFFF
607FFE
400000
ENDCHAR
STARTCHAR 312b
ENCODING 12587
SWIDTH 144 0
DWIDTH 24 0
BBX 24 24 0 -2
BITMAP
000000
000006
FFFFFF
001800
001800
20180C
3FFFFE
30180C
30180C
341A0C
33198C
3198CC
3198CC
30180C
30180C
341A0C
33198C
3198CC
3198CC
30180C
30180C
30180C
30187C
301818
ENDCHAR
STARTCHAR 312c
ENCODING 12588
SWIDTH 144 0
DWIDTH 24 0
BBX 24 24 0 -2
BITMAP
006000
00F000
03820C
2C03FE
30830C
30E30C
30C30C
30C30C
30C30C
30C30C
30C30C
30C30C
30C30C
30C30C
30C30C
37C30C
FCC30C
70C30C
41837C
018318
030300
060300
0C0300
300300
ENDCHAR
STARTCHAR 312d
ENCODING 12589
SWIDTH 144 0
DWIDTH 24 0
BBX 24 24 0 -2
BITMAP
210080
11C0E0
1984CC
1907FE
02660C
FFF60C
0667FC
06660C
46660C
7FE7FC
666600
660606
6667FF
7FF600
666606
0E67FF
0E6606
1E6026
166AB6
37EA96
26CA8E
461A0C
86187C
060018
ENDCHAR
STARTCHAR 312e
ENCODING 12590
SWIDTH 144 0
DWIDTH 24 0
BBX 24 24 0 -2
BITMAP
001C00
101800
10180C
3FFFFE
61C308
638310
0703FE
1C01FE
E70000
0607FC
06660C
7FF60C
0607FC
06060C
06360C
FFFFFC
06060C
06060C
0D87FC
0CC232
0863B2
186733
300C3F
C0301E
ENDCHAR
STARTCHAR 312f
ENCODING 12591
SWIDTH 144 0
DWIDTH 24 0
BBX 24 24 0 -2
BITMAP
0000C0
1FFFE0
00C0C0
00C0C0
00C0C0
00C0C0
00C0C0
00C0C0
00C0C0
00C0C0
00C0C6
FFFFFF
0180C0
0180C0
0180C0
0180C0
0180C0
0180C0
0180C0
0180C0
0180C0
0180C6
FFFFFF
000000
ENDCHAR
STARTCHAR 3130
ENCODING 12592
SWIDTH 144 0
DWIDTH 24 0
BBX 24 24 0 -2
BITMAP
000400
00C720
FFE638
0C0630
0C0620
0C0C46
0C0FFF
180C60
181C60
119C60
3FAC6C
39CFFE
798C60
598C60
998C60
198C6C
198FFE
198C60
198C60
1F8C60
198C60
198C66
180FFF
000C00
ENDCHAR
STARTCHAR 3131
ENCODING 12593
SWIDTH 144 0
DWIDTH 24 0
BBX 24 24 0 -2
BITMAP
000000
006000
00F000
23800C
3C03FE
30000C
30000C
30000C
30000C
30000C
30000C
31800C
3FC3FC
30000C
30000C
30000C
30000C
30000C
30000C
30000C
30000C
3FFFFC
30000C
30000C
ENDCHAR
STARTCHAR 3132
ENCODING 12594
SWIDTH 144 0
DWIDTH 24 0
BBX 24 24 0 -2
BITMAP
101030
0C1FF8
061830
061830
001930
0019F0
801930
601930
321930
329936
04FFFF
04C006
0CC866
08CFF6
18CC66
18CC66
30CC66
F0CC66
70CFE6
30CC66
30CC06
30C006
38C03E
18C00C
ENDCHAR
STARTCHAR 3133
ENCODING 12595
SWIDTH 144 0
DWIDTH 24 0
BBX 24 24 0 -2
BITMAP
000380
00030C
4603FE
7F0300
664306
667FFF
666386
666308
6663F0
667F04
666306
6663FE
6661FC
666000
7E6370
666364
66D367
60DB66
00DB64
018B68
018360
030366
0C7FFF
000000
ENDCHAR
STARTCHAR 3134
ENCODING 12596
SWIDTH 144 0
DWIDTH 24 0
BBX 24 24 0 -2
BITMAP
00100C
001FFE
43180C
7F980C
63180C
63180C
631FFC
63180C
63180C
63180C
63180C
631FFC
63180C
63180C
63180C
7F180C
63180C
631FFC
600800
000E30
000C0C
001806
003007
00C003
ENDCHAR
STARTCHAR 3135
ENCODING 12597
SWIDTH 144 0
DWIDTH 24 0
BBX 24 24 0 -2
BITMAP
060030
052422
FF99FF
1C2470
1600A8
35A4A7
649922
842420
000000
1FFFF8
184218
184218
1FFFF8
000000
3FE038
302032
3FEFFF
302030
3FE430
310330
30C330
FF6030
7861F0
400060
ENDCHAR
STARTCHAR 3136
ENCODING 12598
SWIDTH 144 0
DWIDTH 24 0
BBX 24 24 0 -2
BITMAP
00E380
00C300
00C306
FFFFFF
00C300
00C300
20301C
3FF818
303018
30301A
3FF7FF
300018
37E018
300218
303118
3FF998
218198
298018
6DA018
499018
599818
919818
2781F8
030070
ENDCHAR
STARTCHAR 3137
ENCODING 12599
SWIDTH 144 0
DWIDTH 24 0
BBX 24 24 0 -2
BITMAP
10080C
1C0FFE
180C0C
198FFC
1FCC0C
118FFC
310C0C
220000
7F9FFE
A49926
249926
249926
3F9FFE
248000
24800C
249FFE
3F840C
000218
008330
2AC1C0
2AC0F0
6A41BF
60061E
003806
ENDCHAR
STARTCHAR 3138
ENCODING 12600
SWIDTH 144 0
DWIDTH 24 0
BBX 24 24 0 -2
BITMAP
1C0380
180304
180307
180336
183FFE
19830C
FFC31C
318318
318332
31FFFF
318060
3300C0
630780
630708
63060E
660E1C
D63638
CCC660
0E0780
0B0602
1B8602
118603
2187FF
C003FE
ENDCHAR
STARTCHAR 3139
ENCODING 12601
SWIDTH 144 0
DWIDTH 24 0
BBX 24 24 0 -2
BITMAP
200006
3FFFFF
300000
343000
37F80C
3637FE
363330
363330
37F330
363330
363332
363FFF
37F060
363060
3600F8
3600F0
3640F0
2621B0
2631B2
665932
5F9B33
4E023F
88041E
001800
ENDCHAR
STARTCHAR 313a
ENCODING 12602
SWIDTH 144 0
DWIDTH 24 0
BBX 24 24 0 -2
BITMAP
1003A0
0C0318
060318
060306
01FFFF
000300
800300
62430C
327FFE
32630C
04630C
04630C
0C7FFC
08630C
18630C
18630C
307FFC
F0630C
70630C
30630C
30630C
30630C
38633C
186318
ENDCHAR
STARTCHAR 313b
ENCODING 12603
SWIDTH 144 0
DWIDTH 24 0
BBX 24 24 0 -2
BITMAP
000070
0003F8
083F80
0FC040
0C0040
0C3840
0C3040
0C3040
0C3040
0C3040
0C3040
0C3020
0C3020
0C3020
0C3020
1C3230
183130
183190
1030D8
303FD8
27F8CC
63C08F
42000E
800006
ENDCHAR
STARTCHAR 313c
ENCODING 12604
SWIDTH 144 0
DWIDTH 24 0
BBX 24 24 0 -2
BITMAP
406406
7FF7FF
606606
606606
7FE7FE
606606
606606
7FE7FE
606606
600006
600086
63FFC6
601806
601806
601906
61FF86
601806
601806
601846
67FFE6
600006
600006
60003E
60000C
ENDCHAR
STARTCHAR 313d
ENCODING 12605
SWIDTH 144 0
DWIDTH 24 0
BBX 24 24 0 -2
BITMAP
002040
001870
4618E0
7F0086
66FFFF
660480
660480
667FFC
66648C
66648C
6678FC
66600C
667FFC
66600C
66600C
7E7FFC
660030
600036
01FFFF
000030
001830
000C30
000DF0
000060
ENDCHAR
STARTCHAR 313e
ENCODING 12606
SWIDTH 144 0
DWIDTH 24 0
BBX 24 24 0 -2
BITMAP
000000
000030
1FFFF8
000000
000000
000000
000000
000000
000006
FFFFFF
003000
007000
006000
006000
00C080
00C040
008020
010030
0101D8
027E1C
7FE00C
3E000C
200000
000000
ENDCHAR
STARTCHAR 313f
ENCODING 12607
SWIDTH 144 0
DWIDTH 24 0
BBX 24 24 0 -2
BITMAP
004006
407FFF
30C006
198384
0D8308
0C7FFC
000300
004318
007FFC
006318
0C6318
FE7FF8
0C6318
0C6318
0C7FF8
0C6318
0C0306
0DFFFF
0C0300
0C0300
1A0300
F1FFFF
607FFE
400000
ENDCHAR
STARTCHAR 3140
ENCODING 12608
SWIDTH 144 0
DWIDTH 24 0
BBX 24 24 0 -2
BITMAP
000018
1FFFFC
201800
201806
7FFFFF
601806
C01804
CF99E8
001800
001800
1F99F8
001800
000000
000030
1FFFF8
000000
000006
FFFFFF
00C100
0080C0
010070
3FFFB8
1FC018
100018
ENDCHAR
STARTCHAR 3141
ENCODING 12609
SWIDTH 144 0
DWIDTH 24 0
BBX 24 24 0 -2
BITMAP
00E380
00C300
00C306
FFFFFF
00C300
00C300
04C300
070038
0601FC
0C0FC0
0CF300
180300
180300
380300
580306
99FFFF
180300
180300
180300
180300
180300
18030C
18FFFE
180000
ENDCHAR
STARTCHAR 3142
ENCODING 12610
SWIDTH 144 0
DWIDTH 24 0
BBX 24 24 0 -2
BITMAP
060000
060006
0D1FFF
0CC618
186618
176618
260618
4607F8
BFC618
30C618
30C618
3FC618
30C618
30C7F8
30C618
3FC618
30061A
31061F
308678
30C798
337C18
FC6018
706018
400018
ENDCHAR
STARTCHAR 3143
ENCODING 12611
SWIDTH 144 0
DWIDTH 24 0
BBX 24 24 0 -2
BITMAP
030000
03E006
2307FF
231906
7FFD06
601106
C0208C
DFF08C
00008C
13208C
1B18C8
36C858
463058
0C1850
1FF830
386020
DFE070
186050
1860D8
1FE098
18618C
18610F
1FE206
186C06
ENDCHAR
STARTCHAR 3144
ENCODING 12612
SWIDTH 144 0
DWIDTH 24 0
BBX 24 24 0 -2
BITMAP
002040
041870
030C60
118C40
118086
3FFFFF
300006
6200C4
63FFE8
0300C0
0300C0
0300C0
03FFC0
0330C0
002000
084030
0FFFF8
0C0030
0C0030
0C0030
0C0030
0C0030
0FFFF0
0C0030
ENDCHAR
STARTCHAR 3145
ENCODING 12613
SWIDTH 144 0
DWIDTH 24 0
BBX 24 24 0 -2
BITMAP
10C218
1FE3FC
18C318
18C318
1FC3F8
18C318
18C318
1FC3F8
18C318
18C318
1FC3F8
088120
0C6198
18630C
600C0C
006002
FFFFFF
00C180
038300
076600
061C00
0073C0
03C0F8
3C0018
ENDCHAR
STARTCHAR 3146
ENCODING 12614
SWIDTH 144 0
DWIDTH 24 0
BBX 24 24 0 -2
BITMAP
203010
3FF81C
303038
303030
3FF060
3030C0
303188
3FF20E
03001C
030C18
FFFE30
000060
3FF0C4
303187
303606
3FF00E
03000C
234018
3B3030
331860
6318C0
830180
1F0600
061800
ENDCHAR
STARTCHAR 3147
ENCODING 12615
SWIDTH 144 0
DWIDTH 24 0
BBX 24 24 0 -2
BITMAP
0001C0
000180
430180
7F8180
63218C
633FFE
63318C
63318C
63318C
63318C
7F318C
63318C
63318C
63FFFF
630340
630340
630340
7F0620
630620
600C30
001818
00301F
00600E
018006
ENDCHAR
STARTCHAR 3148
ENCODING 12616
SWIDTH 144 0
DWIDTH 24 0
BBX 24 24 0 -2
BITMAP
003800
003000
003000
203018
3FFFFC
303018
303018
303018
3FFFF8
303018
303018
303018
3FFFF8
301818
301840
001870
000CE0
000DC2
000702
001E02
007382
03C1E3
7C007F
00001E
ENDCHAR
STARTCHAR 3149
ENCODING 12617
SWIDTH 144 0
DWIDTH 24 0
BBX 24 24 0 -2
BITMAP
004020
083038
061870
031860
1300C0
100106
3FFFFF
300006
600004
601C08
001800
00180C
7FFFFE
003A00
007A00
00D900
01D980
0398C0
071870
0C183F
30181E
C01806
001800
001800
ENDCHAR
STARTCHAR 314a
ENCODING 12618
SWIDTH 144 0
DWIDTH 24 0
BBX 24 24 0 -2
BITMAP
00C000
003800
000E00
000600
000000
001800
07FC00
001800
001810
00181C
019C18
7FDC30
019A60
019A80
031900
031980
0618C0
061860
0C1838
18181F
30180E
C01806
00F800
003000
ENDCHAR
STARTCHAR 314b
ENCODING 12619
SWIDTH 144 0
DWIDTH 24 0
BBX 24 24 0 -2
BITMAP
101800
0C0700
0601C0
0600C0
000000
000300
807F80
600300
320308
32030E
041B0C
05FB98
0C1BA0
083340
183340
182360
306320
F04330
70C318
30831F
31030E
320306
381F00
180600
ENDCHAR
STARTCHAR 314c
ENCODING 12620
SWIDTH 144 0
DWIDTH 24 0
BBX 24 24 0 -2
BITMAP
100380
0C0300
060300
06830C
00FFFE
00C30C
80C30C
60C30C
32FFFC
32C30C
04C30C
04C30C
0CFFFC
08C300
180310
18031C
300198
F001B0
7000E2
3001C2
300762
301C3B
39E01F
180006
ENDCHAR
STARTCHAR 314d
ENCODING 12621
SWIDTH 144 0
DWIDTH 24 0
BBX 24 24 0 -2
BITMAP
000E38
000C30
FF0C32
18FFFF
180C30
180C30
1801C0
180180
18218C
FF3FFE
18318C
18318C
18318C
18318C
18318C
18FFFF
180340
1B0340
FC0620
700630
400C18
00181F
00300E
00C006
ENDCHAR
STARTCHAR 314e
ENCODING 12622
SWIDTH 144 0
DWIDTH 24 0
BBX 24 24 0 -2
BITMAP
000060
7FFFF0
018060
018060
018060
030C66
03FEFF
020CC6
061806
04D806
0C300C
086C0C
10C618
2306F8
C00030
000000
1FFFF0
18C630
18C630
18C630
18C630
18C632
FFFFFF
000000
ENDCHAR
STARTCHAR 314f
ENCODING 12623
SWIDTH 144 0
DWIDTH 24 0
BBX 24 24 0 -2
BITMAP
380006
30CFFF
33E060
3C0040
304486
3067FF
3FE606
1FC606
000606
00C7FE
07E606
7E0606
060606
0627FE
FFF606
060606
0F0606
0EC606
1E67FE
366200
660398
860706
060C07
063003
ENDCHAR
STARTCHAR 3150
ENCODING 12624
SWIDTH 144 0
DWIDTH 24 0
BBX 24 24 0 -2
BITMAP
380006
30CFFF
31E060
370040
380486
3047FF
306606
3FE606
1FC606
0007FE
000606
3FE606
000606
0007FE
7FF606
030606
230606
3B4606
3327FE
633200
433398
830706
0F0C07
063003
ENDCHAR
STARTCHAR 3151
ENCODING 12625
SWIDTH 144 0
DWIDTH 24 0
BBX 24 24 0 -2
BITMAP
01C1C0
018180
018186
FFFFFF
018180
018180
019D80
001800
081830
0FFFF8
0C1830
0C1830
0C1830
0C1830
0C1836
FFFFFF
003400
007200
006300
00E1C0
01C0F0
07007F
1C001E
E00006
ENDCHAR
STARTCHAR 3152
ENCODING 12626
SWIDTH 144 0
DWIDTH 24 0
BBX 24 24 0 -2
BITMAP
103800
1C3306
19FFBF
306300
306300
606340
49FFE0
8E0000
0C8306
1CFFBF
18C30C
38C30C
38FF0C
58060C
98068C
19FFCC
18C60C
18C60C
18C64C
1FFFEC
18060C
18060C
18067C
180618
ENDCHAR
STARTCHAR 3153
ENCODING 12627
SWIDTH 144 0
DWIDTH 24 0
BBX 24 24 0 -2
BITMAP
060600
7F01C0
0000C0
000000
030180
FFBFC0
000180
000184
060187
7F0DC6
00FDCC
000DD0
060DA0
7F0DA0
0019A0
0019B0
461990
7F3198
66319C
66618F
66418E
668186
7F1F80
660700
ENDCHAR
STARTCHAR 3154
ENCODING 12628
SWIDTH 144 0
DWIDTH 24 0
BBX 24 24 0 -2
BITMAP
060810
06061C
0D0318
0CC330
086020
18684C
100FFE
218C0C
3FCC0C
460C0C
860C0C
06CC0C
7FEFFC
060060
068460
46E760
26C660
368660
370662
060C62
06CC63
FF187F
78303E
40C000
ENDCHAR
STARTCHAR 3155
ENCODING 12629
SWIDTH 144 0
DWIDTH 24 0
BBX 24 24 0 -2
BITMAP
200380
180300
0C0306
0DFFFF
001000
001C80
8018E0
6238C0
3230CC
3231FE
04618C
04614C
0CE368
096258
1A6518
186910
3060B0
F060E0
706060
3060F0
3060B8
30611F
38620E
186C06
ENDCHAR
STARTCHAR 3156
ENCODING 12630
SWIDTH 144 0
DWIDTH 24 0
BBX 24 24 0 -2
BITMAP
000E00
000C00
080C06
0FFFFF
8C0000
4C40C0
6C7FE0
6C60C0
0C60C0
0C60C0
0CC0FE
1C807E
ED0000
6C0030
4DFFF8
0C4070
0C20E0
1831C0
181B00
300E00
201BC0
4070FF
81C03E
1E0006
ENDCHAR
STARTCHAR 3157
ENCODING 12631
SWIDTH 144 0
DWIDTH 24 0
BBX 24 24 0 -2
BITMAP
040080
0300E0
0181C0
01C180
00C100
000206
FFFFFF
010100
01C080
0380C0
030060
060038
0C001F
30000E
C00006
0FFFF0
0CC630
0CC630
0CC630
0CC630
0CC630
0CC636
FFFFFF
000000
ENDCHAR
STARTCHAR 3158
ENCODING 12632
SWIDTH 144 0
DWIDTH 24 0
BBX 24 24 0 -2
BITMAP
406406
7FF7FF
630606
630606
630606
7FE606
630606
630606
630606
7FE7FE
630646
630640
636640
7FF640
606620
006620
556620
556630
506C10
C0EC18
C0CC1C
01C80F
0F980E
032006
ENDCHAR
STARTCHAR 3159
ENCODING 12633
SWIDTH 144 0
DWIDTH 24 0
BBX 24 24 0 -2
BITMAP
0E2010
0C181C
0C0C38
0C0E30
0C0620
2E204C
2D3FFE
2DB00C
6DB00C
6DB00C
4C300C
CC300C
CC3FFC
0C30CC
0C08C0
0C0EC0
0C0CC0
0C0CC0
0C0CC0
0C18C2
0C18C2
0C30C3
0C60FF
0D807E
ENDCHAR
STARTCHAR 315a
ENCODING 12634
SWIDTH 144 0
DWIDTH 24 0
BBX 24 24 0 -2
BITMAP
03100C
7F9FFE
00180C
00180C
019FFC
FFD80C
00180C
00180C
031FFC
7F8400
000700
000E06
030FFF
7F9806
0038C6
0059E6
431E06
7F9846
631866
631FE6
630FCC
63000C
7F00FC
630038
ENDCHAR
STARTCHAR 315b
ENCODING 12635
SWIDTH 144 0
DWIDTH 24 0
BBX 24 24 0 -2
BITMAP
0700E8
0600C6
0600C6
0640C0
7FE8C6
060FFF
060CC0
062CC4
FFFCC7
060CC6
060C64
260C6C
364C68
37EC38
360C12
360F3A
367C6A
3630CE
2E2187
260603
638000
40FFFF
403FFE
800000
ENDCHAR
STARTCHAR 315c
ENCODING 12636
SWIDTH 144 0
DWIDTH 24 0
BBX 24 24 0 -2
BITMAP
406406
7FF7FF
606606
606606
7FE7FE
606606
606606
7FE7FE
610206
60C386
60C306
600406
61FF86
618186
618186
618186
61FF86
604606
607646
60E666
60C7E6
6183C6
66003E
60000C
ENDCHAR
STARTCHAR 315d
ENCODING 12637
SWIDTH 144 0
DWIDTH 24 0
BBX 24 24 0 -2
BITMAP
0E0006
0C7FFF
0C0180
0C0100
0C9FFC
FFD80C
0C180C
0C1FFC
0C180C
1E180C
1D9FFC
1CD80C
3CD80C
2C1FFC
2C0800
6C0C18
4C0FFC
8C1818
0C3430
0CC260
0C01C0
0C0770
0C1C1F
0CE006
ENDCHAR
STARTCHAR 315e
ENCODING 12638
SWIDTH 144 0
DWIDTH 24 0
BBX 24 24 0 -2
BITMAP
200006
3FFFFF
300000
341870
37FC68
361866
37F866
361860
361866
37FBFF
300060
341860
37FC60
361850
3618D0
37F8D0
3618D0
2618D8
67F888
66198C
46190C
46190F
867A06
063406
ENDCHAR
STARTCHAR 315f
ENCODING 12639
SWIDTH 144 0
DWIDTH 24 0
BBX 24 24 0 -2
BITMAP
20000C
3FFFFE
30180C
30180C
30180C
30180C
30180C
30180C
30180C
30180C
30180C
30180C
3FFFFC
30000C
30000C
30000C
30000C
30000C
30000C
30000C
30000C
30000C
3000FC
300038
ENDCHAR
STARTCHAR 3160
ENCODING 12640
SWIDTH 144 0
DWIDTH 24 0
BBX 24 24 0 -2
BITMAP
400006
7FFFFF
601806
601986
63FFC6
601806
601866
6FFFF6
600006
61FF86
618186
618186
618186
61FFC6
6038E6
607986
60DE06
6199C6
6318E6
6C1866
601806
600006
7FFFFE
600006
ENDCHAR
STARTCHAR 3161
ENCODING 12641
SWIDTH 144 0
DWIDTH 24 0
BBX 24 24 0 -2
BITMAP
008006
1CFFFF
18C000
18C7F8
18C618
18C618
18C7F8
FFC618
18C618
18C7F8
18C180
18C186
18DFFF
18C318
18C318
19C6B0
1EC660
F8C0D8
60C18C
40CE0C
00C000
00C006
00FFFF
00C000
ENDCHAR
STARTCHAR 3162
ENCODING 12642
SWIDTH 144 0
DWIDTH 24 0
BBX 24 24 0 -2
BITMAP
002000
003800
007000
006006
FFFFFF
00C100
018100
039C80
0318C0
061860
0FFFF8
16187F
26186E
C61866
07FFE0
061860
061860
061860
07FFE0
061864
061804
001806
001FFE
000FFC
ENDCHAR
STARTCHAR 3163
ENCODING 12643
SWIDTH 144 0
DWIDTH 24 0
BBX 24 24 0 -2
BITMAP
001C00
101800
101806
3FFFFF
300006
6200C4
63FFE8
0300C0
0300C0
03FFC0
0300C0
0300C0
03FFC0
0340C0
007000
00E006
FFFFFF
0181C0
038380
077600
060FC0
0038F8
01E03C
7E000C
ENDCHAR
STARTCHAR 3164
ENCODING 12644
SWIDTH 144 0
DWIDTH 24 0
BBX 24 24 0 -2
BITMAP
06001C
FF01FE
067FC0
0C0180
0C0180
180180
183980
303180
33318C
7FB1FE
633180
033180
233180
233180
263180
163180
163186
0CFFFF
040000
0E0000
1BC000
10FFFF
201FFE
C00000
ENDCHAR
STARTCHAR 3165
ENCODING 12645
SWIDTH 144 0
DWIDTH 24 0
BBX 24 24 0 -2
BITMAP
080000
0E0418
0C67FC
0FF618
186618
186618
30C618
6CC6F8
838630
018602
030602
060603
0C07FF
3003FE
C02000
001800
01CC00
098C10
09800C
118046
318047
E18063
C1FFE0
00FFC0
ENDCHAR
STARTCHAR 3166
ENCODING 12646
SWIDTH 144 0
DWIDTH 24 0
BBX 24 24 0 -2
BITMAP
1C0400
180700
180600
180606
19FFFF
180C40
FF1820
181830
18331C
18630F
18FFFE
196318
186318
1B6318
FC7FF8
786318
586318
186318
187FF8
186302
180302
180303
F803FF
3001FE
ENDCHAR
STARTCHAR 3167
ENCODING 12647
SWIDTH 144 0
DWIDTH 24 0
BBX 24 24 0 -2
BITMAP
1C001C
1801FE
187F88
18220E
18110C
191998
FF9990
180024
183FFE
180600
180600
190602
1E7FFF
F80C00
780C0C
580FFE
181A0C
181A18
183118
1821B0
1840E0
1981BF
F80E1E
307006
ENDCHAR
STARTCHAR 3168
ENCODING 12648
SWIDTH 144 0
DWIDTH 24 0
BBX 24 24 0 -2
BITMAP
101040
0C1C40
061840
061820
001820
003030
803018
60201C
32600F
32400E
048006
050000
0C4018
087FFC
186018
186018
306018
F06018
706018
306018
306018
307FF8
386018
186018
ENDCHAR
STARTCHAR 3169
ENCODING 12649
SWIDTH 144 0
DWIDTH 24 0
BBX 24 24 0 -2
BITMAP
100380
0C4300
064306
067FFF
00C006
018004
818018
607FFC
320300
320300
047FFC
04630C
0C630C
08630C
187FFC
18630C
30630C
F0630C
707FFC
301040
301C30
30381C
38600E
198006
ENDCHAR
STARTCHAR 316a
ENCODING 12650
SWIDTH 144 0
DWIDTH 24 0
BBX 24 24 0 -2
BITMAP
001C00
001820
021838
021870
0418C0
1C1900
183600
003180
0060E0
00C038
01801C
061C0E
781806
001820
021838
023470
043580
1C3200
186300
006180
00C0E0
01807F
0E003E
F0000C
ENDCHAR
STARTCHAR 316b
ENCODING 12651
SWIDTH 144 0
DWIDTH 24 0
BBX 24 24 0 -2
BITMAP
0E0200
0C0380
0C030C
0C03FE
0C860C
0CE618
2CCC18
2D8830
2E1020
4C2040
CC0080
CC3A06
0C33FF
0C3306
0C3306
0C3306
1A3306
1933FE
19B306
11B306
31B306
203306
4033FE
803306
ENDCHAR
STARTCHAR 316c
ENCODING 12652
SWIDTH 144 0
DWIDTH 24 0
BBX 24 24 0 -2
BITMAP
0E0006
0CFFFF
0C0240
0C0240
0C224C
0CBFFE
2CF24C
2DB24C
2D324C
4E324C
CC324C
CC324C
0C3FFC
0C300C
0C01C0
0C0180
1A018C
193FFE
198180
118180
318180
200186
40FFFF
800000
ENDCHAR
STARTCHAR 316d
ENCODING 12653
SWIDTH 144 0
DWIDTH 24 0
BBX 24 24 0 -2
BITMAP
00E380
00C300
00C306
FFFFFF
00C300
00C300
00FF00
070070
060064
067E67
FE666E
066670
066660
0E6662
F66662
667E63
46007F
06003E
000000
088410
10820C
30C306
E0C187
C0C183
ENDCHAR
STARTCHAR 316e
ENCODING 12654
SWIDTH 144 0
DWIDTH 24 0
BBX 24 24 0 -2
BITMAP
020380
038300
470304
267FFE
1C0300
180300
380302
2DFFFF
4C0000
8C2018
0C3FFC
1E3018
1E3018
163018
363FF8
260684
660C87
461C4E
863C50
066C20
0D8C30
0C0D9C
7C7E0F
183806
ENDCHAR
STARTCHAR 316f
ENCODING 12655
SWIDTH 144 0
DWIDTH 24 0
BBX 24 24 0 -2
BITMAP
080030
0E1FF8
0C0030
080030
920FF0
638030
330030
360032
0C7FFF
090380
108704
FFCD87
7CD986
4C23CC
0C06D0
4D0CE0
7CB1E0
6CC3D0
6CC6D8
4C0CCF
4C30CE
8CC0C6
0C07C0
0C0180
ENDCHAR
STARTCHAR 3170
ENCODING 12656
SWIDTH 144 0
DWIDTH 24 0
BBX 24 24 0 -2
BITMAP
048080
4498E0
7FFCCC
6498FE
649898
7FF998
649910
649926
7FFBFF
000726
000326
FFFF26
000326
203326
3FFBFE
303306
303300
3FF300
084300
044302
049B02
FFE303
7C03FF
4001FE
ENDCHAR
STARTCHAR 3171
ENCODING 12657
SWIDTH 144 0
DWIDTH 24 0
BBX 24 24 0 -2
BITMAP
00E380
00C300
00C306
FFFFFF
00C300
00C300
08C300
0E0000
0C0418
0C67FC
0FF618
186618
186618
306618
28C618
46C618
8386F8
018630
030600
060602
0C0602
180603
3007FF
C003FE
ENDCHAR
STARTCHAR 3172
ENCODING 12658
SWIDTH 144 0
DWIDTH 24 0
BBX 24 24 0 -2
BITMAP
00E380
00C306
FFFFFF
00C300
20C30C
3FFFFE
30180C
31FF8C
30180C
37FFEC
30000C
31FF8C
31818C
31818C
31FFCC
30386C
307CCC
30DB0C
3199CC
3618CC
30180C
30000C
3FFFFC
30000C
ENDCHAR
STARTCHAR 3173
ENCODING 12659
SWIDTH 144 0
DWIDTH 24 0
BBX 24 24 0 -2
BITMAP
000380
400318
307FFC
180300
0C0306
0DFFFF
000000
002030
003FF8
003030
0C3030
FE3030
0C3FF8
0C070E
0C0F0C
0C1BD0
0C3338
0C631C
0D830C
0C0300
1A0000
F1FFFF
607FFE
400000
ENDCHAR
STARTCHAR 3174
ENCODING 12660
SWIDTH 144 0
DWIDTH 24 0
BBX 24 24 0 -2
BITMAP
060210
060390
0D0310
0CC310
086318
186608
10060C
21840F
3FCC06
460806
861000
06C000
7FE40C
0607FE
06860C
46E60C
26C60C
36860C
37060C
06060C
06E60C
FF07FC
78060C
400000
ENDCHAR
STARTCHAR 3175
ENCODING 12661
SWIDTH 144 0
DWIDTH 24 0
BBX 24 24 0 -2
BITMAP
070000
066418
0FF7FC
0C6618
18C618
36C6FA
658632
830603
0647FF
0C73FE
306000
C7FFC0
0600C0
07FFC0
0600C0
07FFC0
060010
07FFF8
060006
17FFFF
122206
211186
6199BE
61980C
ENDCHAR
STARTCHAR 3176
ENCODING 12662
SWIDTH 144 0
DWIDTH 24 0
BBX 24 24 0 -2
BITMAP
002000
1C3800
18300C
187FFE
184000
188000
1A2030
FF3FF8
183030
183030
183030
183FF0
183030
180000
18800C
1AFFFE
1CCCCC
F8CCCC
70CCCC
40CCCC
00CCCC
00CCCC
07FFFF
000000
ENDCHAR
STARTCHAR 3177
ENCODING 12663
SWIDTH 144 0
DWIDTH 24 0
BBX 24 24 0 -2
BITMAP
0700C0
0600C0
0600C0
0601A0
0661A0
FFF1A0
0C0110
0C0310
0C0218
0CC60C
0FE40F
0CC906
0CD0C6
0CE060
18C030
18C030
18C000
18C200
30C180
3180E0
218070
618038
4F8018
830018
ENDCHAR
STARTCHAR 3178
ENCODING 12664
SWIDTH 144 0
DWIDTH 24 0
BBX 24 24 0 -2
BITMAP
100000
0C000C
067FFE
060600
000600
000600
800E00
620C06
33FFFF
320C00
041C00
041800
0C180C
081FFE
18300C
18300C
30300C
F0001C
700018
300018
300038
300030
3803F0
1800E0
ENDCHAR
STARTCHAR 3179
ENCODING 12665
SWIDTH 144 0
DWIDTH 24 0
BBX 24 24 0 -2
BITMAP
071006
061FFF
2618C6
3618C6
3618C6
369FFE
3FD8C6
2618C6
6618C6
461FFE
861806
0681C0
3FC180
060186
063FFF
060186
060186
06C306
070306
FC0606
70060C
400C0C
00187C
00E018
ENDCHAR
STARTCHAR 317a
ENCODING 12666
SWIDTH 144 0
DWIDTH 24 0
BBX 24 24 0 -2
BITMAP
000000
40C206
7FE3FF
60C306
60C306
60C306
60C306
60C306
60C306
60C306
60C306
60C306
60C306
60FF06
60C306
60C306
600006
600006
600006
600006
600006
7FFFFE
600006
600006
ENDCHAR
STARTCHAR 317b
ENCODING 12667
SWIDTH 144 0
DWIDTH 24 0
BBX 24 24 0 -2
BITMAP
001C00
001800
001800
001800
081830
0FFFF8
0C1830
0C1830
0C1830
0C1830
0C1830
0C1830
0C1836
FFFFFF
003400
007400
006200
00E300
00C180
0180C0
030070
06003F
18001E
E00006
ENDCHAR
STARTCHAR 317c
ENCODING 12668
SWIDTH 144 0
DWIDTH 24 0
BBX 24 24 0 -2
BITMAP
008000
00E000
10C018
1FFFFC
180018
191D18
18D9D8
18D998
181A18
1BFFD8
183818
187C18
185B18
189998
1B1998
183018
18301A
FFFFFF
007400
00E300
01C1C0
0380FE
0E003C
70000C
ENDCHAR
STARTCHAR 317d
ENCODING 12669
SWIDTH 144 0
DWIDTH 24 0
BBX 24 24 0 -2
BITMAP
040800
070600
0E0380
0C0180
18000C
30FFFE
620300
838300
070300
060300
0C0300
1C0300
3C0318
6C7FFC
8C0300
0C0300
0C0300
0C0300
0C0300
0C0300
0C0300
0C0306
0DFFFF
0C0000
ENDCHAR
STARTCHAR 317e
ENCODING 12670
SWIDTH 144 0
DWIDTH 24 0
BBX 24 24 0 -2
BITMAP
000E00
000C00
100C06
1FFFFF
180000
180400
180200
183B00
183180
183180
183180
183010
19300C
193006
193007
193003
193003
333008
333008
37300C
26300C
603FFC
401FF8
800000
ENDCHAR
STARTCHAR 3221
ENCODING 12833
SWIDTH 144 0
DWIDTH 24 0
BBX 24 24 0 -2
BITMAP
0E0000
0C2006
0C3FFF
0C3186
0C3186
0DB186
FFF186
0C3186
0C3FFE
0C3186
0C3186
0DB186
1E3186
FC3186
6C3FFE
4C3186
0C3186
0C0180
0C0180
0C0180
0C0180
0C0180
7C0180
180180
ENDCHAR
STARTCHAR 3222
ENCODING 12834
SWIDTH 144 0
DWIDTH 24 0
BBX 24 24 0 -2
BITMAP
000000
430006
7FBFFF
630180
630180
630180
630180
630180
630180
630180
7F018C
633FFE
630180
630180
630180
630180
630180
630180
630180
7F0180
630180
600186
00FFFF
000000
ENDCHAR
STARTCHAR 3223
ENCODING 12835
SWIDTH 144 0
DWIDTH 24 0
BBX 24 24 0 -2
BITMAP
0E0E70
0C0C60
0C0C64
0C7FFE
0D0C60
FF8C60
0C0C62
0CFFFF
1C0180
1C218C
1E3FFE
1D318C
3DB18C
2DBFFC
2C318C
6C318C
4C318C
8C3FFC
0C300C
0C0800
0C0E60
0C1C1C
0C300E
0CC006
ENDCHAR
STARTCHAR 3224
ENCODING 12836
SWIDTH 144 0
DWIDTH 24 0
BBX 24 24 0 -2
BITMAP
403200
7FFB80
600300
604300
607606
6867FF
64E406
62CC04
62C8E8
6190C0
6180C0
61C0C0
6340C0
6360C0
6261A0
6631A0
6431A0
6831B0
700110
600318
60621C
7FF20F
60040E
001806
ENDCHAR
STARTCHAR 3225
ENCODING 12837
SWIDTH 144 0
DWIDTH 24 0
BBX 24 24 0 -2
BITMAP
403218
7FFBFC
600318
604318
607318
686318
64E318
62C218
62C61F
61840F
618800
61C00C
634FFE
63620C
62620C
663118
643198
6830F0
700060
6000F0
6031B8
7FFB1F
60060E
001806
ENDCHAR
STARTCHAR 3226
ENCODING 12838
SWIDTH 144 0
DWIDTH 24 0
BBX 24 24 0 -2
BITMAP
000000
00000C
7FFFFE
001800
001800
001800
001800
001800
001800
001800
001818
3FFFFC
001800
001800
001800
001800
001800
001800
001800
001800
001800
001806
FFFFFF
000000
ENDCHAR
STARTCHAR 3227
ENCODING 12839
SWIDTH 144 0
DWIDTH 24 0
BBX 24 24 0 -2
BITMAP
020080
038080
030040
072060
063838
0C301F
18610E
2040C6
C08760
0FF830
078030
040000
00600C
FFF7FE
10620C
0C618C
0C618C
00E01C
0760EC
7C6F8C
38670C
20640C
07E0FC
01C038
ENDCHAR
STARTCHAR 3228
ENCODING 12840
SWIDTH 144 0
DWIDTH 24 0
BBX 24 24 0 -2
BITMAP
1C0200
180380
180300
182406
1B3FFF
FFB006
033496
063296
0632A6
0D37F6
09B1C6
1B32B6
1C3496
3B3006
59B186
99B186
187FFF
180180
180340
180320
180638
180C1F
18180E
186006
ENDCHAR
STARTCHAR 3229
ENCODING 12841
SWIDTH 144 0
DWIDTH 24 0
BBX 24 24 0 -2
BITMAP
004020
103038
0C1870
061840
260086
3FFFFF
603006
C220C4
C3FFE8
0300C0
03FFC0
0300C0
0300C0
03FFC0
030000
03FFF0
03000C
03FFFE
03000C
08020C
09118C
119998
719878
600030
ENDCHAR
STARTCHAR 322a
ENCODING 12842
SWIDTH 144 0
DWIDTH 24 0
BBX 24 24 0 -2
BITMAP
000080
4060E0
7FF4CC
6007FE
60860C
60E60C
68C7FC
64C60C
66C60C
6287FC
638600
610606
6387FF
62C600
66C606
6467FF
686606
706026
600AB6
600A96
7FEA8E
601A0C
60187C
000018
ENDCHAR
STARTCHAR 322b
ENCODING 12843
SWIDTH 144 0
DWIDTH 24 0
BBX 24 24 0 -2
BITMAP
00E380
00C300
00C30C
7FFFFE
00C300
00C300
00C306
FFFFFF
001800
081830
0FFFF8
0C1830
0C1830
0C1830
0FFFF0
0C1830
0C1830
0C1830
0FFFF0
010000
01C180
038078
0E001C
70000C
ENDCHAR
STARTCHAR 322c
ENCODING 12844
SWIDTH 144 0
DWIDTH 24 0
BBX 24 24 0 -2
BITMAP
400006
7FFFFF
600106
6201C6
618186
60C306
60C206
6004C6
67FFE6
601806
601806
6398E6
6318C6
6318C6
6318C6
6318C6
6318C6
63FFC6
6300C6
6300C6
600006
600006
60003E
60000C
ENDCHAR
STARTCHAR 322d
ENCODING 12845
SWIDTH 144 0
DWIDTH 24 0
BBX 24 24 0 -2
BITMAP
1001C0
0C0180
060180
060180
004186
007FFF
806186
606186
326186
326186
046186
046186
0C6186
086186
187FFE
186186
306186
F00180
700180
300180
300180
300180
380180
180180
ENDCHAR
STARTCHAR 322e
ENCODING 12846
SWIDTH 144 0
DWIDTH 24 0
BBX 24 24 0 -2
BITMAP
00E380
00C300
00C306
FFFFFF
00C300
00C300
020000
438380
230300
160308
0C130E
1C130C
361318
C63310
0F6320
0B6280
1B0680
330640
630460
830C30
030838
06101F
3E200E
0CC006
ENDCHAR
STARTCHAR 322f
ENCODING 12847
SWIDTH 144 0
DWIDTH 24 0
BBX 24 24 0 -2
BITMAP
040380
070300
060304
06FFFE
0C1020
0C0820
180842
19FFFF
380000
387FF8
586018
986018
187FF8
186018
186018
187FF8
180200
180188
185CC6
1858D3
189813
1B9818
1B1FF8
180FF0
ENDCHAR
STARTCHAR 3230
ENCODING 12848
SWIDTH 144 0
DWIDTH 24 0
BBX 24 24 0 -2
BITMAP
10000C
1FFFFE
18000C
18000C
18000C
1FFFFC
180000
18000C
1BFFFE
181800
181840
181030
1821D8
19FE0C
18F00C
308700
300600
300618
23FFFC
600600
400600
800606
0FFFFF
000000
ENDCHAR
STARTCHAR 3231
ENCODING 12849
SWIDTH 144 0
DWIDTH 24 0
BBX 24 24 0 -2
BITMAP
0E01C0
0C0180
0C0184
0C7FFE
0C0820
2E0420
2D0442
2DFFFF
6D8000
6DBFFC
4C300C
CC300C
CC3FFC
0C300C
0C300C
0C3FFC
0C0200
0C0180
0C2CC8
0C2CC6
0C4C13
0CCC1B
0CCFF8
0C07F0
ENDCHAR
STARTCHAR 3232
ENCODING 12850
SWIDTH 144 0
DWIDTH 24 0
BBX 24 24 0 -2
BITMAP
2301C0
3F8180
330184
333FFE
330810
330410
330422
3F7FFF
330000
331FFC
33180C
33180C
331FFC
3F180C
33180C
331FFC
330000
330180
3316C8
2316C6
632613
63661B
4F67F8
8603F0
ENDCHAR
STARTCHAR 3233
ENCODING 12851
SWIDTH 144 0
DWIDTH 24 0
BBX 24 24 0 -2
BITMAP
0E000C
0C3FFE
0C000C
0C0218
0CC1A0
FFE0C0
0C10C6
0C1FFF
0C18C6
1E18C6
1D98C6
1CDFFE
3CD8C6
2C18C6
2C18C6
6C18C6
4C1FFE
8C18C6
0C18C6
0C18C6
0C18C6
0C18C6
0C18DE
0C18CC
ENDCHAR
STARTCHAR 3234
ENCODING 12852
SWIDTH 144 0
DWIDTH 24 0
BBX 24 24 0 -2
BITMAP
0701C0
060180
460180
760180
660180
664180
7FE180
460180
46018C
863FFE
060180
060180
06C180
070180
1E0180
F60180
660180
460180
060180
060180
060180
060186
067FFF
060000
ENDCHAR
STARTCHAR 3235
ENCODING 12853
SWIDTH 144 0
DWIDTH 24 0
BBX 24 24 0 -2
BITMAP
000000
000180
7FFFC0
000380
000700
000E00
001C00
003800
007000
00E000
01C000
038000
070000
0E0000
0C0000
180000
180004
300004
300004
300006
3C000E
1FFFFC
03FFF0
000000
ENDCHAR
STARTCHAR 3236
ENCODING 12854
SWIDTH 144 0
DWIDTH 24 0
BBX 24 24 0 -2
BITMAP
040400
070700
060600
060606
0DFFFF
0C0C40
181820
181830
38331C
38630F
58FFFE
9B6318
186318
186318
187FF8
186318
186318
186318
187FF8
186302
180302
180303
1803FF
1801FE
ENDCHAR
STARTCHAR 3237
ENCODING 12855
SWIDTH 144 0
DWIDTH 24 0
BBX 24 24 0 -2
BITMAP
100000
1C0206
1833FF
3FFB06
330306
630306
430306
830306
031B06
FFFF06
030306
030306
030306
3B3306
33FB06
330306
330306
330306
33333E
33C30C
FF0300
780300
400300
000300
ENDCHAR
STARTCHAR 3238
ENCODING 12856
SWIDTH 144 0
DWIDTH 24 0
BBX 24 24 0 -2
BITMAP
080030
0FFFF8
0C1C30
0C1830
0C1930
0DFFB0
0C1830
0C1830
0C3430
0C3330
0C61B0
0D81B0
0C0030
0FFFF0
0C0030
001000
01CC00
118610
11860C
218046
618047
E18063
C1FFE0
00FFC0
ENDCHAR
STARTCHAR 3239
ENCODING 12857
SWIDTH 144 0
DWIDTH 24 0
BBX 24 24 0 -2
BITMAP
100000
0C2030
063FF8
063030
003030
003030
803FF0
603030
323030
323030
043FF0
043030
0C0000
08800C
18FFFE
18CCCC
30CCCC
F0CCCC
70CCCC
30CCCC
30CCCC
30CCCC
3BFFFF
180000
ENDCHAR
STARTCHAR 323a
ENCODING 12858
SWIDTH 144 0
DWIDTH 24 0
BBX 24 24 0 -2
BITMAP
01801C
0FC1FE
FC3FC8
0C020E
0C210C
0C1998
0D9990
FFC02C
0C3FFE
1C000C
1C000C
1E1FFC
1D000C
3D800C
3DBFFC
2C000C
6C0100
4C0E88
8C2CC6
0C2CD3
0C6C13
0CCC18
0CCFF8
0C07F0
ENDCHAR
STARTCHAR 323b
ENCODING 12859
SWIDTH 144 0
DWIDTH 24 0
BBX 24 24 0 -2
BITMAP
001C00
001800
001818
3FFFFC
020080
0100E0
0180C0
018080
000106
FFFFFF
000000
000000
040060
07FFF0
060060
060060
060060
07FFE0
060060
060060
060060
07FFE0
060060
060060
ENDCHAR
STARTCHAR 323c
ENCODING 12860
SWIDTH 144 0
DWIDTH 24 0
BBX 24 24 0 -2
BITMAP
000000
000006
FFFFFF
003000
003000
003000
003000
003C00
003300
0031C0
0030E0
003070
003030
003000
003000
003000
003000
003000
003000
003000
003000
003000
003000
003000
ENDCHAR
STARTCHAR 323d
ENCODING 12861
SWIDTH 144 0
DWIDTH 24 0
BBX 24 24 0 -2
BITMAP
010E00
01CC00
018C00
038C00
030C08
030C0E
060C1C
060C18
0E0C30
0E0C60
160CC0
260D00
460E00
860C00
060C00
060C00
060C00
060C00
060C02
060C02
060C03
060E03
060FFF
0607FE
ENDCHAR
STARTCHAR 323e
ENCODING 12862
SWIDTH 144 0
DWIDTH 24 0
BBX 24 24 0 -2
BITMAP
040000
07400C
067FFE
066000
0C6000
0C6000
0C6000
186018
187FFC
386418
386418
586430
986230
186230
186360
186160
18C1C0
18C080
18C1C0
188360
198638
190C1F
1A100E
186006
ENDCHAR
STARTCHAR 323f
ENCODING 12863
SWIDTH 144 0
DWIDTH 24 0
BBX 24 24 0 -2
BITMAP
040000
070006
06FFFF
060018
0C0018
0C0018
188318
18FF98
38C318
38C318
58C318
98C318
18C318
18C318
18FF18
18C318
18C318
18C018
180018
180018
180018
180018
1801F8
180070
ENDCHAR
STARTCHAR 3240
ENCODING 12864
SWIDTH 144 0
DWIDTH 24 0
BBX 24 24 0 -2
BITMAP
087000
0E6000
0C6000
0C6000
0C6686
1BFEFF
1866C6
1866C6
3866C6
3866C6
7866C6
5866C6
9866C6
1866C6
1866C6
18C6C6
18C6C6
18C6C6
18CCC6
188CC6
198CFE
190CC6
197CC6
1A1800
ENDCHAR
STARTCHAR 3241
ENCODING 12865
SWIDTH 144 0
DWIDTH 24 0
BBX 24 24 0 -2
BITMAP
080000
0E0000
0C0006
0DFFFF
0C0CC0
180CC0
180CC0
180CC0
388CCC
38FFFE
78CCCC
58CCCC
98CCCC
18CCCC
18CCCC
18CCCC
18CCCC
18CCCC
18CCCC
18CCCC
18CCCC
18FFFC
18C00C
180000
ENDCHAR
STARTCHAR 3242
ENCODING 12866
SWIDTH 144 0
DWIDTH 24 0
BBX 24 24 0 -2
BITMAP
080380
0E0300
0C0300
0C030C
0CFFFE
180300
180300
180300
380306
39FFFF
780000
580000
980380
180300
18030C
18FFFE
180300
180300
180300
180300
180300
180306
19FFFF
180000
ENDCHAR
STARTCHAR 3243
ENCODING 12867
SWIDTH 144 0
DWIDTH 24 0
BBX 24 24 0 -2
BITMAP
070000
060000
060000
060000
063106
FFF9FF
063186
063186
063186
063186
063186
063186
063186
0C3186
0C3186
0C3186
0C3186
183186
183186
103186
3071FE
206186
47E186
81C000
ENDCHAR
STARTCHAR 3244
ENCODING 12868
SWIDTH 144 0
DWIDTH 24 0
BBX 24 24 0 -2
BITMAP
000000
000006
FFFFFF
000060
000060
000060
083060
0FF860
0C3060
0C3060
0C3060
0C3060
0C3060
0C3060
0FF060
0C3060
0C3060
000060
000060
000060
000060
000060
0007E0
0001C0
ENDCHAR
STARTCHAR 3245
ENCODING 12869
SWIDTH 144 0
DWIDTH 24 0
BBX 24 24 0 -2
BITMAP
001C00
001806
FFFFFF
001800
001808
3FFFFC
000000
000000
0FFFF0
0C0030
0C0030
0FFFF0
010180
00C180
00C206
FFFFFF
030000
030000
7FF3FC
06330C
06330C
0C330C
19F3FC
60630C
ENDCHAR
STARTCHAR 3246
ENCODING 12870
SWIDTH 144 0
DWIDTH 24 0
BBX 24 24 0 -2
BITMAP
000006
FFFFFF
003000
002000
07FFE0
060060
060060
07FFE0
060060
060060
07FFE0
060060
060060
07FFE0
006000
00C0C0
01FFE0
0301C0
0C8380
706600
003C00
00E7C0
0780FF
F8001E
ENDCHAR
STARTCHAR 3247
ENCODING 12871
SWIDTH 144 0
DWIDTH 24 0
BBX 24 24 0 -2
BITMAP
1C01C0
181180
181186
181FFF
183004
19B008
FF8004
31BFFE
318300
330608
330D0E
63199C
6363B0
6606C0
660CC0
D418E0
CC61E0
0E03D0
1B06D8
130CCF
3030CE
21C0C6
400FC0
800380
ENDCHAR
STARTCHAR 3248
ENCODING 12872
SWIDTH 144 0
DWIDTH 24 0
BBX 24 24 0 -2
BITMAP
001C00
201800
201806
7FFFFF
600006
C00004
C000C8
1FFFE0
006000
00D008
03980E
0E3C1C
706430
00C640
018F00
061E80
3836C0
007660
00E638
03861F
0E060E
F00C06
00FC00
003800
ENDCHAR
STARTCHAR 3249
ENCODING 12873
SWIDTH 144 0
DWIDTH 24 0
BBX 24 24 0 -2
BITMAP
201C00
201806
3FFFFF
600006
600004
CFFFF0
C03000
002000
07FFE0
060060
07FFE0
060060
07FFE0
060066
FFFFFF
018100
030080
07FFE0
0C61BF
30619E
C0C186
018300
061F00
180600
ENDCHAR
STARTCHAR 324a
ENCODING 12874
SWIDTH 144 0
DWIDTH 24 0
BBX 24 24 0 -2
BITMAP
00E01C
0FF018
FE0018
060418
060318
060198
066198
FFF018
060018
0E0818
0E0618
0F0318
1EC318
1E601A
16601F
3600F8
260798
463C18
860018
060018
060018
060018
060018
060018
ENDCHAR
STARTCHAR 324b
ENCODING 12875
SWIDTH 144 0
DWIDTH 24 0
BBX 24 24 0 -2
BITMAP
004306
467F7F
7F6306
666306
666306
666306
666306
667F7E
666306
7E6000
666000
666606
667FFF
666086
666086
66604C
7E604C
666658
607F30
606030
006058
0060CF
00618E
006606
ENDCHAR
STARTCHAR 324c
ENCODING 12876
SWIDTH 144 0
DWIDTH 24 0
BBX 24 24 0 -2
BITMAP
080030
0FFFF8
0C1830
0C1830
0C1830
0FFFF0
0C1830
0C1830
0C1830
0C1830
0FFFF0
0C1830
001800
001806
FFFFFF
007A00
00D900
01D880
0398C0
071870
0C183F
30181E
C01806
001800
ENDCHAR
STARTCHAR 324d
ENCODING 12877
SWIDTH 144 0
DWIDTH 24 0
BBX 24 24 0 -2
BITMAP
070000
060000
063206
7FFBFF
063306
063306
0C3306
0C7306
186306
1863FE
33E306
60C000
801C00
001800
001806
FFFFFF
007A00
00D900
01D8C0
039870
06183F
18181E
E01806
001800
ENDCHAR
STARTCHAR 324e
ENCODING 12878
SWIDTH 144 0
DWIDTH 24 0
BBX 24 24 0 -2
BITMAP
003200
FFFB80
00C300
00C300
7CC606
44C7FF
44C406
7CCC04
00C9C8
03D180
018180
000180
FFF980
00C180
00C340
7CC340
44C340
44C220
44C220
7CC630
00C418
00C41F
07C80E
01B006
ENDCHAR
STARTCHAR 324f
ENCODING 12879
SWIDTH 144 0
DWIDTH 24 0
BBX 24 24 0 -2
BITMAP
100000
0C0006
06FFFF
060018
000018
000018
804318
607F98
326318
326318
046318
046318
0C6318
086318
187F18
186318
306018
F00018
700018
300018
300018
300018
3800F8
180030
ENDCHAR
STARTCHAR 3250
ENCODING 12880
SWIDTH 144 0
DWIDTH 24 0
BBX 24 24 0 -2
BITMAP
001C00
001800
001800
001800
001800
001808
04180E
04181C
041818
0C1830
081840
183400
383400
303400
006200
006200
00C100
00C180
0180C0
0300E0
060078
0C003F
30001E
C00006
ENDCHAR
STARTCHAR 3251
ENCODING 12881
SWIDTH 144 0
DWIDTH 24 0
BBX 24 24 0 -2
BITMAP
000000
018006
FFFFFF
180018
180018
180018
182198
183FD8
193198
FFB198
183198
183198
183198
183198
183198
183F98
19B198
1E3018
F80018
700018
400018
000018
0000F8
000030
ENDCHAR
STARTCHAR 3252
ENCODING 12882
SWIDTH 144 0
DWIDTH 24 0
BBX 24 24 0 -2
BITMAP
0E0818
0C0FFC
0C0C18
0C0C18
0D8CF8
FFCC98
018C98
030C98
030C98
062C9A
043FFF
0E3006
1D3006
2DB436
CDB7F6
0C3636
0C3636
0C3636
0C37F6
0C3636
0C3006
0C3006
0C303E
0C300C
ENDCHAR
STARTCHAR 3253
ENCODING 12883
SWIDTH 144 0
DWIDTH 24 0
BBX 24 24 0 -2
BITMAP
000070
0007F8
007F80
3FF800
001800
001800
001800
001800
001806
FFFFFF
007A00
00D900
00D900
019880
0198C0
031860
061870
0C1838
18181F
30180E
C01806
001800
001800
001800
ENDCHAR
STARTCHAR 3254
ENCODING 12884
SWIDTH 144 0
DWIDTH 24 0
BBX 24 24 0 -2
BITMAP
0181C0
0FD180
FC1186
0C1FFF
0C3004
0C3008
0D8004
FFDFFE
0C0300
1C0608
1C0D0E
1E199C
1D63B0
3D86C0
2D8CC0
2C18E0
6C61E0
4C03D0
8C06D8
0C0CCF
0C30CE
0DC0C6
0C0FC0
0C0380
ENDCHAR
STARTCHAR 3255
ENCODING 12885
SWIDTH 144 0
DWIDTH 24 0
BBX 24 24 0 -2
BITMAP
080200
0E0380
1C6306
1FF7FF
320680
618C60
819060
20000C
3FFFFE
30000C
301C0C
30188C
33FFCC
30180C
30180C
31FF8C
31818C
31818C
31818C
31FF8C
31818C
30000C
3FFFFC
30000C
ENDCHAR
STARTCHAR 3256
ENCODING 12886
SWIDTH 144 0
DWIDTH 24 0
BBX 24 24 0 -2
BITMAP
00E380
00C300
00C300
00C306
FFFFFF
00C300
00C300
00C300
020000
038708
03060E
07061C
060638
0E0660
0E06C0
1E0700
360600
C60600
060600
060602
060602
060603
0607FF
0603FE
ENDCHAR
STARTCHAR 3257
ENCODING 12887
SWIDTH 144 0
DWIDTH 24 0
BBX 24 24 0 -2
BITMAP
00E380
00C300
00C306
FFFFFF
00C300
00C300
00C300
000000
000006
FFFFFF
000030
000030
040C30
07FE30
060C30
060C30
060C30
060C30
07FC30
060C30
060030
000030
0001F0
000060
ENDCHAR
STARTCHAR 3258
ENCODING 12888
SWIDTH 144 0
DWIDTH 24 0
BBX 24 24 0 -2
BITMAP
00E380
00C300
00C306
FFFFFF
00C300
00C300
070000
060000
06020C
0633FE
7FFB0C
06330C
06330C
06330C
06330C
06330C
0C330C
0C330C
0C330C
08730C
1863FC
10630C
23E30C
C0C000
ENDCHAR
STARTCHAR 3259
ENCODING 12889
SWIDTH 144 0
DWIDTH 24 0
BBX 24 24 0 -2
BITMAP
00E380
00C300
00C306
FFFFFF
00C300
00C300
040000
070006
06FFFF
0C0030
0C0030
188630
18FF30
38C630
58C630
98C630
18C630
18FE30
18C630
18C030
180030
180030
1801F0
180060
ENDCHAR
STARTCHAR 325a
ENCODING 12890
SWIDTH 144 0
DWIDTH 24 0
BBX 24 24 0 -2
BITMAP
01C1C0
018180
018186
FFFFFF
018180
018180
000018
3FFFFC
061860
061860
061866
FFFFFF
061860
061860
061868
3FFFFC
001800
001800
00180C
7FFFFE
001800
001800
001800
001800
ENDCHAR
STARTCHAR 325b
ENCODING 12891
SWIDTH 144 0
DWIDTH 24 0
BBX 24 24 0 -2
BITMAP
00E380
00C306
FFFFFF
00C300
00C300
0FFFF0
0C1830
0C1830
0C1830
0FFFF0
0C1830
0C1830
0C1830
0FFFF0
001800
001806
FFFFFF
007A00
00F900
01D8C0
071870
1C183F
E0180E
001800
ENDCHAR
STARTCHAR 325c
ENCODING 12892
SWIDTH 144 0
DWIDTH 24 0
BBX 24 24 0 -2
BITMAP
002186
0E3FBF
0C3186
0C3186
0C3186
4CB186
7FF186
4CBFBE
4CB186
4CB000
4CB000
4CB0FE
7FB246
4CBF46
4C3044
0C302C
0D302C
0D3328
0FBF98
F9B030
61B028
40306C
0030C7
003306
ENDCHAR
STARTCHAR 325d
ENCODING 12893
SWIDTH 144 0
DWIDTH 24 0
BBX 24 24 0 -2
BITMAP
03100C
7F9FFE
00198C
00198C
01998C
FFDFFC
00198C
00198C
03198C
7F998C
001FFC
00198C
030180
7F8182
007FFF
0007A0
4307A0
7F8D90
630D98
63198C
63118F
632186
7F4186
630180
ENDCHAR
STARTCHAR 325e
ENCODING 12894
SWIDTH 144 0
DWIDTH 24 0
BBX 24 24 0 -2
BITMAP
001C70
001860
461866
7FFFFF
661860
661860
660004
66FFFE
663318
663318
66331A
67FFFF
663318
663318
663318
66FFFE
7E0300
660300
600306
63FFFF
000300
000300
000300
000300
ENDCHAR
STARTCHAR 325f
ENCODING 12895
SWIDTH 144 0
DWIDTH 24 0
BBX 24 24 0 -2
BITMAP
010000
01CE18
038C3C
070CE0
0E0F02
360C03
C60FFF
0607FE
000000
000000
07FFE0
060060
060060
07FFE0
060060
060060
07FFE0
060060
060060
07FFE0
010000
03C1C0
0F003C
70000C
ENDCHAR
STARTCHAR 3260
ENCODING 12896
SWIDTH 144 0
DWIDTH 24 0
BBX 24 24 0 -2
BITMAP
007000
406000
306000
186046
18667F
03FF66
006666
006666
006666
0C6666
FE6666
0C6666
0CC666
0CC666
0CC666
0C8C66
0D8C7E
0D3C66
0E1800
0C0000
1A0000
F1FFFF
607FFE
400000
ENDCHAR
STARTCHAR 3261
ENCODING 12897
SWIDTH 144 0
DWIDTH 24 0
BBX 24 24 0 -2
BITMAP
001030
401FF8
301830
181830
0C19F0
0C1930
001930
001930
009936
00FFFF
0CC006
FEC006
0CCFE6
0CCC66
0CCC66
0CCC66
0CCFE6
0CCC06
0CC03E
0CC00C
1A0000
F1FFFF
607FFE
400000
ENDCHAR
STARTCHAR 3262
ENCODING 12898
SWIDTH 144 0
DWIDTH 24 0
BBX 24 24 0 -2
BITMAP
000030
0FFFF8
001800
201806
3FFFFF
601806
EF99E4
C01800
1F99F8
001800
000000
3FE7FC
30600C
30600C
3FE7FC
300000
300000
3FE7FC
30021C
300138
3FE0E0
3001B8
30061F
303806
ENDCHAR
STARTCHAR 3263
ENCODING 12899
SWIDTH 144 0
DWIDTH 24 0
BBX 24 24 0 -2
BITMAP
0700E0
0600C0
0600C0
0600C0
0600C6
461FFF
7FE418
666418
666418
666218
666230
666230
666330
7FE130
666160
6601E0
0600C0
0640E0
0621A0
0FF1B0
FE3318
70361F
400C0E
003006
ENDCHAR
STARTCHAR 3264
ENCODING 12900
SWIDTH 144 0
DWIDTH 24 0
BBX 24 24 0 -2
BITMAP
0819C0
0E3D90
0C7188
0CE18C
1B618C
186180
186180
306186
37FFFF
306180
706188
B0618E
30608C
306CC8
37F0D8
336050
326070
306022
306072
3060DA
30619A
30630E
33EC07
30C003
ENDCHAR
STARTCHAR 3265
ENCODING 12901
SWIDTH 144 0
DWIDTH 24 0
BBX 24 24 0 -2
BITMAP
000CE0
1C1EC8
1838C4
1878C6
1998C6
1818C0
9918C0
9918C6
99FFFF
9918C0
9918C4
991847
991846
991B64
99FC6C
997828
995838
FF1812
81183A
81182A
00184E
001886
00FB07
003003
ENDCHAR
STARTCHAR 3266
ENCODING 12902
SWIDTH 144 0
DWIDTH 24 0
BBX 24 24 0 -2
BITMAP
006700
00F620
03C618
0F060C
73060C
030600
030600
030606
FFFFFF
030600
030608
03030E
03630C
0F831C
FB0198
7301B0
4300E0
0300C0
0301E2
030372
03063A
03181E
3F000F
0E0003
ENDCHAR
STARTCHAR 3267
ENCODING 12903
SWIDTH 144 0
DWIDTH 24 0
BBX 24 24 0 -2
BITMAP
000018
3FFFFC
030300
030300
030300
030300
030300
030300
030300
030306
FFFFFF
000F00
001F00
003B00
007300
00E300
01C300
030300
060300
180300
600300
000300
003F00
000E00
ENDCHAR
STARTCHAR 3268
ENCODING 12904
SWIDTH 144 0
DWIDTH 24 0
BBX 24 24 0 -2
BITMAP
000006
FFFFFF
001800
001800
001800
0218C0
3BFFEE
3318CC
3318CC
3318CC
3318CC
33FFCC
3318CC
3318CC
3318CC
3318CC
3318CC
33FFCC
3300CC
30000C
30000C
3FFFFC
30000C
30000C
ENDCHAR
STARTCHAR 3269
ENCODING 12905
SWIDTH 144 0
DWIDTH 24 0
BBX 24 24 0 -2
BITMAP
0001C0
406180
7FF180
630180
630180
630180
630180
630180
7FE180
606180
606340
606340
606340
7FE340
630220
630620
630620
630430
630C10
636818
7FF81C
60100F
00200E
00C006
ENDCHAR
STARTCHAR 326a
ENCODING 12906
SWIDTH 144 0
DWIDTH 24 0
BBX 24 24 0 -2
BITMAP
00E380
00C300
00C306
FFFFFF
00C300
00C300
000000
000018
1FFFFC
030180
030180
030180
030186
FFFFFF
000D80
001D80
003980
007180
00E180
018180
070180
1C0180
E01F80
000700
ENDCHAR
STARTCHAR 326b
ENCODING 12907
SWIDTH 144 0
DWIDTH 24 0
BBX 24 24 0 -2
BITMAP
0004E0
0E07C8
0C0EC4
0C1CC6
0C6CC6
0C0CC0
4C8CC0
7F8CC6
4CFFFF
4C8CC0
4C8CC8
4C8CCE
4C8CCC
7F8ECC
4CFC48
4C3C58
0CAC50
0C8C70
0FCC22
FCCC72
70CC52
400C9B
007D0F
001806
ENDCHAR
STARTCHAR 326c
ENCODING 12908
SWIDTH 144 0
DWIDTH 24 0
BBX 24 24 0 -2
BITMAP
070000
063206
FFFBFF
063306
043306
0C3306
09F3FE
186306
300000
C40060
07FFF0
060060
060060
07FFE0
060060
060060
07FFE0
060060
060060
07FFE0
010000
03C1F0
0F003C
70000C
ENDCHAR
STARTCHAR 326d
ENCODING 12909
SWIDTH 144 0
DWIDTH 24 0
BBX 24 24 0 -2
BITMAP
000400
006720
7FF638
198630
198620
198446
198FFF
198C60
198C60
FFFC60
039C6C
03AFFE
078C60
058C60
0D8C60
098C6C
198FFE
118C60
218C60
C18C60
018C60
018C66
0F8FFF
030C00
ENDCHAR
ENDFONT
